<ttFont>
    <TTGlyph name="A" xMin="21" yMin="0" xMax="1565" yMax="1434">
      <contour>
        <pt x="25" y="92" on="1"/>
        <pt x="276" y="1044" on="1"/>
        <pt x="378" y="1433" on="0"/>
        <pt x="940" y="1434" on="1"/>
        <pt x="1479" y="1434" on="1"/>
        <pt x="1516" y="1434" on="0"/>
        <pt x="1565" y="1378" on="0"/>
        <pt x="1565" y="1341" on="1"/>
        <pt x="1565" y="92" on="1"/>
        <pt x="1565" y="53" on="0"/>
        <pt x="1509" y="0" on="0"/>
        <pt x="1470" y="0" on="1"/>
        <pt x="1282" y="0" on="1"/>
        <pt x="1241" y="0" on="0"/>
        <pt x="1188" y="53" on="0"/>
        <pt x="1188" y="94" on="1"/>
        <pt x="1188" y="346" on="1"/>
        <pt x="477" y="346" on="1"/>
        <pt x="410" y="94" on="1"/>
        <pt x="400" y="53" on="0"/>
        <pt x="330" y="0" on="0"/>
        <pt x="291" y="0" on="1"/>
        <pt x="94" y="0" on="1"/>
        <pt x="55" y="0" on="0"/>
        <pt x="21" y="45" on="0"/>
        <pt x="22" y="79" on="0"/>
      </contour>
      <contour>
        <pt x="551" y="629" on="1"/>
        <pt x="1188" y="629" on="1"/>
        <pt x="1188" y="1151" on="1"/>
        <pt x="903" y="1151" on="1"/>
        <pt x="807" y="1151" on="0"/>
        <pt x="664" y="1042" on="0"/>
        <pt x="639" y="950" on="1"/>
      </contour>
    </TTGlyph>
    <TTGlyph name="AE" xMin="21" yMin="0" xMax="2488" yMax="1434">
      <contour>
        <pt x="25" y="92" on="1"/>
        <pt x="276" y="1044" on="1"/>
        <pt x="378" y="1433" on="0"/>
        <pt x="940" y="1434" on="1"/>
        <pt x="2394" y="1434" on="1"/>
        <pt x="2433" y="1434" on="0"/>
        <pt x="2488" y="1378" on="0"/>
        <pt x="2488" y="1339" on="1"/>
        <pt x="2488" y="1245" on="1"/>
        <pt x="2488" y="1206" on="0"/>
        <pt x="2433" y="1151" on="0"/>
        <pt x="2394" y="1151" on="1"/>
        <pt x="1524" y="1151" on="1"/>
        <pt x="1524" y="860" on="1"/>
        <pt x="2273" y="860" on="1"/>
        <pt x="2312" y="860" on="0"/>
        <pt x="2367" y="805" on="0"/>
        <pt x="2367" y="766" on="1"/>
        <pt x="2367" y="672" on="1"/>
        <pt x="2367" y="633" on="0"/>
        <pt x="2312" y="578" on="0"/>
        <pt x="2273" y="578" on="1"/>
        <pt x="1524" y="578" on="1"/>
        <pt x="1524" y="283" on="1"/>
        <pt x="2392" y="283" on="1"/>
        <pt x="2431" y="283" on="0"/>
        <pt x="2484" y="229" on="0"/>
        <pt x="2484" y="190" on="1"/>
        <pt x="2484" y="94" on="1"/>
        <pt x="2484" y="55" on="0"/>
        <pt x="2429" y="0" on="0"/>
        <pt x="2390" y="0" on="1"/>
        <pt x="1241" y="0" on="1"/>
        <pt x="1202" y="0" on="0"/>
        <pt x="1147" y="55" on="0"/>
        <pt x="1147" y="96" on="1"/>
        <pt x="1147" y="346" on="1"/>
        <pt x="477" y="346" on="1"/>
        <pt x="410" y="94" on="1"/>
        <pt x="400" y="53" on="0"/>
        <pt x="330" y="0" on="0"/>
        <pt x="291" y="0" on="1"/>
        <pt x="94" y="0" on="1"/>
        <pt x="55" y="0" on="0"/>
        <pt x="21" y="45" on="0"/>
        <pt x="22" y="79" on="0"/>
      </contour>
      <contour>
        <pt x="551" y="629" on="1"/>
        <pt x="1147" y="629" on="1"/>
        <pt x="1147" y="1151" on="1"/>
        <pt x="903" y="1151" on="1"/>
        <pt x="807" y="1151" on="0"/>
        <pt x="664" y="1042" on="0"/>
        <pt x="639" y="950" on="1"/>
      </contour>
    </TTGlyph>
    <TTGlyph name="Aacute" xMin="21" yMin="0" xMax="1565" yMax="1964">
      <contour>
        <pt x="25" y="92" on="1"/>
        <pt x="276" y="1044" on="1"/>
        <pt x="380" y="1433" on="0"/>
        <pt x="940" y="1434" on="1"/>
        <pt x="1479" y="1434" on="1"/>
        <pt x="1516" y="1434" on="0"/>
        <pt x="1565" y="1380" on="0"/>
        <pt x="1565" y="1341" on="1"/>
        <pt x="1565" y="92" on="1"/>
        <pt x="1565" y="53" on="0"/>
        <pt x="1511" y="0" on="0"/>
        <pt x="1470" y="0" on="1"/>
        <pt x="1282" y="0" on="1"/>
        <pt x="1243" y="0" on="0"/>
        <pt x="1188" y="56" on="0"/>
        <pt x="1188" y="94" on="1"/>
        <pt x="1188" y="346" on="1"/>
        <pt x="477" y="346" on="1"/>
        <pt x="410" y="94" on="1"/>
        <pt x="385" y="0" on="0"/>
        <pt x="291" y="0" on="1"/>
        <pt x="94" y="0" on="1"/>
        <pt x="55" y="0" on="0"/>
        <pt x="21" y="43" on="0"/>
        <pt x="22" y="78" on="0"/>
      </contour>
      <contour>
        <pt x="551" y="629" on="1"/>
        <pt x="1188" y="629" on="1"/>
        <pt x="1188" y="1151" on="1"/>
        <pt x="903" y="1151" on="1"/>
        <pt x="692" y="1151" on="0"/>
        <pt x="639" y="950" on="1"/>
      </contour>
      <contour>
        <pt x="889" y="1661" on="1"/>
        <pt x="938" y="1849" on="1"/>
        <pt x="977" y="1964" on="0"/>
        <pt x="1069" y="1964" on="1"/>
        <pt x="1159" y="1964" on="1"/>
        <pt x="1225" y="1964" on="0"/>
        <pt x="1245" y="1922" on="1"/>
        <pt x="1253" y="1906" on="0"/>
        <pt x="1253" y="1860" on="0"/>
        <pt x="1233" y="1829" on="1"/>
        <pt x="1124" y="1640" on="1"/>
        <pt x="1069" y="1546" on="0"/>
        <pt x="1001" y="1546" on="1"/>
        <pt x="954" y="1546" on="1"/>
        <pt x="880" y="1546" on="0"/>
        <pt x="881" y="1611" on="1"/>
        <pt x="881" y="1632" on="0"/>
      </contour>
    </TTGlyph>
    <TTGlyph name="Acircumflex" xMin="21" yMin="0" xMax="1565" yMax="1860">
      <contour>
        <pt x="25" y="92" on="1"/>
        <pt x="276" y="1044" on="1"/>
        <pt x="378" y="1433" on="0"/>
        <pt x="940" y="1434" on="1"/>
        <pt x="1479" y="1434" on="1"/>
        <pt x="1516" y="1434" on="0"/>
        <pt x="1565" y="1378" on="0"/>
        <pt x="1565" y="1341" on="1"/>
        <pt x="1565" y="92" on="1"/>
        <pt x="1565" y="53" on="0"/>
        <pt x="1509" y="0" on="0"/>
        <pt x="1470" y="0" on="1"/>
        <pt x="1282" y="0" on="1"/>
        <pt x="1241" y="0" on="0"/>
        <pt x="1188" y="53" on="0"/>
        <pt x="1188" y="94" on="1"/>
        <pt x="1188" y="346" on="1"/>
        <pt x="477" y="346" on="1"/>
        <pt x="410" y="94" on="1"/>
        <pt x="400" y="53" on="0"/>
        <pt x="330" y="0" on="0"/>
        <pt x="291" y="0" on="1"/>
        <pt x="94" y="0" on="1"/>
        <pt x="55" y="0" on="0"/>
        <pt x="21" y="45" on="0"/>
        <pt x="22" y="79" on="0"/>
      </contour>
      <contour>
        <pt x="551" y="629" on="1"/>
        <pt x="1188" y="629" on="1"/>
        <pt x="1188" y="1151" on="1"/>
        <pt x="903" y="1151" on="1"/>
        <pt x="807" y="1151" on="0"/>
        <pt x="664" y="1042" on="0"/>
        <pt x="639" y="950" on="1"/>
      </contour>
      <contour>
        <pt x="639" y="1571" on="1"/>
        <pt x="633" y="1582" on="0"/>
        <pt x="633" y="1612" on="0"/>
        <pt x="651" y="1628" on="1"/>
        <pt x="807" y="1772" on="1"/>
        <pt x="899" y="1860" on="0"/>
        <pt x="954" y="1860" on="1"/>
        <pt x="1077" y="1860" on="1"/>
        <pt x="1132" y="1860" on="0"/>
        <pt x="1225" y="1772" on="1"/>
        <pt x="1382" y="1628" on="1"/>
        <pt x="1411" y="1601" on="0"/>
        <pt x="1379" y="1540" on="0"/>
        <pt x="1341" y="1540" on="1"/>
        <pt x="1196" y="1540" on="1"/>
        <pt x="1139" y="1540" on="0"/>
        <pt x="1051" y="1624" on="1"/>
        <pt x="1016" y="1655" on="1"/>
        <pt x="983" y="1624" on="1"/>
        <pt x="895" y="1540" on="0"/>
        <pt x="838" y="1540" on="1"/>
        <pt x="692" y="1540" on="1"/>
        <pt x="655" y="1540" on="0"/>
      </contour>
    </TTGlyph>
    <TTGlyph name="Adieresis" xMin="27" yMin="0" xMax="1571" yMax="1845">
      <contour>
        <pt x="31" y="92" on="1"/>
        <pt x="283" y="1044" on="1"/>
        <pt x="387" y="1433" on="0"/>
        <pt x="946" y="1434" on="1"/>
        <pt x="1485" y="1434" on="1"/>
        <pt x="1522" y="1434" on="0"/>
        <pt x="1571" y="1380" on="0"/>
        <pt x="1571" y="1341" on="1"/>
        <pt x="1571" y="92" on="1"/>
        <pt x="1571" y="53" on="0"/>
        <pt x="1518" y="0" on="0"/>
        <pt x="1477" y="0" on="1"/>
        <pt x="1288" y="0" on="1"/>
        <pt x="1249" y="0" on="0"/>
        <pt x="1194" y="56" on="0"/>
        <pt x="1194" y="94" on="1"/>
        <pt x="1194" y="346" on="1"/>
        <pt x="483" y="346" on="1"/>
        <pt x="416" y="94" on="1"/>
        <pt x="391" y="0" on="0"/>
        <pt x="297" y="0" on="1"/>
        <pt x="100" y="0" on="1"/>
        <pt x="61" y="0" on="0"/>
        <pt x="27" y="43" on="0"/>
        <pt x="28" y="78" on="0"/>
      </contour>
      <contour>
        <pt x="557" y="629" on="1"/>
        <pt x="1194" y="629" on="1"/>
        <pt x="1194" y="1151" on="1"/>
        <pt x="909" y="1151" on="1"/>
        <pt x="698" y="1151" on="0"/>
        <pt x="645" y="950" on="1"/>
      </contour>
      <contour>
        <pt x="594" y="1692" on="1"/>
        <pt x="594" y="1731" on="1"/>
        <pt x="594" y="1846" on="0"/>
        <pt x="709" y="1845" on="1"/>
        <pt x="805" y="1845" on="1"/>
        <pt x="920" y="1845" on="0"/>
        <pt x="920" y="1731" on="1"/>
        <pt x="920" y="1692" on="1"/>
        <pt x="920" y="1577" on="0"/>
        <pt x="805" y="1577" on="1"/>
        <pt x="709" y="1577" on="1"/>
        <pt x="594" y="1577" on="0"/>
      </contour>
      <contour>
        <pt x="1096" y="1692" on="1"/>
        <pt x="1096" y="1731" on="1"/>
        <pt x="1096" y="1846" on="0"/>
        <pt x="1210" y="1845" on="1"/>
        <pt x="1307" y="1845" on="1"/>
        <pt x="1422" y="1845" on="0"/>
        <pt x="1421" y="1731" on="1"/>
        <pt x="1421" y="1692" on="1"/>
        <pt x="1421" y="1577" on="0"/>
        <pt x="1307" y="1577" on="1"/>
        <pt x="1210" y="1577" on="1"/>
        <pt x="1096" y="1577" on="0"/>
      </contour>
    </TTGlyph>
    <TTGlyph name="Agrave" xMin="21" yMin="0" xMax="1565" yMax="1964">
      <contour>
        <pt x="25" y="92" on="1"/>
        <pt x="276" y="1044" on="1"/>
        <pt x="380" y="1433" on="0"/>
        <pt x="940" y="1434" on="1"/>
        <pt x="1479" y="1434" on="1"/>
        <pt x="1516" y="1434" on="0"/>
        <pt x="1565" y="1380" on="0"/>
        <pt x="1565" y="1341" on="1"/>
        <pt x="1565" y="92" on="1"/>
        <pt x="1565" y="53" on="0"/>
        <pt x="1511" y="0" on="0"/>
        <pt x="1470" y="0" on="1"/>
        <pt x="1282" y="0" on="1"/>
        <pt x="1243" y="0" on="0"/>
        <pt x="1188" y="56" on="0"/>
        <pt x="1188" y="94" on="1"/>
        <pt x="1188" y="346" on="1"/>
        <pt x="477" y="346" on="1"/>
        <pt x="410" y="94" on="1"/>
        <pt x="385" y="0" on="0"/>
        <pt x="291" y="0" on="1"/>
        <pt x="94" y="0" on="1"/>
        <pt x="55" y="0" on="0"/>
        <pt x="21" y="43" on="0"/>
        <pt x="22" y="78" on="0"/>
      </contour>
      <contour>
        <pt x="551" y="629" on="1"/>
        <pt x="1188" y="629" on="1"/>
        <pt x="1188" y="1151" on="1"/>
        <pt x="903" y="1151" on="1"/>
        <pt x="692" y="1151" on="0"/>
        <pt x="639" y="950" on="1"/>
      </contour>
      <contour>
        <pt x="817" y="1964" on="1"/>
        <pt x="907" y="1964" on="1"/>
        <pt x="999" y="1964" on="0"/>
        <pt x="1038" y="1849" on="1"/>
        <pt x="1087" y="1661" on="1"/>
        <pt x="1095" y="1632" on="0"/>
        <pt x="1096" y="1611" on="1"/>
        <pt x="1096" y="1546" on="0"/>
        <pt x="1022" y="1546" on="1"/>
        <pt x="975" y="1546" on="1"/>
        <pt x="907" y="1546" on="0"/>
        <pt x="852" y="1640" on="1"/>
        <pt x="743" y="1829" on="1"/>
        <pt x="723" y="1861" on="0"/>
        <pt x="723" y="1884" on="1"/>
        <pt x="723" y="1964" on="0"/>
      </contour>
    </TTGlyph>
    <TTGlyph name="Aring" xMin="21" yMin="0" xMax="1565" yMax="2040">
      <contour>
        <pt x="25" y="92" on="1"/>
        <pt x="276" y="1044" on="1"/>
        <pt x="378" y="1433" on="0"/>
        <pt x="940" y="1434" on="1"/>
        <pt x="1479" y="1434" on="1"/>
        <pt x="1516" y="1434" on="0"/>
        <pt x="1565" y="1378" on="0"/>
        <pt x="1565" y="1341" on="1"/>
        <pt x="1565" y="92" on="1"/>
        <pt x="1565" y="53" on="0"/>
        <pt x="1509" y="0" on="0"/>
        <pt x="1470" y="0" on="1"/>
        <pt x="1282" y="0" on="1"/>
        <pt x="1241" y="0" on="0"/>
        <pt x="1188" y="53" on="0"/>
        <pt x="1188" y="94" on="1"/>
        <pt x="1188" y="346" on="1"/>
        <pt x="477" y="346" on="1"/>
        <pt x="410" y="94" on="1"/>
        <pt x="400" y="53" on="0"/>
        <pt x="330" y="0" on="0"/>
        <pt x="291" y="0" on="1"/>
        <pt x="94" y="0" on="1"/>
        <pt x="55" y="0" on="0"/>
        <pt x="21" y="45" on="0"/>
        <pt x="22" y="79" on="0"/>
      </contour>
      <contour>
        <pt x="551" y="629" on="1"/>
        <pt x="1188" y="629" on="1"/>
        <pt x="1188" y="1151" on="1"/>
        <pt x="903" y="1151" on="1"/>
        <pt x="807" y="1151" on="0"/>
        <pt x="664" y="1042" on="0"/>
        <pt x="639" y="950" on="1"/>
      </contour>
      <contour>
        <pt x="1178" y="1970" on="1"/>
        <pt x="1260" y="1900" on="0"/>
        <pt x="1260" y="1651" on="0"/>
        <pt x="1102" y="1507" on="0"/>
        <pt x="858" y="1507" on="0"/>
        <pt x="700" y="1651" on="0"/>
        <pt x="700" y="1901" on="0"/>
        <pt x="782" y="1970" on="1"/>
        <pt x="858" y="2040" on="0"/>
        <pt x="1102" y="2040" on="0"/>
      </contour>
      <contour>
        <pt x="872" y="1907" on="0"/>
        <pt x="872" y="1640" on="0"/>
        <pt x="1087" y="1640" on="0"/>
        <pt x="1087" y="1907" on="0"/>
      </contour>
    </TTGlyph>
    <TTGlyph name="Atilde" xMin="21" yMin="0" xMax="1565" yMax="1853">
      <contour>
        <pt x="25" y="92" on="1"/>
        <pt x="276" y="1044" on="1"/>
        <pt x="378" y="1433" on="0"/>
        <pt x="940" y="1434" on="1"/>
        <pt x="1479" y="1434" on="1"/>
        <pt x="1516" y="1434" on="0"/>
        <pt x="1565" y="1378" on="0"/>
        <pt x="1565" y="1341" on="1"/>
        <pt x="1565" y="92" on="1"/>
        <pt x="1565" y="53" on="0"/>
        <pt x="1509" y="0" on="0"/>
        <pt x="1470" y="0" on="1"/>
        <pt x="1282" y="0" on="1"/>
        <pt x="1241" y="0" on="0"/>
        <pt x="1188" y="53" on="0"/>
        <pt x="1188" y="94" on="1"/>
        <pt x="1188" y="346" on="1"/>
        <pt x="477" y="346" on="1"/>
        <pt x="410" y="94" on="1"/>
        <pt x="400" y="53" on="0"/>
        <pt x="330" y="0" on="0"/>
        <pt x="291" y="0" on="1"/>
        <pt x="94" y="0" on="1"/>
        <pt x="55" y="0" on="0"/>
        <pt x="21" y="45" on="0"/>
        <pt x="22" y="79" on="0"/>
      </contour>
      <contour>
        <pt x="551" y="629" on="1"/>
        <pt x="1188" y="629" on="1"/>
        <pt x="1188" y="1151" on="1"/>
        <pt x="903" y="1151" on="1"/>
        <pt x="807" y="1151" on="0"/>
        <pt x="664" y="1042" on="0"/>
        <pt x="639" y="950" on="1"/>
      </contour>
      <contour>
        <pt x="676" y="1587" on="1"/>
        <pt x="676" y="1718" on="0"/>
        <pt x="805" y="1853" on="0"/>
        <pt x="950" y="1853" on="0"/>
        <pt x="1102" y="1772" on="0"/>
        <pt x="1174" y="1772" on="0"/>
        <pt x="1219" y="1843" on="0"/>
        <pt x="1247" y="1843" on="1"/>
        <pt x="1329" y="1843" on="1"/>
        <pt x="1360" y="1843" on="0"/>
        <pt x="1360" y="1812" on="1"/>
        <pt x="1360" y="1681" on="0"/>
        <pt x="1233" y="1546" on="0"/>
        <pt x="1086" y="1546" on="0"/>
        <pt x="938" y="1628" on="0"/>
        <pt x="864" y="1628" on="0"/>
        <pt x="817" y="1556" on="0"/>
        <pt x="788" y="1556" on="1"/>
        <pt x="707" y="1556" on="1"/>
        <pt x="676" y="1556" on="0"/>
      </contour>
    </TTGlyph>
    <TTGlyph name="B" xMin="143" yMin="0" xMax="1628" yMax="1434">
      <contour>
        <pt x="143" y="1339" on="1"/>
        <pt x="143" y="1378" on="0"/>
        <pt x="199" y="1434" on="0"/>
        <pt x="238" y="1434" on="1"/>
        <pt x="1051" y="1434" on="1"/>
        <pt x="1350" y="1434" on="0"/>
        <pt x="1492" y="1262" on="1"/>
        <pt x="1571" y="1167" on="0"/>
        <pt x="1571" y="872" on="0"/>
        <pt x="1436" y="762" on="1"/>
        <pt x="1628" y="659" on="0"/>
        <pt x="1628" y="225" on="0"/>
        <pt x="1321" y="0" on="0"/>
        <pt x="1098" y="0" on="1"/>
        <pt x="238" y="0" on="1"/>
        <pt x="199" y="0" on="0"/>
        <pt x="143" y="55" on="0"/>
        <pt x="143" y="94" on="1"/>
      </contour>
      <contour>
        <pt x="520" y="270" on="1"/>
        <pt x="1092" y="270" on="1"/>
        <pt x="1169" y="270" on="0"/>
        <pt x="1251" y="362" on="0"/>
        <pt x="1251" y="522" on="0"/>
        <pt x="1169" y="614" on="0"/>
        <pt x="1092" y="614" on="1"/>
        <pt x="520" y="614" on="1"/>
      </contour>
      <contour>
        <pt x="520" y="877" on="1"/>
        <pt x="1055" y="877" on="1"/>
        <pt x="1118" y="877" on="0"/>
        <pt x="1194" y="952" on="0"/>
        <pt x="1194" y="1087" on="0"/>
        <pt x="1118" y="1163" on="0"/>
        <pt x="1055" y="1163" on="1"/>
        <pt x="520" y="1163" on="1"/>
      </contour>
    </TTGlyph>
    <TTGlyph name="C" xMin="61" yMin="-8" xMax="1622" yMax="1442">
      <contour>
        <pt x="61" y="346" on="0"/>
        <pt x="61" y="1087" on="0"/>
        <pt x="432" y="1442" on="0"/>
        <pt x="803" y="1442" on="1"/>
        <pt x="1026" y="1442" on="1"/>
        <pt x="1253" y="1442" on="0"/>
        <pt x="1602" y="1206" on="0"/>
        <pt x="1602" y="1001" on="1"/>
        <pt x="1602" y="942" on="0"/>
        <pt x="1532" y="891" on="0"/>
        <pt x="1499" y="891" on="1"/>
        <pt x="1380" y="891" on="1"/>
        <pt x="1288" y="891" on="0"/>
        <pt x="1237" y="1001" on="1"/>
        <pt x="1163" y="1159" on="0"/>
        <pt x="991" y="1159" on="1"/>
        <pt x="813" y="1159" on="1"/>
        <pt x="594" y="1159" on="0"/>
        <pt x="438" y="971" on="0"/>
        <pt x="438" y="463" on="0"/>
        <pt x="594" y="274" on="0"/>
        <pt x="813" y="274" on="1"/>
        <pt x="1012" y="274" on="1"/>
        <pt x="1184" y="274" on="0"/>
        <pt x="1257" y="432" on="1"/>
        <pt x="1308" y="543" on="0"/>
        <pt x="1401" y="543" on="1"/>
        <pt x="1520" y="543" on="1"/>
        <pt x="1567" y="543" on="0"/>
        <pt x="1622" y="473" on="0"/>
        <pt x="1622" y="432" on="1"/>
        <pt x="1622" y="227" on="0"/>
        <pt x="1274" y="-8" on="0"/>
        <pt x="1047" y="-8" on="1"/>
        <pt x="803" y="-8" on="1"/>
        <pt x="432" y="-8" on="0"/>
      </contour>
    </TTGlyph>
    <TTGlyph name="Ccaron" xMin="61" yMin="-8" xMax="1622" yMax="1839">
      <contour>
        <pt x="61" y="346" on="0"/>
        <pt x="61" y="1087" on="0"/>
        <pt x="432" y="1442" on="0"/>
        <pt x="803" y="1442" on="1"/>
        <pt x="1026" y="1442" on="1"/>
        <pt x="1253" y="1442" on="0"/>
        <pt x="1602" y="1206" on="0"/>
        <pt x="1602" y="1001" on="1"/>
        <pt x="1602" y="942" on="0"/>
        <pt x="1532" y="891" on="0"/>
        <pt x="1499" y="891" on="1"/>
        <pt x="1380" y="891" on="1"/>
        <pt x="1288" y="891" on="0"/>
        <pt x="1237" y="1001" on="1"/>
        <pt x="1163" y="1159" on="0"/>
        <pt x="991" y="1159" on="1"/>
        <pt x="813" y="1159" on="1"/>
        <pt x="594" y="1159" on="0"/>
        <pt x="438" y="971" on="0"/>
        <pt x="438" y="463" on="0"/>
        <pt x="594" y="274" on="0"/>
        <pt x="813" y="274" on="1"/>
        <pt x="1012" y="274" on="1"/>
        <pt x="1184" y="274" on="0"/>
        <pt x="1257" y="432" on="1"/>
        <pt x="1308" y="543" on="0"/>
        <pt x="1401" y="543" on="1"/>
        <pt x="1520" y="543" on="1"/>
        <pt x="1567" y="543" on="0"/>
        <pt x="1622" y="473" on="0"/>
        <pt x="1622" y="432" on="1"/>
        <pt x="1622" y="227" on="0"/>
        <pt x="1274" y="-8" on="0"/>
        <pt x="1047" y="-8" on="1"/>
        <pt x="803" y="-8" on="1"/>
        <pt x="432" y="-8" on="0"/>
      </contour>
      <contour>
        <pt x="532" y="1839" on="1"/>
        <pt x="678" y="1839" on="1"/>
        <pt x="735" y="1839" on="0"/>
        <pt x="823" y="1755" on="1"/>
        <pt x="856" y="1724" on="1"/>
        <pt x="891" y="1755" on="1"/>
        <pt x="979" y="1839" on="0"/>
        <pt x="1036" y="1839" on="1"/>
        <pt x="1182" y="1839" on="1"/>
        <pt x="1219" y="1839" on="0"/>
        <pt x="1235" y="1808" on="1"/>
        <pt x="1241" y="1797" on="0"/>
        <pt x="1241" y="1768" on="0"/>
        <pt x="1223" y="1751" on="1"/>
        <pt x="1065" y="1608" on="1"/>
        <pt x="973" y="1520" on="0"/>
        <pt x="918" y="1520" on="1"/>
        <pt x="795" y="1520" on="1"/>
        <pt x="740" y="1520" on="0"/>
        <pt x="647" y="1608" on="1"/>
        <pt x="492" y="1751" on="1"/>
        <pt x="463" y="1778" on="0"/>
        <pt x="495" y="1839" on="0"/>
      </contour>
    </TTGlyph>
    <TTGlyph name="Ccedilla" xMin="61" yMin="-487" xMax="1622" yMax="1442">
      <contour>
        <pt x="385" y="19" on="0"/>
        <pt x="61" y="373" on="0"/>
        <pt x="61" y="730" on="1"/>
        <pt x="61" y="1442" on="0"/>
        <pt x="803" y="1442" on="1"/>
        <pt x="1026" y="1442" on="1"/>
        <pt x="1253" y="1442" on="0"/>
        <pt x="1602" y="1206" on="0"/>
        <pt x="1602" y="1001" on="1"/>
        <pt x="1602" y="942" on="0"/>
        <pt x="1532" y="891" on="0"/>
        <pt x="1499" y="891" on="1"/>
        <pt x="1380" y="891" on="1"/>
        <pt x="1288" y="891" on="0"/>
        <pt x="1237" y="1001" on="1"/>
        <pt x="1163" y="1159" on="0"/>
        <pt x="991" y="1159" on="1"/>
        <pt x="813" y="1159" on="1"/>
        <pt x="594" y="1159" on="0"/>
        <pt x="438" y="971" on="0"/>
        <pt x="438" y="463" on="0"/>
        <pt x="594" y="274" on="0"/>
        <pt x="813" y="274" on="1"/>
        <pt x="1012" y="274" on="1"/>
        <pt x="1184" y="274" on="0"/>
        <pt x="1257" y="432" on="1"/>
        <pt x="1308" y="543" on="0"/>
        <pt x="1401" y="543" on="1"/>
        <pt x="1520" y="543" on="1"/>
        <pt x="1567" y="543" on="0"/>
        <pt x="1622" y="473" on="0"/>
        <pt x="1622" y="432" on="1"/>
        <pt x="1622" y="227" on="0"/>
        <pt x="1274" y="-8" on="0"/>
        <pt x="1047" y="-8" on="1"/>
        <pt x="922" y="-8" on="1"/>
        <pt x="922" y="-80" on="1"/>
        <pt x="1145" y="-98" on="0"/>
        <pt x="1145" y="-270" on="1"/>
        <pt x="1145" y="-487" on="0"/>
        <pt x="819" y="-487" on="1"/>
        <pt x="735" y="-487" on="1"/>
        <pt x="694" y="-487" on="0"/>
        <pt x="694" y="-446" on="1"/>
        <pt x="694" y="-362" on="1"/>
        <pt x="694" y="-321" on="0"/>
        <pt x="735" y="-322" on="1"/>
        <pt x="819" y="-322" on="1"/>
        <pt x="952" y="-322" on="0"/>
        <pt x="952" y="-217" on="0"/>
        <pt x="817" y="-217" on="1"/>
        <pt x="758" y="-217" on="1"/>
        <pt x="717" y="-217" on="0"/>
        <pt x="717" y="-176" on="1"/>
        <pt x="717" y="-4" on="1"/>
      </contour>
    </TTGlyph>
    <TTGlyph name="D" xMin="143" yMin="0" xMax="1626" yMax="1434">
      <contour>
        <pt x="143" y="92" on="1"/>
        <pt x="143" y="1337" on="1"/>
        <pt x="143" y="1378" on="0"/>
        <pt x="199" y="1434" on="0"/>
        <pt x="238" y="1434" on="1"/>
        <pt x="797" y="1434" on="1"/>
        <pt x="1231" y="1434" on="0"/>
        <pt x="1626" y="1087" on="0"/>
        <pt x="1626" y="346" on="0"/>
        <pt x="1231" y="0" on="0"/>
        <pt x="797" y="0" on="1"/>
        <pt x="238" y="0" on="1"/>
        <pt x="199" y="0" on="0"/>
        <pt x="143" y="53" on="0"/>
      </contour>
      <contour>
        <pt x="520" y="283" on="1"/>
        <pt x="786" y="283" on="1"/>
        <pt x="1055" y="283" on="0"/>
        <pt x="1249" y="479" on="0"/>
        <pt x="1249" y="954" on="0"/>
        <pt x="1055" y="1151" on="0"/>
        <pt x="786" y="1151" on="1"/>
        <pt x="520" y="1151" on="1"/>
      </contour>
    </TTGlyph>
    <TTGlyph name="Dcaron" xMin="143" yMin="0" xMax="1626" yMax="1860">
      <contour>
        <pt x="143" y="92" on="1"/>
        <pt x="143" y="1337" on="1"/>
        <pt x="143" y="1378" on="0"/>
        <pt x="199" y="1434" on="0"/>
        <pt x="238" y="1434" on="1"/>
        <pt x="797" y="1434" on="1"/>
        <pt x="1231" y="1434" on="0"/>
        <pt x="1626" y="1087" on="0"/>
        <pt x="1626" y="346" on="0"/>
        <pt x="1231" y="0" on="0"/>
        <pt x="797" y="0" on="1"/>
        <pt x="238" y="0" on="1"/>
        <pt x="199" y="0" on="0"/>
        <pt x="143" y="53" on="0"/>
      </contour>
      <contour>
        <pt x="465" y="1829" on="1"/>
        <pt x="481" y="1860" on="0"/>
        <pt x="518" y="1860" on="1"/>
        <pt x="664" y="1860" on="1"/>
        <pt x="721" y="1860" on="0"/>
        <pt x="809" y="1776" on="1"/>
        <pt x="842" y="1745" on="1"/>
        <pt x="877" y="1776" on="1"/>
        <pt x="965" y="1860" on="0"/>
        <pt x="1022" y="1860" on="1"/>
        <pt x="1167" y="1860" on="1"/>
        <pt x="1204" y="1860" on="0"/>
        <pt x="1237" y="1798" on="0"/>
        <pt x="1208" y="1772" on="1"/>
        <pt x="1051" y="1628" on="1"/>
        <pt x="958" y="1540" on="0"/>
        <pt x="903" y="1540" on="1"/>
        <pt x="780" y="1540" on="1"/>
        <pt x="725" y="1540" on="0"/>
        <pt x="633" y="1628" on="1"/>
        <pt x="477" y="1772" on="1"/>
        <pt x="459" y="1790" on="0"/>
        <pt x="459" y="1819" on="0"/>
      </contour>
      <contour>
        <pt x="520" y="283" on="1"/>
        <pt x="786" y="283" on="1"/>
        <pt x="1055" y="283" on="0"/>
        <pt x="1249" y="479" on="0"/>
        <pt x="1249" y="954" on="0"/>
        <pt x="1055" y="1151" on="0"/>
        <pt x="786" y="1151" on="1"/>
        <pt x="520" y="1151" on="1"/>
      </contour>
    </TTGlyph>
    <TTGlyph name="E" xMin="143" yMin="0" xMax="1485" yMax="1434">
      <contour>
        <pt x="143" y="96" on="1"/>
        <pt x="143" y="1341" on="1"/>
        <pt x="143" y="1380" on="0"/>
        <pt x="199" y="1434" on="0"/>
        <pt x="238" y="1434" on="1"/>
        <pt x="1391" y="1434" on="1"/>
        <pt x="1430" y="1434" on="0"/>
        <pt x="1485" y="1378" on="0"/>
        <pt x="1485" y="1339" on="1"/>
        <pt x="1485" y="1245" on="1"/>
        <pt x="1485" y="1206" on="0"/>
        <pt x="1430" y="1151" on="0"/>
        <pt x="1391" y="1151" on="1"/>
        <pt x="520" y="1151" on="1"/>
        <pt x="520" y="860" on="1"/>
        <pt x="1270" y="860" on="1"/>
        <pt x="1309" y="860" on="0"/>
        <pt x="1364" y="805" on="0"/>
        <pt x="1364" y="766" on="1"/>
        <pt x="1364" y="672" on="1"/>
        <pt x="1364" y="633" on="0"/>
        <pt x="1309" y="578" on="0"/>
        <pt x="1270" y="578" on="1"/>
        <pt x="520" y="578" on="1"/>
        <pt x="520" y="283" on="1"/>
        <pt x="1389" y="283" on="1"/>
        <pt x="1427" y="283" on="0"/>
        <pt x="1481" y="229" on="0"/>
        <pt x="1481" y="190" on="1"/>
        <pt x="1481" y="94" on="1"/>
        <pt x="1481" y="55" on="0"/>
        <pt x="1425" y="0" on="0"/>
        <pt x="1386" y="0" on="1"/>
        <pt x="238" y="0" on="1"/>
        <pt x="199" y="0" on="0"/>
        <pt x="143" y="55" on="0"/>
      </contour>
    </TTGlyph>
    <TTGlyph name="Eacute" xMin="143" yMin="0" xMax="1485" yMax="1964">
      <contour>
        <pt x="143" y="96" on="1"/>
        <pt x="143" y="1341" on="1"/>
        <pt x="143" y="1378" on="0"/>
        <pt x="199" y="1434" on="0"/>
        <pt x="238" y="1434" on="1"/>
        <pt x="1391" y="1434" on="1"/>
        <pt x="1430" y="1434" on="0"/>
        <pt x="1485" y="1378" on="0"/>
        <pt x="1485" y="1339" on="1"/>
        <pt x="1485" y="1245" on="1"/>
        <pt x="1485" y="1206" on="0"/>
        <pt x="1430" y="1151" on="0"/>
        <pt x="1391" y="1151" on="1"/>
        <pt x="520" y="1151" on="1"/>
        <pt x="520" y="860" on="1"/>
        <pt x="1270" y="860" on="1"/>
        <pt x="1307" y="860" on="0"/>
        <pt x="1364" y="803" on="0"/>
        <pt x="1364" y="766" on="1"/>
        <pt x="1364" y="672" on="1"/>
        <pt x="1364" y="635" on="0"/>
        <pt x="1307" y="578" on="0"/>
        <pt x="1270" y="578" on="1"/>
        <pt x="520" y="578" on="1"/>
        <pt x="520" y="283" on="1"/>
        <pt x="1389" y="283" on="1"/>
        <pt x="1427" y="283" on="0"/>
        <pt x="1481" y="229" on="0"/>
        <pt x="1481" y="190" on="1"/>
        <pt x="1481" y="94" on="1"/>
        <pt x="1481" y="55" on="0"/>
        <pt x="1425" y="0" on="0"/>
        <pt x="1386" y="0" on="1"/>
        <pt x="238" y="0" on="1"/>
        <pt x="199" y="0" on="0"/>
        <pt x="143" y="55" on="0"/>
      </contour>
      <contour>
        <pt x="731" y="1661" on="1"/>
        <pt x="780" y="1849" on="1"/>
        <pt x="819" y="1964" on="0"/>
        <pt x="911" y="1964" on="1"/>
        <pt x="1001" y="1964" on="1"/>
        <pt x="1067" y="1964" on="0"/>
        <pt x="1087" y="1921" on="1"/>
        <pt x="1096" y="1907" on="0"/>
        <pt x="1096" y="1860" on="0"/>
        <pt x="1075" y="1829" on="1"/>
        <pt x="967" y="1640" on="1"/>
        <pt x="911" y="1546" on="0"/>
        <pt x="844" y="1546" on="1"/>
        <pt x="797" y="1546" on="1"/>
        <pt x="723" y="1546" on="0"/>
        <pt x="723" y="1612" on="1"/>
        <pt x="723" y="1632" on="0"/>
      </contour>
    </TTGlyph>
    <TTGlyph name="Ecaron" xMin="143" yMin="0" xMax="1485" yMax="1839">
      <contour>
        <pt x="143" y="96" on="1"/>
        <pt x="143" y="1341" on="1"/>
        <pt x="143" y="1380" on="0"/>
        <pt x="199" y="1434" on="0"/>
        <pt x="238" y="1434" on="1"/>
        <pt x="1391" y="1434" on="1"/>
        <pt x="1430" y="1434" on="0"/>
        <pt x="1485" y="1378" on="0"/>
        <pt x="1485" y="1339" on="1"/>
        <pt x="1485" y="1245" on="1"/>
        <pt x="1485" y="1206" on="0"/>
        <pt x="1430" y="1151" on="0"/>
        <pt x="1391" y="1151" on="1"/>
        <pt x="520" y="1151" on="1"/>
        <pt x="520" y="860" on="1"/>
        <pt x="1270" y="860" on="1"/>
        <pt x="1309" y="860" on="0"/>
        <pt x="1364" y="805" on="0"/>
        <pt x="1364" y="766" on="1"/>
        <pt x="1364" y="672" on="1"/>
        <pt x="1364" y="633" on="0"/>
        <pt x="1309" y="578" on="0"/>
        <pt x="1270" y="578" on="1"/>
        <pt x="520" y="578" on="1"/>
        <pt x="520" y="283" on="1"/>
        <pt x="1389" y="283" on="1"/>
        <pt x="1427" y="283" on="0"/>
        <pt x="1481" y="229" on="0"/>
        <pt x="1481" y="190" on="1"/>
        <pt x="1481" y="94" on="1"/>
        <pt x="1481" y="55" on="0"/>
        <pt x="1425" y="0" on="0"/>
        <pt x="1386" y="0" on="1"/>
        <pt x="238" y="0" on="1"/>
        <pt x="199" y="0" on="0"/>
        <pt x="143" y="55" on="0"/>
      </contour>
      <contour>
        <pt x="426" y="1808" on="1"/>
        <pt x="442" y="1839" on="0"/>
        <pt x="479" y="1839" on="1"/>
        <pt x="625" y="1839" on="1"/>
        <pt x="682" y="1839" on="0"/>
        <pt x="770" y="1755" on="1"/>
        <pt x="803" y="1724" on="1"/>
        <pt x="838" y="1755" on="1"/>
        <pt x="926" y="1839" on="0"/>
        <pt x="983" y="1839" on="1"/>
        <pt x="1128" y="1839" on="1"/>
        <pt x="1165" y="1839" on="0"/>
        <pt x="1182" y="1808" on="1"/>
        <pt x="1188" y="1796" on="0"/>
        <pt x="1188" y="1767" on="0"/>
        <pt x="1169" y="1751" on="1"/>
        <pt x="1012" y="1608" on="1"/>
        <pt x="920" y="1520" on="0"/>
        <pt x="864" y="1520" on="1"/>
        <pt x="741" y="1520" on="1"/>
        <pt x="686" y="1520" on="0"/>
        <pt x="594" y="1608" on="1"/>
        <pt x="438" y="1751" on="1"/>
        <pt x="420" y="1767" on="0"/>
        <pt x="420" y="1796" on="0"/>
      </contour>
    </TTGlyph>
    <TTGlyph name="Ecircumflex" xMin="143" yMin="0" xMax="1485" yMax="1864">
      <contour>
        <pt x="143" y="96" on="1"/>
        <pt x="143" y="1341" on="1"/>
        <pt x="143" y="1380" on="0"/>
        <pt x="199" y="1434" on="0"/>
        <pt x="238" y="1434" on="1"/>
        <pt x="1391" y="1434" on="1"/>
        <pt x="1430" y="1434" on="0"/>
        <pt x="1485" y="1378" on="0"/>
        <pt x="1485" y="1339" on="1"/>
        <pt x="1485" y="1245" on="1"/>
        <pt x="1485" y="1206" on="0"/>
        <pt x="1430" y="1151" on="0"/>
        <pt x="1391" y="1151" on="1"/>
        <pt x="520" y="1151" on="1"/>
        <pt x="520" y="860" on="1"/>
        <pt x="1270" y="860" on="1"/>
        <pt x="1309" y="860" on="0"/>
        <pt x="1364" y="805" on="0"/>
        <pt x="1364" y="766" on="1"/>
        <pt x="1364" y="672" on="1"/>
        <pt x="1364" y="633" on="0"/>
        <pt x="1309" y="578" on="0"/>
        <pt x="1270" y="578" on="1"/>
        <pt x="520" y="578" on="1"/>
        <pt x="520" y="283" on="1"/>
        <pt x="1389" y="283" on="1"/>
        <pt x="1427" y="283" on="0"/>
        <pt x="1481" y="229" on="0"/>
        <pt x="1481" y="190" on="1"/>
        <pt x="1481" y="94" on="1"/>
        <pt x="1481" y="55" on="0"/>
        <pt x="1425" y="0" on="0"/>
        <pt x="1386" y="0" on="1"/>
        <pt x="238" y="0" on="1"/>
        <pt x="199" y="0" on="0"/>
        <pt x="143" y="55" on="0"/>
      </contour>
      <contour>
        <pt x="426" y="1575" on="1"/>
        <pt x="420" y="1585" on="0"/>
        <pt x="420" y="1616" on="0"/>
        <pt x="438" y="1632" on="1"/>
        <pt x="594" y="1776" on="1"/>
        <pt x="686" y="1864" on="0"/>
        <pt x="741" y="1864" on="1"/>
        <pt x="864" y="1864" on="1"/>
        <pt x="920" y="1864" on="0"/>
        <pt x="1012" y="1776" on="1"/>
        <pt x="1169" y="1632" on="1"/>
        <pt x="1188" y="1616" on="0"/>
        <pt x="1188" y="1585" on="0"/>
        <pt x="1182" y="1575" on="1"/>
        <pt x="1165" y="1544" on="0"/>
        <pt x="1128" y="1544" on="1"/>
        <pt x="983" y="1544" on="1"/>
        <pt x="926" y="1544" on="0"/>
        <pt x="838" y="1628" on="1"/>
        <pt x="803" y="1659" on="1"/>
        <pt x="770" y="1628" on="1"/>
        <pt x="682" y="1544" on="0"/>
        <pt x="625" y="1544" on="1"/>
        <pt x="479" y="1544" on="1"/>
        <pt x="442" y="1544" on="0"/>
      </contour>
    </TTGlyph>
    <TTGlyph name="Edieresis" xMin="143" yMin="0" xMax="1485" yMax="1833">
      <contour>
        <pt x="143" y="96" on="1"/>
        <pt x="143" y="1341" on="1"/>
        <pt x="143" y="1380" on="0"/>
        <pt x="199" y="1434" on="0"/>
        <pt x="238" y="1434" on="1"/>
        <pt x="1391" y="1434" on="1"/>
        <pt x="1430" y="1434" on="0"/>
        <pt x="1485" y="1378" on="0"/>
        <pt x="1485" y="1339" on="1"/>
        <pt x="1485" y="1245" on="1"/>
        <pt x="1485" y="1206" on="0"/>
        <pt x="1430" y="1151" on="0"/>
        <pt x="1391" y="1151" on="1"/>
        <pt x="520" y="1151" on="1"/>
        <pt x="520" y="860" on="1"/>
        <pt x="1270" y="860" on="1"/>
        <pt x="1309" y="860" on="0"/>
        <pt x="1364" y="805" on="0"/>
        <pt x="1364" y="766" on="1"/>
        <pt x="1364" y="672" on="1"/>
        <pt x="1364" y="633" on="0"/>
        <pt x="1309" y="578" on="0"/>
        <pt x="1270" y="578" on="1"/>
        <pt x="520" y="578" on="1"/>
        <pt x="520" y="283" on="1"/>
        <pt x="1389" y="283" on="1"/>
        <pt x="1427" y="283" on="0"/>
        <pt x="1481" y="229" on="0"/>
        <pt x="1481" y="190" on="1"/>
        <pt x="1481" y="94" on="1"/>
        <pt x="1481" y="55" on="0"/>
        <pt x="1425" y="0" on="0"/>
        <pt x="1386" y="0" on="1"/>
        <pt x="238" y="0" on="1"/>
        <pt x="199" y="0" on="0"/>
        <pt x="143" y="55" on="0"/>
      </contour>
      <contour>
        <pt x="410" y="1679" on="1"/>
        <pt x="410" y="1718" on="1"/>
        <pt x="410" y="1772" on="0"/>
        <pt x="471" y="1833" on="0"/>
        <pt x="524" y="1833" on="1"/>
        <pt x="621" y="1833" on="1"/>
        <pt x="674" y="1833" on="0"/>
        <pt x="735" y="1772" on="0"/>
        <pt x="735" y="1718" on="1"/>
        <pt x="735" y="1679" on="1"/>
        <pt x="735" y="1626" on="0"/>
        <pt x="674" y="1565" on="0"/>
        <pt x="621" y="1565" on="1"/>
        <pt x="524" y="1565" on="1"/>
        <pt x="471" y="1565" on="0"/>
        <pt x="410" y="1626" on="0"/>
      </contour>
      <contour>
        <pt x="911" y="1679" on="1"/>
        <pt x="911" y="1718" on="1"/>
        <pt x="911" y="1772" on="0"/>
        <pt x="973" y="1833" on="0"/>
        <pt x="1026" y="1833" on="1"/>
        <pt x="1122" y="1833" on="1"/>
        <pt x="1176" y="1833" on="0"/>
        <pt x="1237" y="1772" on="0"/>
        <pt x="1237" y="1718" on="1"/>
        <pt x="1237" y="1679" on="1"/>
        <pt x="1237" y="1626" on="0"/>
        <pt x="1176" y="1565" on="0"/>
        <pt x="1122" y="1565" on="1"/>
        <pt x="1026" y="1565" on="1"/>
        <pt x="973" y="1565" on="0"/>
        <pt x="911" y="1626" on="0"/>
      </contour>
    </TTGlyph>
    <TTGlyph name="Egrave" xMin="143" yMin="0" xMax="1485" yMax="1964">
      <contour>
        <pt x="143" y="96" on="1"/>
        <pt x="143" y="1341" on="1"/>
        <pt x="143" y="1378" on="0"/>
        <pt x="199" y="1434" on="0"/>
        <pt x="238" y="1434" on="1"/>
        <pt x="1391" y="1434" on="1"/>
        <pt x="1430" y="1434" on="0"/>
        <pt x="1485" y="1378" on="0"/>
        <pt x="1485" y="1339" on="1"/>
        <pt x="1485" y="1245" on="1"/>
        <pt x="1485" y="1206" on="0"/>
        <pt x="1430" y="1151" on="0"/>
        <pt x="1391" y="1151" on="1"/>
        <pt x="520" y="1151" on="1"/>
        <pt x="520" y="860" on="1"/>
        <pt x="1270" y="860" on="1"/>
        <pt x="1307" y="860" on="0"/>
        <pt x="1364" y="803" on="0"/>
        <pt x="1364" y="766" on="1"/>
        <pt x="1364" y="672" on="1"/>
        <pt x="1364" y="635" on="0"/>
        <pt x="1307" y="578" on="0"/>
        <pt x="1270" y="578" on="1"/>
        <pt x="520" y="578" on="1"/>
        <pt x="520" y="283" on="1"/>
        <pt x="1389" y="283" on="1"/>
        <pt x="1427" y="283" on="0"/>
        <pt x="1481" y="229" on="0"/>
        <pt x="1481" y="190" on="1"/>
        <pt x="1481" y="94" on="1"/>
        <pt x="1481" y="55" on="0"/>
        <pt x="1425" y="0" on="0"/>
        <pt x="1386" y="0" on="1"/>
        <pt x="238" y="0" on="1"/>
        <pt x="199" y="0" on="0"/>
        <pt x="143" y="55" on="0"/>
      </contour>
      <contour>
        <pt x="573" y="1921" on="1"/>
        <pt x="594" y="1964" on="0"/>
        <pt x="659" y="1964" on="1"/>
        <pt x="750" y="1964" on="1"/>
        <pt x="842" y="1964" on="0"/>
        <pt x="881" y="1849" on="1"/>
        <pt x="930" y="1661" on="1"/>
        <pt x="938" y="1632" on="0"/>
        <pt x="938" y="1612" on="1"/>
        <pt x="938" y="1546" on="0"/>
        <pt x="864" y="1546" on="1"/>
        <pt x="817" y="1546" on="1"/>
        <pt x="750" y="1546" on="0"/>
        <pt x="694" y="1640" on="1"/>
        <pt x="586" y="1829" on="1"/>
        <pt x="565" y="1862" on="0"/>
        <pt x="565" y="1907" on="0"/>
      </contour>
    </TTGlyph>
    <TTGlyph name="Eth" xMin="0" yMin="0" xMax="1667" yMax="1434">
      <contour>
        <pt x="0" y="655" on="1"/>
        <pt x="0" y="758" on="1"/>
        <pt x="0" y="784" on="0"/>
        <pt x="35" y="819" on="0"/>
        <pt x="61" y="819" on="1"/>
        <pt x="184" y="819" on="1"/>
        <pt x="184" y="1337" on="1"/>
        <pt x="184" y="1378" on="0"/>
        <pt x="240" y="1434" on="0"/>
        <pt x="279" y="1434" on="1"/>
        <pt x="838" y="1434" on="1"/>
        <pt x="1272" y="1434" on="0"/>
        <pt x="1667" y="1087" on="0"/>
        <pt x="1667" y="346" on="0"/>
        <pt x="1272" y="0" on="0"/>
        <pt x="838" y="0" on="1"/>
        <pt x="279" y="0" on="1"/>
        <pt x="240" y="0" on="0"/>
        <pt x="184" y="53" on="0"/>
        <pt x="184" y="92" on="1"/>
        <pt x="184" y="594" on="1"/>
        <pt x="61" y="594" on="1"/>
        <pt x="35" y="594" on="0"/>
        <pt x="0" y="629" on="0"/>
      </contour>
      <contour>
        <pt x="561" y="283" on="1"/>
        <pt x="827" y="283" on="1"/>
        <pt x="1096" y="283" on="0"/>
        <pt x="1290" y="479" on="0"/>
        <pt x="1290" y="954" on="0"/>
        <pt x="1096" y="1151" on="0"/>
        <pt x="827" y="1151" on="1"/>
        <pt x="561" y="1151" on="1"/>
        <pt x="561" y="819" on="1"/>
        <pt x="737" y="819" on="1"/>
        <pt x="764" y="819" on="0"/>
        <pt x="799" y="784" on="0"/>
        <pt x="799" y="758" on="1"/>
        <pt x="799" y="655" on="1"/>
        <pt x="799" y="629" on="0"/>
        <pt x="764" y="594" on="0"/>
        <pt x="737" y="594" on="1"/>
        <pt x="561" y="594" on="1"/>
      </contour>
    </TTGlyph>
    <TTGlyph name="Euro" xMin="0" yMin="-8" xMax="1720" yMax="1442">
      <contour>
        <pt x="0" y="643" on="1"/>
        <pt x="0" y="690" on="1"/>
        <pt x="1126" y="690" on="1"/>
        <pt x="1126" y="643" on="1"/>
        <pt x="1126" y="616" on="0"/>
        <pt x="1092" y="582" on="0"/>
        <pt x="1065" y="582" on="1"/>
        <pt x="543" y="582" on="1"/>
        <pt x="551" y="412" on="0"/>
        <pt x="721" y="274" on="0"/>
        <pt x="911" y="274" on="1"/>
        <pt x="1110" y="274" on="1"/>
        <pt x="1288" y="274" on="0"/>
        <pt x="1356" y="412" on="1"/>
        <pt x="1409" y="522" on="0"/>
        <pt x="1499" y="522" on="1"/>
        <pt x="1618" y="522" on="1"/>
        <pt x="1666" y="522" on="0"/>
        <pt x="1720" y="453" on="0"/>
        <pt x="1720" y="412" on="1"/>
        <pt x="1720" y="283" on="0"/>
        <pt x="1546" y="86" on="0"/>
        <pt x="1288" y="-8" on="0"/>
        <pt x="1145" y="-8" on="1"/>
        <pt x="901" y="-8" on="1"/>
        <pt x="225" y="-8" on="0"/>
        <pt x="166" y="582" on="1"/>
        <pt x="61" y="582" on="1"/>
        <pt x="35" y="582" on="0"/>
        <pt x="0" y="616" on="0"/>
      </contour>
      <contour>
        <pt x="31" y="745" on="1"/>
        <pt x="31" y="793" on="1"/>
        <pt x="31" y="819" on="0"/>
        <pt x="66" y="854" on="0"/>
        <pt x="92" y="854" on="1"/>
        <pt x="166" y="854" on="1"/>
        <pt x="231" y="1442" on="0"/>
        <pt x="901" y="1442" on="1"/>
        <pt x="1124" y="1442" on="1"/>
        <pt x="1268" y="1442" on="0"/>
        <pt x="1526" y="1348" on="0"/>
        <pt x="1700" y="1151" on="0"/>
        <pt x="1700" y="1022" on="1"/>
        <pt x="1700" y="963" on="0"/>
        <pt x="1630" y="911" on="0"/>
        <pt x="1597" y="911" on="1"/>
        <pt x="1479" y="911" on="1"/>
        <pt x="1389" y="911" on="0"/>
        <pt x="1335" y="1022" on="1"/>
        <pt x="1268" y="1159" on="0"/>
        <pt x="1090" y="1159" on="1"/>
        <pt x="911" y="1159" on="1"/>
        <pt x="721" y="1159" on="0"/>
        <pt x="553" y="1022" on="0"/>
        <pt x="543" y="854" on="1"/>
        <pt x="1096" y="854" on="1"/>
        <pt x="1122" y="854" on="0"/>
        <pt x="1157" y="819" on="0"/>
        <pt x="1157" y="793" on="1"/>
        <pt x="1157" y="745" on="1"/>
      </contour>
    </TTGlyph>
    <TTGlyph name="F" xMin="143" yMin="0" xMax="1485" yMax="1434">
      <contour>
        <pt x="143" y="96" on="1"/>
        <pt x="143" y="1341" on="1"/>
        <pt x="143" y="1380" on="0"/>
        <pt x="199" y="1434" on="0"/>
        <pt x="238" y="1434" on="1"/>
        <pt x="1391" y="1434" on="1"/>
        <pt x="1430" y="1434" on="0"/>
        <pt x="1485" y="1378" on="0"/>
        <pt x="1485" y="1339" on="1"/>
        <pt x="1485" y="1245" on="1"/>
        <pt x="1485" y="1206" on="0"/>
        <pt x="1430" y="1151" on="0"/>
        <pt x="1391" y="1151" on="1"/>
        <pt x="520" y="1151" on="1"/>
        <pt x="520" y="799" on="1"/>
        <pt x="1229" y="799" on="1"/>
        <pt x="1268" y="799" on="0"/>
        <pt x="1323" y="743" on="0"/>
        <pt x="1323" y="705" on="1"/>
        <pt x="1323" y="610" on="1"/>
        <pt x="1323" y="571" on="0"/>
        <pt x="1268" y="516" on="0"/>
        <pt x="1229" y="516" on="1"/>
        <pt x="520" y="516" on="1"/>
        <pt x="520" y="96" on="1"/>
        <pt x="520" y="55" on="0"/>
        <pt x="465" y="0" on="0"/>
        <pt x="426" y="0" on="1"/>
        <pt x="238" y="0" on="1"/>
        <pt x="199" y="0" on="0"/>
        <pt x="143" y="55" on="0"/>
      </contour>
    </TTGlyph>
    <TTGlyph name="G" xMin="61" yMin="-8" xMax="1634" yMax="1442">
      <contour>
        <pt x="416" y="-8" on="0"/>
        <pt x="61" y="350" on="0"/>
        <pt x="61" y="1087" on="0"/>
        <pt x="432" y="1442" on="0"/>
        <pt x="803" y="1442" on="1"/>
        <pt x="1026" y="1442" on="1"/>
        <pt x="1247" y="1442" on="0"/>
        <pt x="1602" y="1231" on="0"/>
        <pt x="1602" y="1073" on="1"/>
        <pt x="1602" y="1014" on="0"/>
        <pt x="1532" y="963" on="0"/>
        <pt x="1499" y="963" on="1"/>
        <pt x="1380" y="963" on="1"/>
        <pt x="1294" y="963" on="0"/>
        <pt x="1192" y="1159" on="0"/>
        <pt x="991" y="1159" on="1"/>
        <pt x="813" y="1159" on="1"/>
        <pt x="594" y="1159" on="0"/>
        <pt x="438" y="971" on="0"/>
        <pt x="438" y="467" on="0"/>
        <pt x="578" y="274" on="0"/>
        <pt x="758" y="274" on="1"/>
        <pt x="963" y="274" on="1"/>
        <pt x="1124" y="274" on="0"/>
        <pt x="1262" y="397" on="0"/>
        <pt x="1264" y="512" on="1"/>
        <pt x="1038" y="512" on="1"/>
        <pt x="999" y="512" on="0"/>
        <pt x="944" y="567" on="0"/>
        <pt x="944" y="606" on="1"/>
        <pt x="944" y="684" on="1"/>
        <pt x="944" y="723" on="0"/>
        <pt x="999" y="778" on="0"/>
        <pt x="1038" y="778" on="1"/>
        <pt x="1540" y="778" on="1"/>
        <pt x="1579" y="778" on="0"/>
        <pt x="1634" y="723" on="0"/>
        <pt x="1634" y="684" on="1"/>
        <pt x="1634" y="573" on="1"/>
        <pt x="1634" y="293" on="0"/>
        <pt x="1298" y="-8" on="0"/>
        <pt x="973" y="-8" on="1"/>
        <pt x="748" y="-8" on="1"/>
      </contour>
    </TTGlyph>
    <TTGlyph name="H" xMin="143" yMin="0" xMax="1585" yMax="1434">
      <contour>
        <pt x="143" y="94" on="1"/>
        <pt x="143" y="1339" on="1"/>
        <pt x="143" y="1378" on="0"/>
        <pt x="199" y="1434" on="0"/>
        <pt x="240" y="1434" on="1"/>
        <pt x="426" y="1434" on="1"/>
        <pt x="465" y="1434" on="0"/>
        <pt x="520" y="1378" on="0"/>
        <pt x="520" y="1339" on="1"/>
        <pt x="520" y="889" on="1"/>
        <pt x="1208" y="889" on="1"/>
        <pt x="1208" y="1339" on="1"/>
        <pt x="1208" y="1378" on="0"/>
        <pt x="1264" y="1434" on="0"/>
        <pt x="1303" y="1434" on="1"/>
        <pt x="1489" y="1434" on="1"/>
        <pt x="1530" y="1434" on="0"/>
        <pt x="1585" y="1378" on="0"/>
        <pt x="1585" y="1339" on="1"/>
        <pt x="1585" y="94" on="1"/>
        <pt x="1585" y="55" on="0"/>
        <pt x="1528" y="0" on="0"/>
        <pt x="1489" y="0" on="1"/>
        <pt x="1303" y="0" on="1"/>
        <pt x="1264" y="0" on="0"/>
        <pt x="1208" y="53" on="0"/>
        <pt x="1208" y="92" on="1"/>
        <pt x="1208" y="606" on="1"/>
        <pt x="520" y="606" on="1"/>
        <pt x="520" y="92" on="1"/>
        <pt x="520" y="53" on="0"/>
        <pt x="465" y="0" on="0"/>
        <pt x="426" y="0" on="1"/>
        <pt x="240" y="0" on="1"/>
        <pt x="201" y="0" on="0"/>
        <pt x="143" y="55" on="0"/>
      </contour>
    </TTGlyph>
    <TTGlyph name="I" xMin="143" yMin="0" xMax="520" yMax="1434">
      <contour>
        <pt x="143" y="92" on="1"/>
        <pt x="143" y="1339" on="1"/>
        <pt x="143" y="1378" on="0"/>
        <pt x="199" y="1434" on="0"/>
        <pt x="238" y="1434" on="1"/>
        <pt x="424" y="1434" on="1"/>
        <pt x="465" y="1434" on="0"/>
        <pt x="520" y="1378" on="0"/>
        <pt x="520" y="1339" on="1"/>
        <pt x="520" y="94" on="1"/>
        <pt x="520" y="55" on="0"/>
        <pt x="463" y="0" on="0"/>
        <pt x="424" y="0" on="1"/>
        <pt x="238" y="0" on="1"/>
        <pt x="199" y="0" on="0"/>
        <pt x="143" y="53" on="0"/>
      </contour>
    </TTGlyph>
    <TTGlyph name="Iacute" xMin="143" yMin="0" xMax="625" yMax="1964">
      <contour>
        <pt x="143" y="92" on="1"/>
        <pt x="143" y="1339" on="1"/>
        <pt x="143" y="1378" on="0"/>
        <pt x="199" y="1434" on="0"/>
        <pt x="238" y="1434" on="1"/>
        <pt x="424" y="1434" on="1"/>
        <pt x="465" y="1434" on="0"/>
        <pt x="520" y="1378" on="0"/>
        <pt x="520" y="1339" on="1"/>
        <pt x="520" y="94" on="1"/>
        <pt x="520" y="57" on="0"/>
        <pt x="463" y="0" on="0"/>
        <pt x="424" y="0" on="1"/>
        <pt x="238" y="0" on="1"/>
        <pt x="199" y="0" on="0"/>
        <pt x="143" y="55" on="0"/>
      </contour>
      <contour>
        <pt x="260" y="1661" on="1"/>
        <pt x="309" y="1849" on="1"/>
        <pt x="348" y="1964" on="0"/>
        <pt x="440" y="1964" on="1"/>
        <pt x="530" y="1964" on="1"/>
        <pt x="596" y="1964" on="0"/>
        <pt x="616" y="1921" on="1"/>
        <pt x="625" y="1907" on="0"/>
        <pt x="625" y="1860" on="0"/>
        <pt x="604" y="1829" on="1"/>
        <pt x="496" y="1640" on="1"/>
        <pt x="440" y="1546" on="0"/>
        <pt x="373" y="1546" on="1"/>
        <pt x="326" y="1546" on="1"/>
        <pt x="252" y="1546" on="0"/>
        <pt x="252" y="1612" on="1"/>
        <pt x="252" y="1632" on="0"/>
      </contour>
    </TTGlyph>
    <TTGlyph name="Icircumflex" xMin="-41" yMin="0" xMax="727" yMax="1843">
      <contour>
        <pt x="-35" y="1554" on="1"/>
        <pt x="-41" y="1565" on="0"/>
        <pt x="-41" y="1595" on="0"/>
        <pt x="-23" y="1612" on="1"/>
        <pt x="133" y="1755" on="1"/>
        <pt x="225" y="1843" on="0"/>
        <pt x="281" y="1843" on="1"/>
        <pt x="403" y="1843" on="1"/>
        <pt x="458" y="1843" on="0"/>
        <pt x="551" y="1755" on="1"/>
        <pt x="709" y="1612" on="1"/>
        <pt x="727" y="1595" on="0"/>
        <pt x="727" y="1565" on="0"/>
        <pt x="721" y="1554" on="1"/>
        <pt x="705" y="1523" on="0"/>
        <pt x="668" y="1524" on="1"/>
        <pt x="522" y="1524" on="1"/>
        <pt x="465" y="1524" on="0"/>
        <pt x="377" y="1608" on="1"/>
        <pt x="342" y="1638" on="1"/>
        <pt x="309" y="1608" on="1"/>
        <pt x="221" y="1524" on="0"/>
        <pt x="164" y="1524" on="1"/>
        <pt x="18" y="1524" on="1"/>
        <pt x="-19" y="1523" on="0"/>
      </contour>
      <contour>
        <pt x="154" y="92" on="1"/>
        <pt x="154" y="1339" on="1"/>
        <pt x="154" y="1378" on="0"/>
        <pt x="209" y="1434" on="0"/>
        <pt x="248" y="1434" on="1"/>
        <pt x="434" y="1434" on="1"/>
        <pt x="475" y="1434" on="0"/>
        <pt x="530" y="1378" on="0"/>
        <pt x="530" y="1339" on="1"/>
        <pt x="530" y="94" on="1"/>
        <pt x="530" y="55" on="0"/>
        <pt x="473" y="0" on="0"/>
        <pt x="434" y="0" on="1"/>
        <pt x="248" y="0" on="1"/>
        <pt x="209" y="0" on="0"/>
        <pt x="154" y="53" on="0"/>
      </contour>
    </TTGlyph>
    <TTGlyph name="Idieresis" xMin="-61" yMin="0" xMax="766" yMax="1812">
      <contour>
        <pt x="-61" y="1659" on="1"/>
        <pt x="-61" y="1698" on="1"/>
        <pt x="-61" y="1751" on="0"/>
        <pt x="0" y="1812" on="0"/>
        <pt x="53" y="1812" on="1"/>
        <pt x="150" y="1812" on="1"/>
        <pt x="203" y="1812" on="0"/>
        <pt x="264" y="1751" on="0"/>
        <pt x="264" y="1698" on="1"/>
        <pt x="264" y="1659" on="1"/>
        <pt x="264" y="1606" on="0"/>
        <pt x="203" y="1544" on="0"/>
        <pt x="150" y="1544" on="1"/>
        <pt x="53" y="1544" on="1"/>
        <pt x="0" y="1544" on="0"/>
        <pt x="-61" y="1606" on="0"/>
      </contour>
      <contour>
        <pt x="164" y="92" on="1"/>
        <pt x="164" y="1339" on="1"/>
        <pt x="164" y="1378" on="0"/>
        <pt x="219" y="1434" on="0"/>
        <pt x="258" y="1434" on="1"/>
        <pt x="444" y="1434" on="1"/>
        <pt x="485" y="1434" on="0"/>
        <pt x="541" y="1378" on="0"/>
        <pt x="541" y="1339" on="1"/>
        <pt x="541" y="94" on="1"/>
        <pt x="541" y="55" on="0"/>
        <pt x="483" y="0" on="0"/>
        <pt x="444" y="0" on="1"/>
        <pt x="258" y="0" on="1"/>
        <pt x="219" y="0" on="0"/>
        <pt x="164" y="53" on="0"/>
      </contour>
      <contour>
        <pt x="440" y="1659" on="1"/>
        <pt x="440" y="1698" on="1"/>
        <pt x="440" y="1751" on="0"/>
        <pt x="502" y="1812" on="0"/>
        <pt x="555" y="1812" on="1"/>
        <pt x="651" y="1812" on="1"/>
        <pt x="705" y="1812" on="0"/>
        <pt x="766" y="1751" on="0"/>
        <pt x="766" y="1698" on="1"/>
        <pt x="766" y="1659" on="1"/>
        <pt x="766" y="1606" on="0"/>
        <pt x="705" y="1544" on="0"/>
        <pt x="651" y="1544" on="1"/>
        <pt x="555" y="1544" on="1"/>
        <pt x="502" y="1544" on="0"/>
        <pt x="440" y="1606" on="0"/>
      </contour>
    </TTGlyph>
    <TTGlyph name="Igrave" xMin="53" yMin="0" xMax="520" yMax="1964">
      <contour>
        <pt x="61" y="1921" on="1"/>
        <pt x="82" y="1964" on="0"/>
        <pt x="147" y="1964" on="1"/>
        <pt x="238" y="1964" on="1"/>
        <pt x="330" y="1964" on="0"/>
        <pt x="369" y="1849" on="1"/>
        <pt x="418" y="1661" on="1"/>
        <pt x="426" y="1632" on="0"/>
        <pt x="426" y="1612" on="1"/>
        <pt x="426" y="1546" on="0"/>
        <pt x="352" y="1546" on="1"/>
        <pt x="305" y="1546" on="1"/>
        <pt x="238" y="1546" on="0"/>
        <pt x="182" y="1640" on="1"/>
        <pt x="74" y="1829" on="1"/>
        <pt x="53" y="1862" on="0"/>
        <pt x="53" y="1907" on="0"/>
      </contour>
      <contour>
        <pt x="143" y="92" on="1"/>
        <pt x="143" y="1339" on="1"/>
        <pt x="143" y="1378" on="0"/>
        <pt x="199" y="1434" on="0"/>
        <pt x="238" y="1434" on="1"/>
        <pt x="424" y="1434" on="1"/>
        <pt x="465" y="1434" on="0"/>
        <pt x="520" y="1378" on="0"/>
        <pt x="520" y="1339" on="1"/>
        <pt x="520" y="94" on="1"/>
        <pt x="520" y="57" on="0"/>
        <pt x="463" y="0" on="0"/>
        <pt x="424" y="0" on="1"/>
        <pt x="238" y="0" on="1"/>
        <pt x="199" y="0" on="0"/>
        <pt x="143" y="55" on="0"/>
      </contour>
    </TTGlyph>
    <TTGlyph name="Itilde" xMin="-10" yMin="0" xMax="674" yMax="1853">
      <contour>
        <pt x="-10" y="1587" on="1"/>
        <pt x="-10" y="1718" on="0"/>
        <pt x="119" y="1853" on="0"/>
        <pt x="266" y="1853" on="0"/>
        <pt x="414" y="1772" on="0"/>
        <pt x="487" y="1772" on="0"/>
        <pt x="532" y="1843" on="0"/>
        <pt x="561" y="1843" on="1"/>
        <pt x="643" y="1843" on="1"/>
        <pt x="674" y="1843" on="0"/>
        <pt x="674" y="1812" on="1"/>
        <pt x="674" y="1681" on="0"/>
        <pt x="547" y="1546" on="0"/>
        <pt x="401" y="1546" on="0"/>
        <pt x="250" y="1628" on="0"/>
        <pt x="178" y="1628" on="0"/>
        <pt x="131" y="1556" on="0"/>
        <pt x="102" y="1556" on="1"/>
        <pt x="20" y="1556" on="1"/>
        <pt x="-10" y="1556" on="0"/>
      </contour>
      <contour>
        <pt x="143" y="92" on="1"/>
        <pt x="143" y="1339" on="1"/>
        <pt x="143" y="1378" on="0"/>
        <pt x="199" y="1434" on="0"/>
        <pt x="238" y="1434" on="1"/>
        <pt x="424" y="1434" on="1"/>
        <pt x="465" y="1434" on="0"/>
        <pt x="520" y="1378" on="0"/>
        <pt x="520" y="1339" on="1"/>
        <pt x="520" y="94" on="1"/>
        <pt x="520" y="55" on="0"/>
        <pt x="463" y="0" on="0"/>
        <pt x="424" y="0" on="1"/>
        <pt x="238" y="0" on="1"/>
        <pt x="199" y="0" on="0"/>
        <pt x="143" y="53" on="0"/>
      </contour>
    </TTGlyph>
    <TTGlyph name="J" xMin="0" yMin="0" xMax="1008" yMax="1434">
      <contour>
        <pt x="127" y="301" on="1"/>
        <pt x="295" y="283" on="1"/>
        <pt x="367" y="283" on="1"/>
        <pt x="506" y="283" on="0"/>
        <pt x="631" y="397" on="0"/>
        <pt x="631" y="532" on="1"/>
        <pt x="631" y="1339" on="1"/>
        <pt x="631" y="1378" on="0"/>
        <pt x="686" y="1434" on="0"/>
        <pt x="725" y="1434" on="1"/>
        <pt x="911" y="1434" on="1"/>
        <pt x="952" y="1434" on="0"/>
        <pt x="1008" y="1378" on="0"/>
        <pt x="1008" y="1339" on="1"/>
        <pt x="1008" y="535" on="1"/>
        <pt x="1008" y="279" on="0"/>
        <pt x="668" y="0" on="0"/>
        <pt x="377" y="0" on="1"/>
        <pt x="94" y="0" on="1"/>
        <pt x="55" y="0" on="0"/>
        <pt x="0" y="55" on="0"/>
        <pt x="0" y="94" on="1"/>
        <pt x="0" y="207" on="1"/>
        <pt x="0" y="246" on="0"/>
        <pt x="53" y="301" on="0"/>
        <pt x="94" y="301" on="1"/>
      </contour>
    </TTGlyph>
    <TTGlyph name="Jcircumflex" xMin="0" yMin="0" xMax="1194" yMax="1878">
      <contour>
        <pt x="127" y="301" on="1"/>
        <pt x="295" y="283" on="1"/>
        <pt x="367" y="283" on="1"/>
        <pt x="506" y="283" on="0"/>
        <pt x="631" y="397" on="0"/>
        <pt x="631" y="532" on="1"/>
        <pt x="631" y="1339" on="1"/>
        <pt x="631" y="1378" on="0"/>
        <pt x="686" y="1434" on="0"/>
        <pt x="725" y="1434" on="1"/>
        <pt x="911" y="1434" on="1"/>
        <pt x="952" y="1434" on="0"/>
        <pt x="1008" y="1378" on="0"/>
        <pt x="1008" y="1339" on="1"/>
        <pt x="1008" y="535" on="1"/>
        <pt x="1008" y="279" on="0"/>
        <pt x="668" y="0" on="0"/>
        <pt x="377" y="0" on="1"/>
        <pt x="94" y="0" on="1"/>
        <pt x="55" y="0" on="0"/>
        <pt x="0" y="55" on="0"/>
        <pt x="0" y="94" on="1"/>
        <pt x="0" y="207" on="1"/>
        <pt x="0" y="246" on="0"/>
        <pt x="53" y="301" on="0"/>
        <pt x="94" y="301" on="1"/>
      </contour>
      <contour>
        <pt x="485" y="1559" on="1"/>
        <pt x="449" y="1559" on="0"/>
        <pt x="426" y="1599" on="0"/>
        <pt x="426" y="1628" on="0"/>
        <pt x="444" y="1647" on="1"/>
        <pt x="600" y="1790" on="1"/>
        <pt x="692" y="1878" on="0"/>
        <pt x="748" y="1878" on="1"/>
        <pt x="870" y="1878" on="1"/>
        <pt x="926" y="1878" on="0"/>
        <pt x="1018" y="1790" on="1"/>
        <pt x="1176" y="1647" on="1"/>
        <pt x="1194" y="1628" on="0"/>
        <pt x="1194" y="1599" on="0"/>
        <pt x="1171" y="1559" on="0"/>
        <pt x="1135" y="1559" on="1"/>
        <pt x="989" y="1559" on="1"/>
        <pt x="932" y="1559" on="0"/>
        <pt x="844" y="1642" on="1"/>
        <pt x="809" y="1673" on="1"/>
        <pt x="776" y="1642" on="1"/>
        <pt x="688" y="1559" on="0"/>
        <pt x="631" y="1559" on="1"/>
      </contour>
    </TTGlyph>
    <TTGlyph name="K" xMin="143" yMin="0" xMax="1627" yMax="1436">
      <contour>
        <pt x="1627" y="44" on="1"/>
        <pt x="1627" y="0" on="0"/>
        <pt x="1575" y="0" on="1"/>
        <pt x="1346" y="0" on="1"/>
        <pt x="1307" y="0" on="0"/>
        <pt x="1217" y="55" on="0"/>
        <pt x="1192" y="94" on="1"/>
        <pt x="1016" y="373" on="1"/>
        <pt x="953" y="475" on="0"/>
        <pt x="825" y="578" on="0"/>
        <pt x="735" y="578" on="1"/>
        <pt x="520" y="578" on="1"/>
        <pt x="520" y="92" on="1"/>
        <pt x="520" y="53" on="0"/>
        <pt x="465" y="0" on="0"/>
        <pt x="426" y="0" on="1"/>
        <pt x="238" y="0" on="1"/>
        <pt x="199" y="0" on="0"/>
        <pt x="143" y="57" on="0"/>
        <pt x="143" y="96" on="1"/>
        <pt x="143" y="1339" on="1"/>
        <pt x="143" y="1378" on="0"/>
        <pt x="199" y="1436" on="0"/>
        <pt x="238" y="1436" on="1"/>
        <pt x="426" y="1436" on="1"/>
        <pt x="465" y="1436" on="0"/>
        <pt x="520" y="1378" on="0"/>
        <pt x="520" y="1339" on="1"/>
        <pt x="520" y="860" on="1"/>
        <pt x="735" y="860" on="1"/>
        <pt x="823" y="860" on="0"/>
        <pt x="956" y="956" on="0"/>
        <pt x="1016" y="1063" on="1"/>
        <pt x="1171" y="1339" on="1"/>
        <pt x="1224" y="1435" on="0"/>
        <pt x="1315" y="1436" on="1"/>
        <pt x="1546" y="1436" on="1"/>
        <pt x="1594" y="1436" on="0"/>
        <pt x="1594" y="1394" on="1"/>
        <pt x="1594" y="1371" on="0"/>
        <pt x="1577" y="1339" on="1"/>
        <pt x="1360" y="946" on="1"/>
        <pt x="1313" y="860" on="0"/>
        <pt x="1196" y="748" on="0"/>
        <pt x="1102" y="725" on="1"/>
        <pt x="1168" y="711" on="0"/>
        <pt x="1307" y="573" on="0"/>
        <pt x="1360" y="492" on="1"/>
        <pt x="1610" y="94" on="1"/>
        <pt x="1627" y="65" on="0"/>
      </contour>
    </TTGlyph>
    <TTGlyph name="L" xMin="143" yMin="0" xMax="1485" yMax="1434">
      <contour>
        <pt x="143" y="92" on="1"/>
        <pt x="143" y="1337" on="1"/>
        <pt x="143" y="1378" on="0"/>
        <pt x="199" y="1434" on="0"/>
        <pt x="238" y="1434" on="1"/>
        <pt x="426" y="1434" on="1"/>
        <pt x="465" y="1434" on="0"/>
        <pt x="520" y="1378" on="0"/>
        <pt x="520" y="1337" on="1"/>
        <pt x="520" y="283" on="1"/>
        <pt x="1391" y="283" on="1"/>
        <pt x="1430" y="283" on="0"/>
        <pt x="1485" y="227" on="0"/>
        <pt x="1485" y="188" on="1"/>
        <pt x="1485" y="94" on="1"/>
        <pt x="1485" y="55" on="0"/>
        <pt x="1430" y="0" on="0"/>
        <pt x="1391" y="0" on="1"/>
        <pt x="238" y="0" on="1"/>
        <pt x="199" y="0" on="0"/>
        <pt x="143" y="53" on="0"/>
      </contour>
    </TTGlyph>
    <TTGlyph name="Lacute" xMin="143" yMin="0" xMax="1485" yMax="1964">
      <contour>
        <pt x="143" y="92" on="1"/>
        <pt x="143" y="1337" on="1"/>
        <pt x="143" y="1378" on="0"/>
        <pt x="199" y="1434" on="0"/>
        <pt x="238" y="1434" on="1"/>
        <pt x="426" y="1434" on="1"/>
        <pt x="465" y="1434" on="0"/>
        <pt x="521" y="1378" on="0"/>
        <pt x="520" y="1337" on="1"/>
        <pt x="520" y="283" on="1"/>
        <pt x="1391" y="283" on="1"/>
        <pt x="1430" y="283" on="0"/>
        <pt x="1485" y="227" on="0"/>
        <pt x="1485" y="188" on="1"/>
        <pt x="1485" y="94" on="1"/>
        <pt x="1485" y="55" on="0"/>
        <pt x="1429" y="0" on="0"/>
        <pt x="1391" y="0" on="1"/>
        <pt x="238" y="0" on="1"/>
        <pt x="199" y="0" on="0"/>
        <pt x="143" y="55" on="0"/>
      </contour>
      <contour>
        <pt x="240" y="1661" on="1"/>
        <pt x="289" y="1849" on="1"/>
        <pt x="328" y="1964" on="0"/>
        <pt x="420" y="1964" on="1"/>
        <pt x="510" y="1964" on="1"/>
        <pt x="576" y="1964" on="0"/>
        <pt x="596" y="1922" on="1"/>
        <pt x="604" y="1906" on="0"/>
        <pt x="604" y="1860" on="0"/>
        <pt x="584" y="1829" on="1"/>
        <pt x="475" y="1640" on="1"/>
        <pt x="420" y="1546" on="0"/>
        <pt x="352" y="1546" on="1"/>
        <pt x="305" y="1546" on="1"/>
        <pt x="231" y="1546" on="0"/>
        <pt x="231" y="1611" on="1"/>
        <pt x="232" y="1632" on="0"/>
      </contour>
    </TTGlyph>
    <TTGlyph name="Lcaron" xMin="143" yMin="0" xMax="1485" yMax="1434">
      <contour>
        <pt x="143" y="92" on="1"/>
        <pt x="143" y="1337" on="1"/>
        <pt x="143" y="1378" on="0"/>
        <pt x="199" y="1434" on="0"/>
        <pt x="238" y="1434" on="1"/>
        <pt x="426" y="1434" on="1"/>
        <pt x="465" y="1434" on="0"/>
        <pt x="521" y="1378" on="0"/>
        <pt x="520" y="1337" on="1"/>
        <pt x="520" y="283" on="1"/>
        <pt x="1391" y="283" on="1"/>
        <pt x="1430" y="283" on="0"/>
        <pt x="1485" y="227" on="0"/>
        <pt x="1485" y="188" on="1"/>
        <pt x="1485" y="94" on="1"/>
        <pt x="1485" y="55" on="0"/>
        <pt x="1429" y="0" on="0"/>
        <pt x="1391" y="0" on="1"/>
        <pt x="238" y="0" on="1"/>
        <pt x="199" y="0" on="0"/>
        <pt x="143" y="55" on="0"/>
      </contour>
      <contour>
        <pt x="631" y="981" on="1"/>
        <pt x="635" y="1319" on="1"/>
        <pt x="635" y="1364" on="0"/>
        <pt x="690" y="1434" on="0"/>
        <pt x="731" y="1434" on="1"/>
        <pt x="811" y="1434" on="1"/>
        <pt x="864" y="1434" on="0"/>
        <pt x="913" y="1379" on="0"/>
        <pt x="913" y="1332" on="0"/>
        <pt x="911" y="1321" on="1"/>
        <pt x="842" y="961" on="1"/>
        <pt x="826" y="887" on="0"/>
        <pt x="741" y="887" on="1"/>
        <pt x="713" y="887" on="1"/>
        <pt x="670" y="887" on="0"/>
        <pt x="631" y="930" on="0"/>
      </contour>
    </TTGlyph>
    <TTGlyph name="Lslash" xMin="0" yMin="0" xMax="1546" yMax="1434">
      <contour>
        <pt x="0" y="487" on="1"/>
        <pt x="0" y="647" on="1"/>
        <pt x="0" y="700" on="0"/>
        <pt x="61" y="729" on="1"/>
        <pt x="205" y="799" on="1"/>
        <pt x="205" y="1337" on="1"/>
        <pt x="205" y="1378" on="0"/>
        <pt x="260" y="1434" on="0"/>
        <pt x="299" y="1434" on="1"/>
        <pt x="487" y="1434" on="1"/>
        <pt x="526" y="1434" on="0"/>
        <pt x="582" y="1378" on="0"/>
        <pt x="582" y="1337" on="1"/>
        <pt x="582" y="981" on="1"/>
        <pt x="735" y="1057" on="1"/>
        <pt x="758" y="1067" on="0"/>
        <pt x="797" y="1042" on="0"/>
        <pt x="797" y="1016" on="1"/>
        <pt x="797" y="856" on="1"/>
        <pt x="797" y="803" on="0"/>
        <pt x="735" y="774" on="1"/>
        <pt x="582" y="698" on="1"/>
        <pt x="582" y="283" on="1"/>
        <pt x="1452" y="283" on="1"/>
        <pt x="1491" y="283" on="0"/>
        <pt x="1546" y="227" on="0"/>
        <pt x="1546" y="188" on="1"/>
        <pt x="1546" y="94" on="1"/>
        <pt x="1546" y="55" on="0"/>
        <pt x="1491" y="0" on="0"/>
        <pt x="1452" y="0" on="1"/>
        <pt x="299" y="0" on="1"/>
        <pt x="260" y="0" on="0"/>
        <pt x="205" y="53" on="0"/>
        <pt x="205" y="92" on="1"/>
        <pt x="205" y="516" on="1"/>
        <pt x="61" y="446" on="1"/>
        <pt x="39" y="436" on="0"/>
        <pt x="0" y="461" on="0"/>
      </contour>
    </TTGlyph>
    <TTGlyph name="M" xMin="143" yMin="0" xMax="1974" yMax="1434">
      <contour>
        <pt x="143" y="96" on="1"/>
        <pt x="143" y="1337" on="1"/>
        <pt x="143" y="1378" on="0"/>
        <pt x="197" y="1434" on="0"/>
        <pt x="236" y="1434" on="1"/>
        <pt x="643" y="1434" on="1"/>
        <pt x="682" y="1434" on="0"/>
        <pt x="752" y="1378" on="0"/>
        <pt x="764" y="1339" on="1"/>
        <pt x="1059" y="485" on="1"/>
        <pt x="1354" y="1339" on="1"/>
        <pt x="1366" y="1378" on="0"/>
        <pt x="1436" y="1434" on="0"/>
        <pt x="1475" y="1434" on="1"/>
        <pt x="1882" y="1434" on="1"/>
        <pt x="1921" y="1434" on="0"/>
        <pt x="1974" y="1378" on="0"/>
        <pt x="1974" y="1337" on="1"/>
        <pt x="1974" y="96" on="1"/>
        <pt x="1974" y="55" on="0"/>
        <pt x="1919" y="0" on="0"/>
        <pt x="1880" y="0" on="1"/>
        <pt x="1700" y="0" on="1"/>
        <pt x="1661" y="0" on="0"/>
        <pt x="1606" y="55" on="0"/>
        <pt x="1606" y="96" on="1"/>
        <pt x="1606" y="1073" on="1"/>
        <pt x="1253" y="90" on="1"/>
        <pt x="1239" y="53" on="0"/>
        <pt x="1169" y="0" on="0"/>
        <pt x="1130" y="0" on="1"/>
        <pt x="987" y="0" on="1"/>
        <pt x="948" y="0" on="0"/>
        <pt x="879" y="53" on="0"/>
        <pt x="864" y="90" on="1"/>
        <pt x="512" y="1073" on="1"/>
        <pt x="512" y="96" on="1"/>
        <pt x="512" y="55" on="0"/>
        <pt x="457" y="0" on="0"/>
        <pt x="418" y="0" on="1"/>
        <pt x="238" y="0" on="1"/>
        <pt x="199" y="0" on="0"/>
        <pt x="143" y="55" on="0"/>
      </contour>
    </TTGlyph>
    <TTGlyph name="N" xMin="143" yMin="0" xMax="1632" yMax="1434">
      <contour>
        <pt x="143" y="94" on="1"/>
        <pt x="143" y="1339" on="1"/>
        <pt x="143" y="1378" on="0"/>
        <pt x="197" y="1434" on="0"/>
        <pt x="236" y="1434" on="1"/>
        <pt x="530" y="1434" on="1"/>
        <pt x="565" y="1434" on="0"/>
        <pt x="643" y="1378" on="0"/>
        <pt x="668" y="1339" on="1"/>
        <pt x="1272" y="410" on="1"/>
        <pt x="1272" y="1341" on="1"/>
        <pt x="1272" y="1380" on="0"/>
        <pt x="1327" y="1434" on="0"/>
        <pt x="1366" y="1434" on="1"/>
        <pt x="1538" y="1434" on="1"/>
        <pt x="1577" y="1434" on="0"/>
        <pt x="1632" y="1380" on="0"/>
        <pt x="1632" y="1339" on="1"/>
        <pt x="1632" y="94" on="1"/>
        <pt x="1632" y="55" on="0"/>
        <pt x="1577" y="0" on="0"/>
        <pt x="1538" y="0" on="1"/>
        <pt x="1206" y="0" on="1"/>
        <pt x="1167" y="0" on="0"/>
        <pt x="1085" y="55" on="0"/>
        <pt x="1061" y="94" on="1"/>
        <pt x="508" y="952" on="1"/>
        <pt x="508" y="94" on="1"/>
        <pt x="508" y="55" on="0"/>
        <pt x="453" y="0" on="0"/>
        <pt x="414" y="0" on="1"/>
        <pt x="238" y="0" on="1"/>
        <pt x="199" y="0" on="0"/>
        <pt x="143" y="55" on="0"/>
      </contour>
    </TTGlyph>
    <TTGlyph name="Nacute" xMin="143" yMin="0" xMax="1632" yMax="1913">
      <contour>
        <pt x="143" y="94" on="1"/>
        <pt x="143" y="1339" on="1"/>
        <pt x="143" y="1378" on="0"/>
        <pt x="197" y="1434" on="0"/>
        <pt x="236" y="1434" on="1"/>
        <pt x="530" y="1434" on="1"/>
        <pt x="565" y="1434" on="0"/>
        <pt x="643" y="1378" on="0"/>
        <pt x="668" y="1339" on="1"/>
        <pt x="1272" y="410" on="1"/>
        <pt x="1272" y="1341" on="1"/>
        <pt x="1272" y="1380" on="0"/>
        <pt x="1327" y="1434" on="0"/>
        <pt x="1366" y="1434" on="1"/>
        <pt x="1538" y="1434" on="1"/>
        <pt x="1577" y="1434" on="0"/>
        <pt x="1632" y="1380" on="0"/>
        <pt x="1632" y="1339" on="1"/>
        <pt x="1632" y="94" on="1"/>
        <pt x="1632" y="55" on="0"/>
        <pt x="1577" y="0" on="0"/>
        <pt x="1538" y="0" on="1"/>
        <pt x="1206" y="0" on="1"/>
        <pt x="1167" y="0" on="0"/>
        <pt x="1085" y="55" on="0"/>
        <pt x="1061" y="94" on="1"/>
        <pt x="508" y="952" on="1"/>
        <pt x="508" y="94" on="1"/>
        <pt x="508" y="55" on="0"/>
        <pt x="453" y="0" on="0"/>
        <pt x="414" y="0" on="1"/>
        <pt x="238" y="0" on="1"/>
        <pt x="199" y="0" on="0"/>
        <pt x="143" y="55" on="0"/>
      </contour>
      <contour>
        <pt x="827" y="1610" on="1"/>
        <pt x="877" y="1798" on="1"/>
        <pt x="915" y="1913" on="0"/>
        <pt x="1008" y="1913" on="1"/>
        <pt x="1098" y="1913" on="1"/>
        <pt x="1163" y="1913" on="0"/>
        <pt x="1184" y="1872" on="1"/>
        <pt x="1192" y="1855" on="0"/>
        <pt x="1192" y="1808" on="0"/>
        <pt x="1171" y="1778" on="1"/>
        <pt x="1063" y="1589" on="1"/>
        <pt x="1008" y="1495" on="0"/>
        <pt x="940" y="1495" on="1"/>
        <pt x="893" y="1495" on="1"/>
        <pt x="819" y="1495" on="0"/>
        <pt x="819" y="1561" on="1"/>
        <pt x="819" y="1581" on="0"/>
      </contour>
    </TTGlyph>
    <TTGlyph name="Ncaron" xMin="143" yMin="0" xMax="1632" yMax="1819">
      <contour>
        <pt x="143" y="94" on="1"/>
        <pt x="143" y="1339" on="1"/>
        <pt x="143" y="1378" on="0"/>
        <pt x="197" y="1434" on="0"/>
        <pt x="236" y="1434" on="1"/>
        <pt x="530" y="1434" on="1"/>
        <pt x="565" y="1434" on="0"/>
        <pt x="643" y="1378" on="0"/>
        <pt x="668" y="1339" on="1"/>
        <pt x="1272" y="410" on="1"/>
        <pt x="1272" y="1341" on="1"/>
        <pt x="1272" y="1380" on="0"/>
        <pt x="1327" y="1434" on="0"/>
        <pt x="1366" y="1434" on="1"/>
        <pt x="1538" y="1434" on="1"/>
        <pt x="1577" y="1434" on="0"/>
        <pt x="1632" y="1380" on="0"/>
        <pt x="1632" y="1339" on="1"/>
        <pt x="1632" y="94" on="1"/>
        <pt x="1632" y="55" on="0"/>
        <pt x="1577" y="0" on="0"/>
        <pt x="1538" y="0" on="1"/>
        <pt x="1206" y="0" on="1"/>
        <pt x="1167" y="0" on="0"/>
        <pt x="1085" y="55" on="0"/>
        <pt x="1061" y="94" on="1"/>
        <pt x="508" y="952" on="1"/>
        <pt x="508" y="94" on="1"/>
        <pt x="508" y="55" on="0"/>
        <pt x="453" y="0" on="0"/>
        <pt x="414" y="0" on="1"/>
        <pt x="238" y="0" on="1"/>
        <pt x="199" y="0" on="0"/>
        <pt x="143" y="55" on="0"/>
      </contour>
      <contour>
        <pt x="530" y="1788" on="1"/>
        <pt x="547" y="1819" on="0"/>
        <pt x="584" y="1819" on="1"/>
        <pt x="729" y="1819" on="1"/>
        <pt x="786" y="1819" on="0"/>
        <pt x="874" y="1735" on="1"/>
        <pt x="907" y="1704" on="1"/>
        <pt x="942" y="1735" on="1"/>
        <pt x="1030" y="1819" on="0"/>
        <pt x="1087" y="1819" on="1"/>
        <pt x="1233" y="1819" on="1"/>
        <pt x="1270" y="1819" on="0"/>
        <pt x="1286" y="1788" on="1"/>
        <pt x="1292" y="1778" on="0"/>
        <pt x="1292" y="1747" on="0"/>
        <pt x="1274" y="1731" on="1"/>
        <pt x="1116" y="1587" on="1"/>
        <pt x="1024" y="1499" on="0"/>
        <pt x="969" y="1499" on="1"/>
        <pt x="846" y="1499" on="1"/>
        <pt x="791" y="1499" on="0"/>
        <pt x="698" y="1587" on="1"/>
        <pt x="543" y="1731" on="1"/>
        <pt x="524" y="1749" on="0"/>
        <pt x="524" y="1778" on="0"/>
      </contour>
    </TTGlyph>
    <TTGlyph name="Ntilde" xMin="143" yMin="0" xMax="1632" yMax="1792">
      <contour>
        <pt x="143" y="94" on="1"/>
        <pt x="143" y="1339" on="1"/>
        <pt x="143" y="1378" on="0"/>
        <pt x="197" y="1434" on="0"/>
        <pt x="236" y="1434" on="1"/>
        <pt x="530" y="1434" on="1"/>
        <pt x="565" y="1434" on="0"/>
        <pt x="643" y="1378" on="0"/>
        <pt x="668" y="1339" on="1"/>
        <pt x="1272" y="410" on="1"/>
        <pt x="1272" y="1341" on="1"/>
        <pt x="1272" y="1380" on="0"/>
        <pt x="1327" y="1434" on="0"/>
        <pt x="1366" y="1434" on="1"/>
        <pt x="1538" y="1434" on="1"/>
        <pt x="1577" y="1434" on="0"/>
        <pt x="1632" y="1380" on="0"/>
        <pt x="1632" y="1339" on="1"/>
        <pt x="1632" y="94" on="1"/>
        <pt x="1632" y="55" on="0"/>
        <pt x="1577" y="0" on="0"/>
        <pt x="1538" y="0" on="1"/>
        <pt x="1206" y="0" on="1"/>
        <pt x="1167" y="0" on="0"/>
        <pt x="1085" y="55" on="0"/>
        <pt x="1061" y="94" on="1"/>
        <pt x="508" y="952" on="1"/>
        <pt x="508" y="94" on="1"/>
        <pt x="508" y="55" on="0"/>
        <pt x="453" y="0" on="0"/>
        <pt x="414" y="0" on="1"/>
        <pt x="238" y="0" on="1"/>
        <pt x="199" y="0" on="0"/>
        <pt x="143" y="55" on="0"/>
      </contour>
      <contour>
        <pt x="586" y="1526" on="1"/>
        <pt x="586" y="1657" on="0"/>
        <pt x="715" y="1792" on="0"/>
        <pt x="860" y="1792" on="0"/>
        <pt x="1012" y="1710" on="0"/>
        <pt x="1083" y="1710" on="0"/>
        <pt x="1128" y="1782" on="0"/>
        <pt x="1157" y="1782" on="1"/>
        <pt x="1239" y="1782" on="1"/>
        <pt x="1270" y="1782" on="0"/>
        <pt x="1270" y="1751" on="1"/>
        <pt x="1270" y="1620" on="0"/>
        <pt x="1143" y="1485" on="0"/>
        <pt x="995" y="1485" on="0"/>
        <pt x="848" y="1567" on="0"/>
        <pt x="774" y="1567" on="0"/>
        <pt x="727" y="1495" on="0"/>
        <pt x="698" y="1495" on="1"/>
        <pt x="616" y="1495" on="1"/>
        <pt x="586" y="1495" on="0"/>
      </contour>
    </TTGlyph>
    <TTGlyph name="O" xMin="61" yMin="-31" xMax="1671" yMax="1464">
      <contour>
        <pt x="1262" y="-31" on="0"/>
        <pt x="471" y="-31" on="0"/>
        <pt x="61" y="328" on="0"/>
        <pt x="61" y="1106" on="0"/>
        <pt x="471" y="1464" on="0"/>
        <pt x="1262" y="1464" on="0"/>
        <pt x="1671" y="1106" on="0"/>
        <pt x="1671" y="328" on="0"/>
      </contour>
      <contour>
        <pt x="1092" y="1194" on="0"/>
        <pt x="641" y="1194" on="0"/>
        <pt x="438" y="954" on="0"/>
        <pt x="438" y="479" on="0"/>
        <pt x="641" y="240" on="0"/>
        <pt x="1092" y="240" on="0"/>
        <pt x="1294" y="479" on="0"/>
        <pt x="1294" y="954" on="0"/>
      </contour>
    </TTGlyph>
    <TTGlyph name="OE" xMin="61" yMin="0" xMax="2447" yMax="1434">
      <contour>
        <pt x="61" y="346" on="0"/>
        <pt x="61" y="1087" on="0"/>
        <pt x="457" y="1434" on="0"/>
        <pt x="891" y="1434" on="1"/>
        <pt x="2353" y="1434" on="1"/>
        <pt x="2392" y="1434" on="0"/>
        <pt x="2447" y="1378" on="0"/>
        <pt x="2447" y="1339" on="1"/>
        <pt x="2447" y="1245" on="1"/>
        <pt x="2447" y="1206" on="0"/>
        <pt x="2392" y="1151" on="0"/>
        <pt x="2353" y="1151" on="1"/>
        <pt x="1483" y="1151" on="1"/>
        <pt x="1483" y="860" on="1"/>
        <pt x="2232" y="860" on="1"/>
        <pt x="2271" y="860" on="0"/>
        <pt x="2327" y="805" on="0"/>
        <pt x="2327" y="766" on="1"/>
        <pt x="2327" y="672" on="1"/>
        <pt x="2327" y="633" on="0"/>
        <pt x="2271" y="578" on="0"/>
        <pt x="2232" y="578" on="1"/>
        <pt x="1483" y="578" on="1"/>
        <pt x="1483" y="283" on="1"/>
        <pt x="2351" y="283" on="1"/>
        <pt x="2390" y="283" on="0"/>
        <pt x="2443" y="229" on="0"/>
        <pt x="2443" y="190" on="1"/>
        <pt x="2443" y="94" on="1"/>
        <pt x="2443" y="55" on="0"/>
        <pt x="2388" y="0" on="0"/>
        <pt x="2349" y="0" on="1"/>
        <pt x="891" y="0" on="1"/>
        <pt x="457" y="0" on="0"/>
      </contour>
      <contour>
        <pt x="438" y="954" on="0"/>
        <pt x="438" y="479" on="0"/>
        <pt x="633" y="283" on="0"/>
        <pt x="901" y="283" on="1"/>
        <pt x="1106" y="283" on="1"/>
        <pt x="1106" y="1151" on="1"/>
        <pt x="901" y="1151" on="1"/>
        <pt x="633" y="1151" on="0"/>
      </contour>
    </TTGlyph>
    <TTGlyph name="Oacute" xMin="61" yMin="-31" xMax="1671" yMax="1964">
      <contour>
        <pt x="866" y="-31" on="1"/>
        <pt x="61" y="-31" on="0"/>
        <pt x="61" y="1464" on="0"/>
        <pt x="1671" y="1464" on="0"/>
        <pt x="1671" y="-31" on="0"/>
      </contour>
      <contour>
        <pt x="866" y="1194" on="1"/>
        <pt x="438" y="1194" on="0"/>
        <pt x="438" y="240" on="0"/>
        <pt x="1294" y="240" on="0"/>
        <pt x="1294" y="1194" on="0"/>
      </contour>
      <contour>
        <pt x="793" y="1661" on="1"/>
        <pt x="842" y="1849" on="1"/>
        <pt x="881" y="1964" on="0"/>
        <pt x="973" y="1964" on="1"/>
        <pt x="1063" y="1964" on="1"/>
        <pt x="1128" y="1964" on="0"/>
        <pt x="1149" y="1921" on="1"/>
        <pt x="1157" y="1907" on="0"/>
        <pt x="1157" y="1860" on="0"/>
        <pt x="1137" y="1829" on="1"/>
        <pt x="1028" y="1640" on="1"/>
        <pt x="973" y="1546" on="0"/>
        <pt x="905" y="1546" on="1"/>
        <pt x="858" y="1546" on="1"/>
        <pt x="784" y="1546" on="0"/>
        <pt x="784" y="1612" on="1"/>
        <pt x="784" y="1632" on="0"/>
      </contour>
    </TTGlyph>
    <TTGlyph name="Ocircumflex" xMin="61" yMin="-31" xMax="1671" yMax="1931">
      <contour>
        <pt x="1262" y="-31" on="0"/>
        <pt x="471" y="-31" on="0"/>
        <pt x="61" y="328" on="0"/>
        <pt x="61" y="1106" on="0"/>
        <pt x="471" y="1464" on="0"/>
        <pt x="1262" y="1464" on="0"/>
        <pt x="1671" y="1106" on="0"/>
        <pt x="1671" y="328" on="0"/>
      </contour>
      <contour>
        <pt x="1092" y="1194" on="0"/>
        <pt x="641" y="1194" on="0"/>
        <pt x="438" y="954" on="0"/>
        <pt x="438" y="479" on="0"/>
        <pt x="641" y="240" on="0"/>
        <pt x="1092" y="240" on="0"/>
        <pt x="1294" y="479" on="0"/>
        <pt x="1294" y="954" on="0"/>
      </contour>
      <contour>
        <pt x="557" y="1612" on="1"/>
        <pt x="520" y="1612" on="0"/>
        <pt x="498" y="1653" on="0"/>
        <pt x="498" y="1681" on="0"/>
        <pt x="516" y="1700" on="1"/>
        <pt x="672" y="1843" on="1"/>
        <pt x="764" y="1931" on="0"/>
        <pt x="819" y="1931" on="1"/>
        <pt x="942" y="1931" on="1"/>
        <pt x="997" y="1931" on="0"/>
        <pt x="1090" y="1843" on="1"/>
        <pt x="1247" y="1700" on="1"/>
        <pt x="1266" y="1681" on="0"/>
        <pt x="1266" y="1653" on="0"/>
        <pt x="1243" y="1612" on="0"/>
        <pt x="1206" y="1612" on="1"/>
        <pt x="1061" y="1612" on="1"/>
        <pt x="1004" y="1612" on="0"/>
        <pt x="915" y="1696" on="1"/>
        <pt x="881" y="1726" on="1"/>
        <pt x="848" y="1696" on="1"/>
        <pt x="760" y="1612" on="0"/>
        <pt x="702" y="1612" on="1"/>
      </contour>
    </TTGlyph>
    <TTGlyph name="Odieresis" xMin="61" yMin="-31" xMax="1671" yMax="1851">
      <contour>
        <pt x="866" y="-31" on="1"/>
        <pt x="61" y="-31" on="0"/>
        <pt x="61" y="1464" on="0"/>
        <pt x="1671" y="1464" on="0"/>
        <pt x="1671" y="-31" on="0"/>
      </contour>
      <contour>
        <pt x="866" y="1194" on="1"/>
        <pt x="438" y="1194" on="0"/>
        <pt x="438" y="240" on="0"/>
        <pt x="1294" y="240" on="0"/>
        <pt x="1294" y="1194" on="0"/>
      </contour>
      <contour>
        <pt x="459" y="1698" on="1"/>
        <pt x="459" y="1737" on="1"/>
        <pt x="459" y="1851" on="0"/>
        <pt x="573" y="1851" on="1"/>
        <pt x="670" y="1851" on="1"/>
        <pt x="784" y="1851" on="0"/>
        <pt x="784" y="1737" on="1"/>
        <pt x="784" y="1698" on="1"/>
        <pt x="784" y="1583" on="0"/>
        <pt x="670" y="1583" on="1"/>
        <pt x="573" y="1583" on="1"/>
        <pt x="459" y="1583" on="0"/>
      </contour>
      <contour>
        <pt x="961" y="1698" on="1"/>
        <pt x="961" y="1737" on="1"/>
        <pt x="961" y="1851" on="0"/>
        <pt x="1075" y="1851" on="1"/>
        <pt x="1171" y="1851" on="1"/>
        <pt x="1286" y="1851" on="0"/>
        <pt x="1286" y="1737" on="1"/>
        <pt x="1286" y="1698" on="1"/>
        <pt x="1286" y="1583" on="0"/>
        <pt x="1171" y="1583" on="1"/>
        <pt x="1075" y="1583" on="1"/>
        <pt x="961" y="1583" on="0"/>
      </contour>
    </TTGlyph>
    <TTGlyph name="Ograve" xMin="61" yMin="-31" xMax="1671" yMax="1964">
      <contour>
        <pt x="866" y="-31" on="1"/>
        <pt x="61" y="-31" on="0"/>
        <pt x="61" y="1464" on="0"/>
        <pt x="1671" y="1464" on="0"/>
        <pt x="1671" y="-31" on="0"/>
      </contour>
      <contour>
        <pt x="866" y="1194" on="1"/>
        <pt x="438" y="1194" on="0"/>
        <pt x="438" y="240" on="0"/>
        <pt x="1294" y="240" on="0"/>
        <pt x="1294" y="1194" on="0"/>
      </contour>
      <contour>
        <pt x="614" y="1921" on="1"/>
        <pt x="635" y="1964" on="0"/>
        <pt x="700" y="1964" on="1"/>
        <pt x="791" y="1964" on="1"/>
        <pt x="883" y="1964" on="0"/>
        <pt x="922" y="1849" on="1"/>
        <pt x="971" y="1661" on="1"/>
        <pt x="979" y="1632" on="0"/>
        <pt x="979" y="1612" on="1"/>
        <pt x="979" y="1546" on="0"/>
        <pt x="905" y="1546" on="1"/>
        <pt x="858" y="1546" on="1"/>
        <pt x="791" y="1546" on="0"/>
        <pt x="735" y="1640" on="1"/>
        <pt x="627" y="1829" on="1"/>
        <pt x="606" y="1862" on="0"/>
        <pt x="606" y="1907" on="0"/>
      </contour>
    </TTGlyph>
    <TTGlyph name="Oslash" xMin="61" yMin="-31" xMax="1671" yMax="1464">
      <contour>
        <pt x="1604" y="1434" on="1"/>
        <pt x="1663" y="1434" on="0"/>
        <pt x="1663" y="1386" on="1"/>
        <pt x="1663" y="1364" on="0"/>
        <pt x="1638" y="1339" on="1"/>
        <pt x="1526" y="1221" on="1"/>
        <pt x="1671" y="1016" on="0"/>
        <pt x="1671" y="717" on="1"/>
        <pt x="1671" y="328" on="0"/>
        <pt x="1262" y="-31" on="0"/>
        <pt x="866" y="-31" on="1"/>
        <pt x="616" y="-31" on="0"/>
        <pt x="424" y="68" on="1"/>
        <pt x="420" y="63" on="0"/>
        <pt x="410" y="55" on="1"/>
        <pt x="393" y="43" on="1"/>
        <pt x="380" y="30" on="0"/>
        <pt x="358" y="18" on="1"/>
        <pt x="340" y="8" on="1"/>
        <pt x="320" y="0" on="0"/>
        <pt x="297" y="0" on="1"/>
        <pt x="129" y="0" on="1"/>
        <pt x="82" y="0" on="0"/>
        <pt x="74" y="33" on="1"/>
        <pt x="72" y="39" on="0"/>
        <pt x="72" y="70" on="0"/>
        <pt x="94" y="94" on="1"/>
        <pt x="205" y="213" on="1"/>
        <pt x="61" y="416" on="0"/>
        <pt x="61" y="717" on="1"/>
        <pt x="61" y="1106" on="0"/>
        <pt x="471" y="1464" on="0"/>
        <pt x="866" y="1464" on="1"/>
        <pt x="1124" y="1464" on="0"/>
        <pt x="1309" y="1364" on="1"/>
        <pt x="1379" y="1434" on="0"/>
        <pt x="1436" y="1434" on="1"/>
      </contour>
      <contour>
        <pt x="438" y="717" on="1"/>
        <pt x="438" y="580" on="0"/>
        <pt x="467" y="492" on="1"/>
        <pt x="1085" y="1153" on="1"/>
        <pt x="993" y="1194" on="0"/>
        <pt x="866" y="1194" on="1"/>
        <pt x="641" y="1194" on="0"/>
        <pt x="438" y="954" on="0"/>
      </contour>
      <contour>
        <pt x="645" y="281" on="1"/>
        <pt x="737" y="240" on="0"/>
        <pt x="866" y="240" on="1"/>
        <pt x="1092" y="240" on="0"/>
        <pt x="1294" y="479" on="0"/>
        <pt x="1294" y="717" on="1"/>
        <pt x="1294" y="844" on="0"/>
        <pt x="1264" y="940" on="1"/>
      </contour>
    </TTGlyph>
    <TTGlyph name="Otilde" xMin="61" yMin="-31" xMax="1671" yMax="1853">
      <contour>
        <pt x="1262" y="-31" on="0"/>
        <pt x="471" y="-31" on="0"/>
        <pt x="61" y="328" on="0"/>
        <pt x="61" y="1106" on="0"/>
        <pt x="471" y="1464" on="0"/>
        <pt x="1262" y="1464" on="0"/>
        <pt x="1671" y="1106" on="0"/>
        <pt x="1671" y="328" on="0"/>
      </contour>
      <contour>
        <pt x="1092" y="1194" on="0"/>
        <pt x="641" y="1194" on="0"/>
        <pt x="438" y="954" on="0"/>
        <pt x="438" y="479" on="0"/>
        <pt x="641" y="240" on="0"/>
        <pt x="1092" y="240" on="0"/>
        <pt x="1294" y="479" on="0"/>
        <pt x="1294" y="954" on="0"/>
      </contour>
      <contour>
        <pt x="524" y="1587" on="1"/>
        <pt x="524" y="1718" on="0"/>
        <pt x="653" y="1853" on="0"/>
        <pt x="799" y="1853" on="0"/>
        <pt x="950" y="1772" on="0"/>
        <pt x="1022" y="1772" on="0"/>
        <pt x="1067" y="1843" on="0"/>
        <pt x="1096" y="1843" on="1"/>
        <pt x="1178" y="1843" on="1"/>
        <pt x="1208" y="1843" on="0"/>
        <pt x="1208" y="1812" on="1"/>
        <pt x="1208" y="1681" on="0"/>
        <pt x="1081" y="1546" on="0"/>
        <pt x="934" y="1546" on="0"/>
        <pt x="786" y="1628" on="0"/>
        <pt x="713" y="1628" on="0"/>
        <pt x="666" y="1556" on="0"/>
        <pt x="637" y="1556" on="1"/>
        <pt x="555" y="1556" on="1"/>
        <pt x="524" y="1556" on="0"/>
      </contour>
    </TTGlyph>
    <TTGlyph name="P" xMin="143" yMin="0" xMax="1604" yMax="1434">
      <contour>
        <pt x="143" y="94" on="1"/>
        <pt x="143" y="1339" on="1"/>
        <pt x="143" y="1378" on="0"/>
        <pt x="197" y="1434" on="0"/>
        <pt x="236" y="1434" on="1"/>
        <pt x="999" y="1434" on="1"/>
        <pt x="1604" y="1434" on="0"/>
        <pt x="1604" y="319" on="0"/>
        <pt x="999" y="319" on="1"/>
        <pt x="520" y="319" on="1"/>
        <pt x="520" y="94" on="1"/>
        <pt x="520" y="55" on="0"/>
        <pt x="465" y="0" on="0"/>
        <pt x="426" y="0" on="1"/>
        <pt x="238" y="0" on="1"/>
        <pt x="199" y="0" on="0"/>
        <pt x="143" y="55" on="0"/>
      </contour>
      <contour>
        <pt x="520" y="602" on="1"/>
        <pt x="885" y="602" on="1"/>
        <pt x="1053" y="602" on="0"/>
        <pt x="1227" y="715" on="0"/>
        <pt x="1227" y="1038" on="0"/>
        <pt x="1053" y="1151" on="0"/>
        <pt x="885" y="1151" on="1"/>
        <pt x="520" y="1151" on="1"/>
      </contour>
    </TTGlyph>
    <TTGlyph name="Q" xMin="61" yMin="-10" xMax="1729" yMax="1464">
      <contour>
        <pt x="61" y="1108" on="0"/>
        <pt x="471" y="1464" on="0"/>
        <pt x="1266" y="1464" on="0"/>
        <pt x="1671" y="1126" on="0"/>
        <pt x="1671" y="748" on="1"/>
        <pt x="1671" y="548" on="0"/>
        <pt x="1593" y="422" on="1"/>
        <pt x="1538" y="331" on="0"/>
        <pt x="1475" y="260" on="1"/>
        <pt x="1634" y="260" on="1"/>
        <pt x="1675" y="260" on="0"/>
        <pt x="1729" y="205" on="0"/>
        <pt x="1729" y="166" on="1"/>
        <pt x="1729" y="84" on="1"/>
        <pt x="1729" y="45" on="0"/>
        <pt x="1675" y="-10" on="0"/>
        <pt x="1634" y="-10" on="1"/>
        <pt x="866" y="-10" on="1"/>
        <pt x="471" y="-10" on="0"/>
        <pt x="61" y="346" on="0"/>
      </contour>
      <contour>
        <pt x="866" y="260" on="1"/>
        <pt x="1294" y="260" on="0"/>
        <pt x="1294" y="748" on="1"/>
        <pt x="1294" y="975" on="0"/>
        <pt x="1092" y="1194" on="0"/>
        <pt x="643" y="1194" on="0"/>
        <pt x="438" y="956" on="0"/>
        <pt x="438" y="498" on="0"/>
        <pt x="643" y="260" on="0"/>
      </contour>
    </TTGlyph>
    <TTGlyph name="R" xMin="143" yMin="0" xMax="1632" yMax="1434">
      <contour>
        <pt x="1632" y="43" on="1"/>
        <pt x="1632" y="0" on="0"/>
        <pt x="1581" y="0" on="1"/>
        <pt x="1341" y="0" on="1"/>
        <pt x="1303" y="0" on="0"/>
        <pt x="1212" y="55" on="0"/>
        <pt x="1188" y="94" on="1"/>
        <pt x="1018" y="360" on="1"/>
        <pt x="913" y="524" on="0"/>
        <pt x="764" y="524" on="1"/>
        <pt x="520" y="524" on="1"/>
        <pt x="520" y="94" on="1"/>
        <pt x="520" y="55" on="0"/>
        <pt x="465" y="0" on="0"/>
        <pt x="426" y="0" on="1"/>
        <pt x="238" y="0" on="1"/>
        <pt x="199" y="0" on="0"/>
        <pt x="143" y="55" on="0"/>
        <pt x="143" y="94" on="1"/>
        <pt x="143" y="1339" on="1"/>
        <pt x="143" y="1378" on="0"/>
        <pt x="197" y="1434" on="0"/>
        <pt x="236" y="1434" on="1"/>
        <pt x="1061" y="1434" on="1"/>
        <pt x="1290" y="1434" on="0"/>
        <pt x="1583" y="1188" on="0"/>
        <pt x="1583" y="979" on="1"/>
        <pt x="1583" y="688" on="0"/>
        <pt x="1206" y="614" on="1"/>
        <pt x="1266" y="592" on="0"/>
        <pt x="1368" y="485" on="0"/>
        <pt x="1434" y="383" on="1"/>
        <pt x="1616" y="94" on="1"/>
        <pt x="1632" y="66" on="0"/>
      </contour>
      <contour>
        <pt x="520" y="807" on="1"/>
        <pt x="946" y="807" on="1"/>
        <pt x="1049" y="807" on="0"/>
        <pt x="1206" y="889" on="0"/>
        <pt x="1206" y="1069" on="0"/>
        <pt x="1049" y="1151" on="0"/>
        <pt x="946" y="1151" on="1"/>
        <pt x="520" y="1151" on="1"/>
      </contour>
    </TTGlyph>
    <TTGlyph name="Racute" xMin="143" yMin="0" xMax="1632" yMax="1964">
      <contour>
        <pt x="1632" y="43" on="1"/>
        <pt x="1632" y="0" on="0"/>
        <pt x="1581" y="0" on="1"/>
        <pt x="1341" y="0" on="1"/>
        <pt x="1245" y="0" on="0"/>
        <pt x="1188" y="94" on="1"/>
        <pt x="1018" y="360" on="1"/>
        <pt x="913" y="524" on="0"/>
        <pt x="764" y="524" on="1"/>
        <pt x="520" y="524" on="1"/>
        <pt x="520" y="94" on="1"/>
        <pt x="520" y="55" on="0"/>
        <pt x="465" y="0" on="0"/>
        <pt x="426" y="0" on="1"/>
        <pt x="238" y="0" on="1"/>
        <pt x="201" y="0" on="0"/>
        <pt x="143" y="57" on="0"/>
        <pt x="143" y="94" on="1"/>
        <pt x="143" y="1339" on="1"/>
        <pt x="143" y="1380" on="0"/>
        <pt x="197" y="1434" on="0"/>
        <pt x="236" y="1434" on="1"/>
        <pt x="1061" y="1434" on="1"/>
        <pt x="1288" y="1434" on="0"/>
        <pt x="1583" y="1188" on="0"/>
        <pt x="1583" y="979" on="1"/>
        <pt x="1583" y="688" on="0"/>
        <pt x="1206" y="614" on="1"/>
        <pt x="1313" y="573" on="0"/>
        <pt x="1434" y="383" on="1"/>
        <pt x="1616" y="94" on="1"/>
        <pt x="1632" y="68" on="0"/>
      </contour>
      <contour>
        <pt x="520" y="807" on="1"/>
        <pt x="946" y="807" on="1"/>
        <pt x="1049" y="807" on="0"/>
        <pt x="1206" y="889" on="0"/>
        <pt x="1206" y="1069" on="0"/>
        <pt x="1049" y="1151" on="0"/>
        <pt x="946" y="1151" on="1"/>
        <pt x="520" y="1151" on="1"/>
      </contour>
      <contour>
        <pt x="711" y="1661" on="1"/>
        <pt x="760" y="1849" on="1"/>
        <pt x="799" y="1964" on="0"/>
        <pt x="891" y="1964" on="1"/>
        <pt x="981" y="1964" on="1"/>
        <pt x="1047" y="1964" on="0"/>
        <pt x="1067" y="1921" on="1"/>
        <pt x="1075" y="1907" on="0"/>
        <pt x="1075" y="1860" on="0"/>
        <pt x="1055" y="1829" on="1"/>
        <pt x="946" y="1640" on="1"/>
        <pt x="891" y="1546" on="0"/>
        <pt x="823" y="1546" on="1"/>
        <pt x="776" y="1546" on="1"/>
        <pt x="702" y="1546" on="0"/>
        <pt x="702" y="1612" on="1"/>
        <pt x="702" y="1632" on="0"/>
      </contour>
    </TTGlyph>
    <TTGlyph name="Rcaron" xMin="143" yMin="0" xMax="1632" yMax="1839">
      <contour>
        <pt x="1632" y="43" on="1"/>
        <pt x="1632" y="0" on="0"/>
        <pt x="1581" y="0" on="1"/>
        <pt x="1341" y="0" on="1"/>
        <pt x="1303" y="0" on="0"/>
        <pt x="1212" y="55" on="0"/>
        <pt x="1188" y="94" on="1"/>
        <pt x="1018" y="360" on="1"/>
        <pt x="913" y="524" on="0"/>
        <pt x="764" y="524" on="1"/>
        <pt x="520" y="524" on="1"/>
        <pt x="520" y="94" on="1"/>
        <pt x="520" y="55" on="0"/>
        <pt x="465" y="0" on="0"/>
        <pt x="426" y="0" on="1"/>
        <pt x="238" y="0" on="1"/>
        <pt x="199" y="0" on="0"/>
        <pt x="143" y="55" on="0"/>
        <pt x="143" y="94" on="1"/>
        <pt x="143" y="1339" on="1"/>
        <pt x="143" y="1378" on="0"/>
        <pt x="197" y="1434" on="0"/>
        <pt x="236" y="1434" on="1"/>
        <pt x="1061" y="1434" on="1"/>
        <pt x="1290" y="1434" on="0"/>
        <pt x="1583" y="1188" on="0"/>
        <pt x="1583" y="979" on="1"/>
        <pt x="1583" y="688" on="0"/>
        <pt x="1206" y="614" on="1"/>
        <pt x="1266" y="592" on="0"/>
        <pt x="1368" y="485" on="0"/>
        <pt x="1434" y="383" on="1"/>
        <pt x="1616" y="94" on="1"/>
        <pt x="1632" y="66" on="0"/>
      </contour>
      <contour>
        <pt x="469" y="1808" on="1"/>
        <pt x="485" y="1839" on="0"/>
        <pt x="522" y="1839" on="1"/>
        <pt x="668" y="1839" on="1"/>
        <pt x="725" y="1839" on="0"/>
        <pt x="813" y="1755" on="1"/>
        <pt x="846" y="1724" on="1"/>
        <pt x="881" y="1755" on="1"/>
        <pt x="969" y="1839" on="0"/>
        <pt x="1026" y="1839" on="1"/>
        <pt x="1171" y="1839" on="1"/>
        <pt x="1208" y="1839" on="0"/>
        <pt x="1225" y="1808" on="1"/>
        <pt x="1231" y="1796" on="0"/>
        <pt x="1231" y="1767" on="0"/>
        <pt x="1212" y="1751" on="1"/>
        <pt x="1055" y="1608" on="1"/>
        <pt x="963" y="1520" on="0"/>
        <pt x="907" y="1520" on="1"/>
        <pt x="784" y="1520" on="1"/>
        <pt x="729" y="1520" on="0"/>
        <pt x="637" y="1608" on="1"/>
        <pt x="481" y="1751" on="1"/>
        <pt x="463" y="1767" on="0"/>
        <pt x="463" y="1796" on="0"/>
      </contour>
      <contour>
        <pt x="520" y="807" on="1"/>
        <pt x="946" y="807" on="1"/>
        <pt x="1049" y="807" on="0"/>
        <pt x="1206" y="889" on="0"/>
        <pt x="1206" y="1069" on="0"/>
        <pt x="1049" y="1151" on="0"/>
        <pt x="946" y="1151" on="1"/>
        <pt x="520" y="1151" on="1"/>
      </contour>
    </TTGlyph>
    <TTGlyph name="Rcommaaccent" xMin="143" yMin="-465" xMax="1632" yMax="1434">
      <contour>
        <pt x="1632" y="43" on="1"/>
        <pt x="1632" y="0" on="0"/>
        <pt x="1581" y="0" on="1"/>
        <pt x="1341" y="0" on="1"/>
        <pt x="1303" y="0" on="0"/>
        <pt x="1212" y="55" on="0"/>
        <pt x="1188" y="94" on="1"/>
        <pt x="1018" y="360" on="1"/>
        <pt x="913" y="524" on="0"/>
        <pt x="764" y="524" on="1"/>
        <pt x="520" y="524" on="1"/>
        <pt x="520" y="94" on="1"/>
        <pt x="520" y="55" on="0"/>
        <pt x="465" y="0" on="0"/>
        <pt x="426" y="0" on="1"/>
        <pt x="238" y="0" on="1"/>
        <pt x="199" y="0" on="0"/>
        <pt x="143" y="55" on="0"/>
        <pt x="143" y="94" on="1"/>
        <pt x="143" y="1339" on="1"/>
        <pt x="143" y="1378" on="0"/>
        <pt x="197" y="1434" on="0"/>
        <pt x="236" y="1434" on="1"/>
        <pt x="1061" y="1434" on="1"/>
        <pt x="1290" y="1434" on="0"/>
        <pt x="1583" y="1188" on="0"/>
        <pt x="1583" y="979" on="1"/>
        <pt x="1583" y="688" on="0"/>
        <pt x="1206" y="614" on="1"/>
        <pt x="1266" y="592" on="0"/>
        <pt x="1368" y="485" on="0"/>
        <pt x="1434" y="383" on="1"/>
        <pt x="1616" y="94" on="1"/>
        <pt x="1632" y="66" on="0"/>
      </contour>
      <contour>
        <pt x="520" y="807" on="1"/>
        <pt x="946" y="807" on="1"/>
        <pt x="1049" y="807" on="0"/>
        <pt x="1206" y="889" on="0"/>
        <pt x="1206" y="1069" on="0"/>
        <pt x="1049" y="1151" on="0"/>
        <pt x="946" y="1151" on="1"/>
        <pt x="520" y="1151" on="1"/>
      </contour>
      <contour>
        <pt x="705" y="-371" on="1"/>
        <pt x="709" y="-94" on="1"/>
        <pt x="709" y="-49" on="0"/>
        <pt x="764" y="20" on="0"/>
        <pt x="805" y="20" on="1"/>
        <pt x="885" y="20" on="1"/>
        <pt x="938" y="20" on="0"/>
        <pt x="967" y="-10" on="1"/>
        <pt x="987" y="-35" on="0"/>
        <pt x="987" y="-82" on="0"/>
        <pt x="985" y="-92" on="1"/>
        <pt x="915" y="-391" on="1"/>
        <pt x="899" y="-465" on="0"/>
        <pt x="815" y="-465" on="1"/>
        <pt x="786" y="-465" on="1"/>
        <pt x="743" y="-465" on="0"/>
        <pt x="705" y="-422" on="0"/>
      </contour>
    </TTGlyph>
    <TTGlyph name="S" xMin="61" yMin="-8" xMax="1534" yMax="1442">
      <contour>
        <pt x="61" y="367" on="1"/>
        <pt x="61" y="426" on="0"/>
        <pt x="131" y="477" on="0"/>
        <pt x="164" y="477" on="1"/>
        <pt x="283" y="477" on="1"/>
        <pt x="373" y="477" on="0"/>
        <pt x="467" y="281" on="0"/>
        <pt x="631" y="281" on="1"/>
        <pt x="981" y="274" on="1"/>
        <pt x="1157" y="274" on="0"/>
        <pt x="1157" y="389" on="1"/>
        <pt x="1157" y="476" on="0"/>
        <pt x="942" y="526" on="1"/>
        <pt x="846" y="549" on="0"/>
        <pt x="614" y="594" on="0"/>
        <pt x="385" y="662" on="0"/>
        <pt x="193" y="754" on="0"/>
        <pt x="74" y="915" on="0"/>
        <pt x="74" y="1024" on="1"/>
        <pt x="74" y="1225" on="0"/>
        <pt x="360" y="1442" on="0"/>
        <pt x="709" y="1442" on="1"/>
        <pt x="963" y="1436" on="1"/>
        <pt x="1168" y="1436" on="0"/>
        <pt x="1497" y="1225" on="0"/>
        <pt x="1497" y="1067" on="1"/>
        <pt x="1497" y="1008" on="0"/>
        <pt x="1427" y="956" on="0"/>
        <pt x="1395" y="956" on="1"/>
        <pt x="1276" y="956" on="1"/>
        <pt x="1186" y="956" on="0"/>
        <pt x="1092" y="1153" on="0"/>
        <pt x="928" y="1153" on="1"/>
        <pt x="627" y="1159" on="1"/>
        <pt x="451" y="1159" on="0"/>
        <pt x="451" y="1044" on="1"/>
        <pt x="451" y="981" on="0"/>
        <pt x="674" y="901" on="0"/>
        <pt x="991" y="840" on="0"/>
        <pt x="1311" y="754" on="0"/>
        <pt x="1534" y="557" on="0"/>
        <pt x="1534" y="410" on="1"/>
        <pt x="1534" y="209" on="0"/>
        <pt x="1247" y="-8" on="0"/>
        <pt x="899" y="-8" on="1"/>
        <pt x="596" y="-2" on="1"/>
        <pt x="391" y="-2" on="0"/>
        <pt x="61" y="209" on="0"/>
      </contour>
    </TTGlyph>
    <TTGlyph name="Scaron" xMin="61" yMin="-8" xMax="1534" yMax="1870">
      <contour>
        <pt x="61" y="367" on="1"/>
        <pt x="61" y="426" on="0"/>
        <pt x="131" y="477" on="0"/>
        <pt x="164" y="477" on="1"/>
        <pt x="283" y="477" on="1"/>
        <pt x="373" y="477" on="0"/>
        <pt x="467" y="281" on="0"/>
        <pt x="631" y="281" on="1"/>
        <pt x="981" y="274" on="1"/>
        <pt x="1157" y="274" on="0"/>
        <pt x="1157" y="389" on="1"/>
        <pt x="1157" y="476" on="0"/>
        <pt x="942" y="526" on="1"/>
        <pt x="846" y="549" on="0"/>
        <pt x="614" y="594" on="0"/>
        <pt x="385" y="662" on="0"/>
        <pt x="193" y="754" on="0"/>
        <pt x="74" y="915" on="0"/>
        <pt x="74" y="1024" on="1"/>
        <pt x="74" y="1225" on="0"/>
        <pt x="360" y="1442" on="0"/>
        <pt x="709" y="1442" on="1"/>
        <pt x="963" y="1436" on="1"/>
        <pt x="1168" y="1436" on="0"/>
        <pt x="1497" y="1225" on="0"/>
        <pt x="1497" y="1067" on="1"/>
        <pt x="1497" y="1008" on="0"/>
        <pt x="1427" y="956" on="0"/>
        <pt x="1395" y="956" on="1"/>
        <pt x="1276" y="956" on="1"/>
        <pt x="1186" y="956" on="0"/>
        <pt x="1092" y="1153" on="0"/>
        <pt x="928" y="1153" on="1"/>
        <pt x="627" y="1159" on="1"/>
        <pt x="451" y="1159" on="0"/>
        <pt x="451" y="1044" on="1"/>
        <pt x="451" y="981" on="0"/>
        <pt x="674" y="901" on="0"/>
        <pt x="991" y="840" on="0"/>
        <pt x="1311" y="754" on="0"/>
        <pt x="1534" y="557" on="0"/>
        <pt x="1534" y="410" on="1"/>
        <pt x="1534" y="209" on="0"/>
        <pt x="1247" y="-8" on="0"/>
        <pt x="899" y="-8" on="1"/>
        <pt x="596" y="-2" on="1"/>
        <pt x="391" y="-2" on="0"/>
        <pt x="61" y="209" on="0"/>
      </contour>
      <contour>
        <pt x="434" y="1840" on="1"/>
        <pt x="450" y="1870" on="0"/>
        <pt x="487" y="1870" on="1"/>
        <pt x="633" y="1870" on="1"/>
        <pt x="690" y="1870" on="0"/>
        <pt x="778" y="1786" on="1"/>
        <pt x="811" y="1755" on="1"/>
        <pt x="846" y="1786" on="1"/>
        <pt x="934" y="1870" on="0"/>
        <pt x="991" y="1870" on="1"/>
        <pt x="1137" y="1870" on="1"/>
        <pt x="1174" y="1870" on="0"/>
        <pt x="1190" y="1840" on="1"/>
        <pt x="1196" y="1829" on="0"/>
        <pt x="1196" y="1800" on="0"/>
        <pt x="1178" y="1782" on="1"/>
        <pt x="1020" y="1638" on="1"/>
        <pt x="928" y="1550" on="0"/>
        <pt x="872" y="1550" on="1"/>
        <pt x="750" y="1550" on="1"/>
        <pt x="695" y="1550" on="0"/>
        <pt x="602" y="1638" on="1"/>
        <pt x="446" y="1782" on="1"/>
        <pt x="428" y="1800" on="0"/>
        <pt x="428" y="1829" on="0"/>
      </contour>
    </TTGlyph>
    <TTGlyph name="T" xMin="20" yMin="0" xMax="1479" yMax="1434">
      <contour>
        <pt x="20" y="1245" on="1"/>
        <pt x="20" y="1339" on="1"/>
        <pt x="20" y="1380" on="0"/>
        <pt x="74" y="1434" on="0"/>
        <pt x="115" y="1434" on="1"/>
        <pt x="1384" y="1434" on="1"/>
        <pt x="1425" y="1434" on="0"/>
        <pt x="1479" y="1380" on="0"/>
        <pt x="1479" y="1339" on="1"/>
        <pt x="1479" y="1245" on="1"/>
        <pt x="1479" y="1204" on="0"/>
        <pt x="1425" y="1151" on="0"/>
        <pt x="1384" y="1151" on="1"/>
        <pt x="938" y="1151" on="1"/>
        <pt x="938" y="92" on="1"/>
        <pt x="938" y="53" on="0"/>
        <pt x="883" y="0" on="0"/>
        <pt x="844" y="0" on="1"/>
        <pt x="655" y="0" on="1"/>
        <pt x="616" y="0" on="0"/>
        <pt x="561" y="53" on="0"/>
        <pt x="561" y="92" on="1"/>
        <pt x="561" y="1151" on="1"/>
        <pt x="115" y="1151" on="1"/>
        <pt x="74" y="1151" on="0"/>
        <pt x="20" y="1204" on="0"/>
      </contour>
    </TTGlyph>
    <TTGlyph name="Tcaron" xMin="20" yMin="0" xMax="1479" yMax="1829">
      <contour>
        <pt x="20" y="1245" on="1"/>
        <pt x="20" y="1339" on="1"/>
        <pt x="20" y="1380" on="0"/>
        <pt x="74" y="1434" on="0"/>
        <pt x="115" y="1434" on="1"/>
        <pt x="1384" y="1434" on="1"/>
        <pt x="1425" y="1434" on="0"/>
        <pt x="1479" y="1380" on="0"/>
        <pt x="1479" y="1339" on="1"/>
        <pt x="1479" y="1245" on="1"/>
        <pt x="1479" y="1204" on="0"/>
        <pt x="1425" y="1151" on="0"/>
        <pt x="1384" y="1151" on="1"/>
        <pt x="938" y="1151" on="1"/>
        <pt x="938" y="92" on="1"/>
        <pt x="938" y="53" on="0"/>
        <pt x="883" y="0" on="0"/>
        <pt x="844" y="0" on="1"/>
        <pt x="655" y="0" on="1"/>
        <pt x="616" y="0" on="0"/>
        <pt x="561" y="53" on="0"/>
        <pt x="561" y="92" on="1"/>
        <pt x="561" y="1151" on="1"/>
        <pt x="115" y="1151" on="1"/>
        <pt x="74" y="1151" on="0"/>
        <pt x="20" y="1204" on="0"/>
      </contour>
      <contour>
        <pt x="383" y="1799" on="1"/>
        <pt x="399" y="1829" on="0"/>
        <pt x="436" y="1829" on="1"/>
        <pt x="582" y="1829" on="1"/>
        <pt x="639" y="1829" on="0"/>
        <pt x="727" y="1745" on="1"/>
        <pt x="760" y="1714" on="1"/>
        <pt x="795" y="1745" on="1"/>
        <pt x="883" y="1829" on="0"/>
        <pt x="940" y="1829" on="1"/>
        <pt x="1085" y="1829" on="1"/>
        <pt x="1122" y="1829" on="0"/>
        <pt x="1139" y="1799" on="1"/>
        <pt x="1145" y="1788" on="0"/>
        <pt x="1145" y="1759" on="0"/>
        <pt x="1126" y="1741" on="1"/>
        <pt x="969" y="1597" on="1"/>
        <pt x="877" y="1509" on="0"/>
        <pt x="821" y="1509" on="1"/>
        <pt x="698" y="1509" on="1"/>
        <pt x="643" y="1509" on="0"/>
        <pt x="551" y="1597" on="1"/>
        <pt x="395" y="1741" on="1"/>
        <pt x="377" y="1759" on="0"/>
        <pt x="377" y="1788" on="0"/>
      </contour>
    </TTGlyph>
    <TTGlyph name="Thorn" xMin="143" yMin="-63" xMax="1491" yMax="1497">
      <contour>
        <pt x="143" y="31" on="1"/>
        <pt x="143" y="1403" on="1"/>
        <pt x="143" y="1442" on="0"/>
        <pt x="199" y="1497" on="0"/>
        <pt x="240" y="1497" on="1"/>
        <pt x="424" y="1497" on="1"/>
        <pt x="465" y="1497" on="0"/>
        <pt x="520" y="1442" on="0"/>
        <pt x="520" y="1403" on="1"/>
        <pt x="520" y="1305" on="1"/>
        <pt x="717" y="1305" on="1"/>
        <pt x="1491" y="1305" on="0"/>
        <pt x="1491" y="129" on="0"/>
        <pt x="717" y="129" on="1"/>
        <pt x="520" y="129" on="1"/>
        <pt x="520" y="31" on="1"/>
        <pt x="520" y="-8" on="0"/>
        <pt x="463" y="-63" on="0"/>
        <pt x="424" y="-63" on="1"/>
        <pt x="240" y="-63" on="1"/>
        <pt x="201" y="-63" on="0"/>
        <pt x="143" y="-8" on="0"/>
      </contour>
      <contour>
        <pt x="510" y="399" on="1"/>
        <pt x="715" y="399" on="1"/>
        <pt x="912" y="399" on="0"/>
        <pt x="1114" y="545" on="0"/>
        <pt x="1114" y="889" on="0"/>
        <pt x="911" y="1034" on="0"/>
        <pt x="715" y="1034" on="1"/>
        <pt x="510" y="1034" on="1"/>
      </contour>
    </TTGlyph>
    <TTGlyph name="U" xMin="123" yMin="-8" xMax="1565" yMax="1434">
      <contour>
        <pt x="123" y="567" on="1"/>
        <pt x="123" y="1339" on="1"/>
        <pt x="123" y="1378" on="0"/>
        <pt x="178" y="1434" on="0"/>
        <pt x="219" y="1434" on="1"/>
        <pt x="406" y="1434" on="1"/>
        <pt x="444" y="1434" on="0"/>
        <pt x="500" y="1378" on="0"/>
        <pt x="500" y="1339" on="1"/>
        <pt x="500" y="565" on="1"/>
        <pt x="500" y="418" on="0"/>
        <pt x="629" y="274" on="0"/>
        <pt x="764" y="274" on="1"/>
        <pt x="924" y="274" on="1"/>
        <pt x="1059" y="274" on="0"/>
        <pt x="1188" y="418" on="0"/>
        <pt x="1188" y="565" on="1"/>
        <pt x="1188" y="1339" on="1"/>
        <pt x="1188" y="1378" on="0"/>
        <pt x="1243" y="1434" on="0"/>
        <pt x="1282" y="1434" on="1"/>
        <pt x="1468" y="1434" on="1"/>
        <pt x="1509" y="1434" on="0"/>
        <pt x="1565" y="1378" on="0"/>
        <pt x="1565" y="1339" on="1"/>
        <pt x="1565" y="567" on="1"/>
        <pt x="1565" y="293" on="0"/>
        <pt x="1243" y="-8" on="0"/>
        <pt x="934" y="-8" on="1"/>
        <pt x="754" y="-8" on="1"/>
        <pt x="444" y="-8" on="0"/>
        <pt x="123" y="293" on="0"/>
      </contour>
    </TTGlyph>
    <TTGlyph name="Uacute" xMin="123" yMin="-8" xMax="1565" yMax="1923">
      <contour>
        <pt x="123" y="567" on="1"/>
        <pt x="123" y="1339" on="1"/>
        <pt x="123" y="1378" on="0"/>
        <pt x="178" y="1434" on="0"/>
        <pt x="219" y="1434" on="1"/>
        <pt x="406" y="1434" on="1"/>
        <pt x="444" y="1434" on="0"/>
        <pt x="500" y="1378" on="0"/>
        <pt x="500" y="1339" on="1"/>
        <pt x="500" y="565" on="1"/>
        <pt x="500" y="274" on="0"/>
        <pt x="764" y="274" on="1"/>
        <pt x="924" y="274" on="1"/>
        <pt x="1188" y="274" on="0"/>
        <pt x="1188" y="565" on="1"/>
        <pt x="1188" y="1339" on="1"/>
        <pt x="1188" y="1378" on="0"/>
        <pt x="1243" y="1434" on="0"/>
        <pt x="1282" y="1434" on="1"/>
        <pt x="1468" y="1434" on="1"/>
        <pt x="1509" y="1434" on="0"/>
        <pt x="1565" y="1378" on="0"/>
        <pt x="1565" y="1339" on="1"/>
        <pt x="1565" y="567" on="1"/>
        <pt x="1565" y="295" on="0"/>
        <pt x="1407" y="143" on="1"/>
        <pt x="1243" y="-8" on="0"/>
        <pt x="934" y="-8" on="1"/>
        <pt x="754" y="-8" on="1"/>
        <pt x="446" y="-8" on="0"/>
        <pt x="283" y="143" on="1"/>
        <pt x="123" y="295" on="0"/>
      </contour>
      <contour>
        <pt x="752" y="1620" on="1"/>
        <pt x="801" y="1808" on="1"/>
        <pt x="840" y="1923" on="0"/>
        <pt x="932" y="1923" on="1"/>
        <pt x="1022" y="1923" on="1"/>
        <pt x="1087" y="1923" on="0"/>
        <pt x="1108" y="1880" on="1"/>
        <pt x="1116" y="1866" on="0"/>
        <pt x="1116" y="1819" on="0"/>
        <pt x="1096" y="1788" on="1"/>
        <pt x="987" y="1599" on="1"/>
        <pt x="932" y="1505" on="0"/>
        <pt x="864" y="1505" on="1"/>
        <pt x="817" y="1505" on="1"/>
        <pt x="743" y="1505" on="0"/>
        <pt x="743" y="1571" on="1"/>
        <pt x="743" y="1591" on="0"/>
      </contour>
    </TTGlyph>
    <TTGlyph name="Ucircumflex" xMin="123" yMin="-8" xMax="1565" yMax="1819">
      <contour>
        <pt x="123" y="567" on="1"/>
        <pt x="123" y="1339" on="1"/>
        <pt x="123" y="1378" on="0"/>
        <pt x="178" y="1434" on="0"/>
        <pt x="219" y="1434" on="1"/>
        <pt x="406" y="1434" on="1"/>
        <pt x="444" y="1434" on="0"/>
        <pt x="500" y="1378" on="0"/>
        <pt x="500" y="1339" on="1"/>
        <pt x="500" y="565" on="1"/>
        <pt x="500" y="418" on="0"/>
        <pt x="629" y="274" on="0"/>
        <pt x="764" y="274" on="1"/>
        <pt x="924" y="274" on="1"/>
        <pt x="1059" y="274" on="0"/>
        <pt x="1188" y="418" on="0"/>
        <pt x="1188" y="565" on="1"/>
        <pt x="1188" y="1339" on="1"/>
        <pt x="1188" y="1378" on="0"/>
        <pt x="1243" y="1434" on="0"/>
        <pt x="1282" y="1434" on="1"/>
        <pt x="1468" y="1434" on="1"/>
        <pt x="1509" y="1434" on="0"/>
        <pt x="1565" y="1378" on="0"/>
        <pt x="1565" y="1339" on="1"/>
        <pt x="1565" y="567" on="1"/>
        <pt x="1565" y="293" on="0"/>
        <pt x="1243" y="-8" on="0"/>
        <pt x="934" y="-8" on="1"/>
        <pt x="754" y="-8" on="1"/>
        <pt x="444" y="-8" on="0"/>
        <pt x="123" y="293" on="0"/>
      </contour>
      <contour>
        <pt x="465" y="1530" on="1"/>
        <pt x="459" y="1540" on="0"/>
        <pt x="459" y="1571" on="0"/>
        <pt x="477" y="1587" on="1"/>
        <pt x="633" y="1731" on="1"/>
        <pt x="725" y="1819" on="0"/>
        <pt x="780" y="1819" on="1"/>
        <pt x="903" y="1819" on="1"/>
        <pt x="958" y="1819" on="0"/>
        <pt x="1051" y="1731" on="1"/>
        <pt x="1208" y="1587" on="1"/>
        <pt x="1227" y="1571" on="0"/>
        <pt x="1227" y="1540" on="0"/>
        <pt x="1221" y="1530" on="1"/>
        <pt x="1204" y="1499" on="0"/>
        <pt x="1167" y="1499" on="1"/>
        <pt x="1022" y="1499" on="1"/>
        <pt x="965" y="1499" on="0"/>
        <pt x="877" y="1583" on="1"/>
        <pt x="842" y="1614" on="1"/>
        <pt x="809" y="1583" on="1"/>
        <pt x="721" y="1499" on="0"/>
        <pt x="664" y="1499" on="1"/>
        <pt x="518" y="1499" on="1"/>
        <pt x="481" y="1499" on="0"/>
      </contour>
    </TTGlyph>
    <TTGlyph name="Udieresis" xMin="123" yMin="-8" xMax="1565" yMax="1808">
      <contour>
        <pt x="123" y="567" on="1"/>
        <pt x="123" y="1339" on="1"/>
        <pt x="123" y="1378" on="0"/>
        <pt x="178" y="1434" on="0"/>
        <pt x="219" y="1434" on="1"/>
        <pt x="406" y="1434" on="1"/>
        <pt x="444" y="1434" on="0"/>
        <pt x="500" y="1378" on="0"/>
        <pt x="500" y="1339" on="1"/>
        <pt x="500" y="565" on="1"/>
        <pt x="500" y="274" on="0"/>
        <pt x="764" y="274" on="1"/>
        <pt x="924" y="274" on="1"/>
        <pt x="1188" y="274" on="0"/>
        <pt x="1188" y="565" on="1"/>
        <pt x="1188" y="1339" on="1"/>
        <pt x="1188" y="1378" on="0"/>
        <pt x="1243" y="1434" on="0"/>
        <pt x="1282" y="1434" on="1"/>
        <pt x="1468" y="1434" on="1"/>
        <pt x="1509" y="1434" on="0"/>
        <pt x="1565" y="1378" on="0"/>
        <pt x="1565" y="1339" on="1"/>
        <pt x="1565" y="567" on="1"/>
        <pt x="1565" y="295" on="0"/>
        <pt x="1407" y="143" on="1"/>
        <pt x="1243" y="-8" on="0"/>
        <pt x="934" y="-8" on="1"/>
        <pt x="754" y="-8" on="1"/>
        <pt x="446" y="-8" on="0"/>
        <pt x="283" y="143" on="1"/>
        <pt x="123" y="295" on="0"/>
      </contour>
      <contour>
        <pt x="436" y="1655" on="1"/>
        <pt x="436" y="1694" on="1"/>
        <pt x="436" y="1808" on="0"/>
        <pt x="551" y="1808" on="1"/>
        <pt x="647" y="1808" on="1"/>
        <pt x="762" y="1808" on="0"/>
        <pt x="762" y="1694" on="1"/>
        <pt x="762" y="1655" on="1"/>
        <pt x="762" y="1540" on="0"/>
        <pt x="647" y="1540" on="1"/>
        <pt x="551" y="1540" on="1"/>
        <pt x="436" y="1540" on="0"/>
      </contour>
      <contour>
        <pt x="938" y="1655" on="1"/>
        <pt x="938" y="1694" on="1"/>
        <pt x="938" y="1808" on="0"/>
        <pt x="1053" y="1808" on="1"/>
        <pt x="1149" y="1808" on="1"/>
        <pt x="1264" y="1808" on="0"/>
        <pt x="1264" y="1694" on="1"/>
        <pt x="1264" y="1655" on="1"/>
        <pt x="1264" y="1540" on="0"/>
        <pt x="1149" y="1540" on="1"/>
        <pt x="1053" y="1540" on="1"/>
        <pt x="938" y="1540" on="0"/>
      </contour>
    </TTGlyph>
    <TTGlyph name="Ugrave" xMin="123" yMin="-8" xMax="1565" yMax="1923">
      <contour>
        <pt x="123" y="567" on="1"/>
        <pt x="123" y="1339" on="1"/>
        <pt x="123" y="1378" on="0"/>
        <pt x="178" y="1434" on="0"/>
        <pt x="219" y="1434" on="1"/>
        <pt x="406" y="1434" on="1"/>
        <pt x="444" y="1434" on="0"/>
        <pt x="500" y="1378" on="0"/>
        <pt x="500" y="1339" on="1"/>
        <pt x="500" y="565" on="1"/>
        <pt x="500" y="274" on="0"/>
        <pt x="764" y="274" on="1"/>
        <pt x="924" y="274" on="1"/>
        <pt x="1188" y="274" on="0"/>
        <pt x="1188" y="565" on="1"/>
        <pt x="1188" y="1339" on="1"/>
        <pt x="1188" y="1378" on="0"/>
        <pt x="1243" y="1434" on="0"/>
        <pt x="1282" y="1434" on="1"/>
        <pt x="1468" y="1434" on="1"/>
        <pt x="1509" y="1434" on="0"/>
        <pt x="1565" y="1378" on="0"/>
        <pt x="1565" y="1339" on="1"/>
        <pt x="1565" y="567" on="1"/>
        <pt x="1565" y="295" on="0"/>
        <pt x="1407" y="143" on="1"/>
        <pt x="1243" y="-8" on="0"/>
        <pt x="934" y="-8" on="1"/>
        <pt x="754" y="-8" on="1"/>
        <pt x="446" y="-8" on="0"/>
        <pt x="283" y="143" on="1"/>
        <pt x="123" y="295" on="0"/>
      </contour>
      <contour>
        <pt x="594" y="1880" on="1"/>
        <pt x="614" y="1923" on="0"/>
        <pt x="680" y="1923" on="1"/>
        <pt x="770" y="1923" on="1"/>
        <pt x="862" y="1923" on="0"/>
        <pt x="901" y="1808" on="1"/>
        <pt x="950" y="1620" on="1"/>
        <pt x="958" y="1591" on="0"/>
        <pt x="958" y="1571" on="1"/>
        <pt x="958" y="1505" on="0"/>
        <pt x="885" y="1505" on="1"/>
        <pt x="838" y="1505" on="1"/>
        <pt x="770" y="1505" on="0"/>
        <pt x="715" y="1599" on="1"/>
        <pt x="606" y="1788" on="1"/>
        <pt x="586" y="1821" on="0"/>
        <pt x="586" y="1866" on="0"/>
      </contour>
    </TTGlyph>
    <TTGlyph name="Uring" xMin="123" yMin="-8" xMax="1565" yMax="1958">
      <contour>
        <pt x="123" y="567" on="1"/>
        <pt x="123" y="1339" on="1"/>
        <pt x="123" y="1378" on="0"/>
        <pt x="178" y="1434" on="0"/>
        <pt x="219" y="1434" on="1"/>
        <pt x="406" y="1434" on="1"/>
        <pt x="444" y="1434" on="0"/>
        <pt x="500" y="1378" on="0"/>
        <pt x="500" y="1339" on="1"/>
        <pt x="500" y="565" on="1"/>
        <pt x="500" y="274" on="0"/>
        <pt x="764" y="274" on="1"/>
        <pt x="924" y="274" on="1"/>
        <pt x="1188" y="274" on="0"/>
        <pt x="1188" y="565" on="1"/>
        <pt x="1188" y="1339" on="1"/>
        <pt x="1188" y="1378" on="0"/>
        <pt x="1243" y="1434" on="0"/>
        <pt x="1282" y="1434" on="1"/>
        <pt x="1468" y="1434" on="1"/>
        <pt x="1509" y="1434" on="0"/>
        <pt x="1565" y="1378" on="0"/>
        <pt x="1565" y="1339" on="1"/>
        <pt x="1565" y="567" on="1"/>
        <pt x="1565" y="295" on="0"/>
        <pt x="1407" y="143" on="1"/>
        <pt x="1243" y="-8" on="0"/>
        <pt x="934" y="-8" on="1"/>
        <pt x="754" y="-8" on="1"/>
        <pt x="446" y="-8" on="0"/>
        <pt x="283" y="143" on="1"/>
        <pt x="123" y="295" on="0"/>
      </contour>
      <contour>
        <pt x="1055" y="1888" on="1"/>
        <pt x="1137" y="1819" on="0"/>
        <pt x="1137" y="1569" on="0"/>
        <pt x="979" y="1425" on="0"/>
        <pt x="735" y="1425" on="0"/>
        <pt x="578" y="1569" on="0"/>
        <pt x="578" y="1819" on="0"/>
        <pt x="659" y="1888" on="1"/>
        <pt x="735" y="1958" on="0"/>
        <pt x="979" y="1958" on="0"/>
      </contour>
      <contour>
        <pt x="750" y="1825" on="0"/>
        <pt x="750" y="1559" on="0"/>
        <pt x="965" y="1559" on="0"/>
        <pt x="965" y="1825" on="0"/>
      </contour>
    </TTGlyph>
    <TTGlyph name="V" xMin="21" yMin="0" xMax="1613" yMax="1434">
      <contour>
        <pt x="27" y="1350" on="1"/>
        <pt x="21" y="1362" on="0"/>
        <pt x="21" y="1391" on="0"/>
        <pt x="58" y="1434" on="0"/>
        <pt x="92" y="1434" on="1"/>
        <pt x="311" y="1434" on="1"/>
        <pt x="389" y="1434" on="0"/>
        <pt x="430" y="1339" on="1"/>
        <pt x="817" y="477" on="1"/>
        <pt x="1204" y="1339" on="1"/>
        <pt x="1245" y="1433" on="0"/>
        <pt x="1323" y="1434" on="1"/>
        <pt x="1542" y="1434" on="1"/>
        <pt x="1577" y="1434" on="0"/>
        <pt x="1613" y="1391" on="0"/>
        <pt x="1613" y="1362" on="0"/>
        <pt x="1608" y="1350" on="1"/>
        <pt x="1032" y="102" on="1"/>
        <pt x="985" y="0" on="0"/>
        <pt x="889" y="0" on="1"/>
        <pt x="745" y="0" on="1"/>
        <pt x="649" y="0" on="0"/>
        <pt x="602" y="102" on="1"/>
      </contour>
    </TTGlyph>
    <TTGlyph name="W" xMin="20" yMin="0" xMax="2273" yMax="1434">
      <contour>
        <pt x="25" y="1350" on="1"/>
        <pt x="20" y="1362" on="0"/>
        <pt x="20" y="1393" on="0"/>
        <pt x="55" y="1434" on="0"/>
        <pt x="90" y="1434" on="1"/>
        <pt x="309" y="1434" on="1"/>
        <pt x="348" y="1434" on="0"/>
        <pt x="414" y="1380" on="0"/>
        <pt x="428" y="1339" on="1"/>
        <pt x="692" y="547" on="1"/>
        <pt x="936" y="1339" on="1"/>
        <pt x="965" y="1434" on="0"/>
        <pt x="1055" y="1434" on="1"/>
        <pt x="1239" y="1434" on="1"/>
        <pt x="1329" y="1434" on="0"/>
        <pt x="1358" y="1339" on="1"/>
        <pt x="1602" y="547" on="1"/>
        <pt x="1866" y="1339" on="1"/>
        <pt x="1880" y="1380" on="0"/>
        <pt x="1946" y="1434" on="0"/>
        <pt x="1985" y="1434" on="1"/>
        <pt x="2204" y="1434" on="1"/>
        <pt x="2238" y="1434" on="0"/>
        <pt x="2273" y="1393" on="0"/>
        <pt x="2273" y="1362" on="0"/>
        <pt x="2269" y="1350" on="1"/>
        <pt x="1823" y="102" on="1"/>
        <pt x="1786" y="0" on="0"/>
        <pt x="1679" y="0" on="1"/>
        <pt x="1534" y="0" on="1"/>
        <pt x="1423" y="0" on="0"/>
        <pt x="1391" y="102" on="1"/>
        <pt x="1147" y="872" on="1"/>
        <pt x="903" y="102" on="1"/>
        <pt x="870" y="0" on="0"/>
        <pt x="760" y="0" on="1"/>
        <pt x="614" y="0" on="1"/>
        <pt x="508" y="0" on="0"/>
        <pt x="471" y="102" on="1"/>
      </contour>
    </TTGlyph>
    <TTGlyph name="X" xMin="20" yMin="0" xMax="1516" yMax="1434">
      <contour>
        <pt x="76" y="0" on="1"/>
        <pt x="26" y="0" on="0"/>
        <pt x="20" y="45" on="1"/>
        <pt x="20" y="67" on="0"/>
        <pt x="41" y="94" on="1"/>
        <pt x="545" y="737" on="1"/>
        <pt x="70" y="1339" on="1"/>
        <pt x="49" y="1365" on="0"/>
        <pt x="49" y="1388" on="1"/>
        <pt x="49" y="1434" on="0"/>
        <pt x="104" y="1434" on="1"/>
        <pt x="319" y="1434" on="1"/>
        <pt x="419" y="1434" on="0"/>
        <pt x="494" y="1339" on="1"/>
        <pt x="768" y="991" on="1"/>
        <pt x="1042" y="1339" on="1"/>
        <pt x="1116" y="1433" on="0"/>
        <pt x="1217" y="1434" on="1"/>
        <pt x="1432" y="1434" on="1"/>
        <pt x="1487" y="1434" on="0"/>
        <pt x="1487" y="1388" on="1"/>
        <pt x="1487" y="1366" on="0"/>
        <pt x="1466" y="1339" on="1"/>
        <pt x="991" y="737" on="1"/>
        <pt x="1495" y="94" on="1"/>
        <pt x="1516" y="68" on="0"/>
        <pt x="1516" y="36" on="0"/>
        <pt x="1512" y="29" on="1"/>
        <pt x="1501" y="0" on="0"/>
        <pt x="1460" y="0" on="1"/>
        <pt x="1247" y="0" on="1"/>
        <pt x="1147" y="0" on="0"/>
        <pt x="1073" y="94" on="1"/>
        <pt x="768" y="483" on="1"/>
        <pt x="463" y="94" on="1"/>
        <pt x="389" y="0" on="0"/>
        <pt x="289" y="0" on="1"/>
      </contour>
    </TTGlyph>
    <TTGlyph name="Y" xMin="20" yMin="0" xMax="1499" yMax="1434">
      <contour>
        <pt x="20" y="1386" on="1"/>
        <pt x="20" y="1434" on="0"/>
        <pt x="72" y="1434" on="1"/>
        <pt x="262" y="1434" on="1"/>
        <pt x="375" y="1434" on="0"/>
        <pt x="436" y="1339" on="1"/>
        <pt x="760" y="840" on="1"/>
        <pt x="1083" y="1339" on="1"/>
        <pt x="1145" y="1434" on="0"/>
        <pt x="1257" y="1434" on="1"/>
        <pt x="1448" y="1434" on="1"/>
        <pt x="1499" y="1434" on="0"/>
        <pt x="1499" y="1386" on="1"/>
        <pt x="1499" y="1364" on="0"/>
        <pt x="1483" y="1339" on="1"/>
        <pt x="948" y="512" on="1"/>
        <pt x="948" y="92" on="1"/>
        <pt x="948" y="53" on="0"/>
        <pt x="893" y="0" on="0"/>
        <pt x="854" y="0" on="1"/>
        <pt x="666" y="0" on="1"/>
        <pt x="627" y="0" on="0"/>
        <pt x="571" y="53" on="0"/>
        <pt x="571" y="92" on="1"/>
        <pt x="571" y="512" on="1"/>
        <pt x="37" y="1339" on="1"/>
        <pt x="20" y="1364" on="0"/>
      </contour>
    </TTGlyph>
    <TTGlyph name="Yacute" xMin="20" yMin="0" xMax="1499" yMax="1964">
      <contour>
        <pt x="1448" y="1434" on="1"/>
        <pt x="1499" y="1434" on="0"/>
        <pt x="1499" y="1386" on="1"/>
        <pt x="1499" y="1366" on="0"/>
        <pt x="1483" y="1339" on="1"/>
        <pt x="948" y="512" on="1"/>
        <pt x="948" y="92" on="1"/>
        <pt x="948" y="53" on="0"/>
        <pt x="895" y="0" on="0"/>
        <pt x="854" y="0" on="1"/>
        <pt x="666" y="0" on="1"/>
        <pt x="627" y="0" on="0"/>
        <pt x="571" y="55" on="0"/>
        <pt x="571" y="92" on="1"/>
        <pt x="571" y="512" on="1"/>
        <pt x="37" y="1339" on="1"/>
        <pt x="23" y="1364" on="0"/>
        <pt x="20" y="1386" on="1"/>
        <pt x="23" y="1397" on="0"/>
        <pt x="25" y="1405" on="1"/>
        <pt x="35" y="1434" on="0"/>
        <pt x="72" y="1434" on="1"/>
        <pt x="262" y="1434" on="1"/>
        <pt x="375" y="1434" on="0"/>
        <pt x="436" y="1339" on="1"/>
        <pt x="760" y="840" on="1"/>
        <pt x="1083" y="1339" on="1"/>
        <pt x="1145" y="1434" on="0"/>
        <pt x="1257" y="1434" on="1"/>
      </contour>
      <contour>
        <pt x="705" y="1661" on="1"/>
        <pt x="754" y="1849" on="1"/>
        <pt x="793" y="1964" on="0"/>
        <pt x="885" y="1964" on="1"/>
        <pt x="975" y="1964" on="1"/>
        <pt x="1040" y="1964" on="0"/>
        <pt x="1061" y="1921" on="1"/>
        <pt x="1069" y="1907" on="0"/>
        <pt x="1069" y="1860" on="0"/>
        <pt x="1049" y="1829" on="1"/>
        <pt x="940" y="1640" on="1"/>
        <pt x="885" y="1546" on="0"/>
        <pt x="817" y="1546" on="1"/>
        <pt x="770" y="1546" on="1"/>
        <pt x="696" y="1546" on="0"/>
        <pt x="696" y="1612" on="1"/>
        <pt x="696" y="1632" on="0"/>
      </contour>
    </TTGlyph>
    <TTGlyph name="Ydieresis" xMin="20" yMin="0" xMax="1499" yMax="1772">
      <contour>
        <pt x="20" y="1386" on="1"/>
        <pt x="20" y="1434" on="0"/>
        <pt x="72" y="1434" on="1"/>
        <pt x="262" y="1434" on="1"/>
        <pt x="375" y="1434" on="0"/>
        <pt x="436" y="1339" on="1"/>
        <pt x="760" y="840" on="1"/>
        <pt x="1083" y="1339" on="1"/>
        <pt x="1145" y="1434" on="0"/>
        <pt x="1257" y="1434" on="1"/>
        <pt x="1448" y="1434" on="1"/>
        <pt x="1499" y="1434" on="0"/>
        <pt x="1499" y="1386" on="1"/>
        <pt x="1499" y="1364" on="0"/>
        <pt x="1483" y="1339" on="1"/>
        <pt x="948" y="512" on="1"/>
        <pt x="948" y="92" on="1"/>
        <pt x="948" y="53" on="0"/>
        <pt x="893" y="0" on="0"/>
        <pt x="854" y="0" on="1"/>
        <pt x="666" y="0" on="1"/>
        <pt x="627" y="0" on="0"/>
        <pt x="571" y="53" on="0"/>
        <pt x="571" y="92" on="1"/>
        <pt x="571" y="512" on="1"/>
        <pt x="37" y="1339" on="1"/>
        <pt x="20" y="1364" on="0"/>
      </contour>
      <contour>
        <pt x="346" y="1618" on="1"/>
        <pt x="346" y="1657" on="1"/>
        <pt x="346" y="1710" on="0"/>
        <pt x="408" y="1772" on="0"/>
        <pt x="461" y="1772" on="1"/>
        <pt x="557" y="1772" on="1"/>
        <pt x="610" y="1772" on="0"/>
        <pt x="672" y="1710" on="0"/>
        <pt x="672" y="1657" on="1"/>
        <pt x="672" y="1618" on="1"/>
        <pt x="672" y="1565" on="0"/>
        <pt x="610" y="1503" on="0"/>
        <pt x="557" y="1503" on="1"/>
        <pt x="461" y="1503" on="1"/>
        <pt x="408" y="1503" on="0"/>
        <pt x="346" y="1565" on="0"/>
      </contour>
      <contour>
        <pt x="848" y="1618" on="1"/>
        <pt x="848" y="1657" on="1"/>
        <pt x="848" y="1710" on="0"/>
        <pt x="909" y="1772" on="0"/>
        <pt x="963" y="1772" on="1"/>
        <pt x="1059" y="1772" on="1"/>
        <pt x="1112" y="1772" on="0"/>
        <pt x="1174" y="1710" on="0"/>
        <pt x="1174" y="1657" on="1"/>
        <pt x="1174" y="1618" on="1"/>
        <pt x="1174" y="1565" on="0"/>
        <pt x="1112" y="1503" on="0"/>
        <pt x="1059" y="1503" on="1"/>
        <pt x="963" y="1503" on="1"/>
        <pt x="909" y="1503" on="0"/>
        <pt x="848" y="1565" on="0"/>
      </contour>
    </TTGlyph>
    <TTGlyph name="Z" xMin="51" yMin="0" xMax="1417" yMax="1434">
      <contour>
        <pt x="51" y="1245" on="1"/>
        <pt x="51" y="1339" on="1"/>
        <pt x="51" y="1380" on="0"/>
        <pt x="106" y="1434" on="0"/>
        <pt x="145" y="1434" on="1"/>
        <pt x="1313" y="1434" on="1"/>
        <pt x="1352" y="1434" on="0"/>
        <pt x="1407" y="1380" on="0"/>
        <pt x="1407" y="1339" on="1"/>
        <pt x="1407" y="1227" on="1"/>
        <pt x="1407" y="1186" on="0"/>
        <pt x="1372" y="1110" on="0"/>
        <pt x="1357" y="1094" on="1"/>
        <pt x="1313" y="1049" on="1"/>
        <pt x="526" y="283" on="1"/>
        <pt x="1323" y="283" on="1"/>
        <pt x="1364" y="283" on="0"/>
        <pt x="1417" y="229" on="0"/>
        <pt x="1417" y="188" on="1"/>
        <pt x="1417" y="94" on="1"/>
        <pt x="1417" y="53" on="0"/>
        <pt x="1364" y="0" on="0"/>
        <pt x="1323" y="0" on="1"/>
        <pt x="162" y="0" on="1"/>
        <pt x="123" y="0" on="0"/>
        <pt x="68" y="53" on="0"/>
        <pt x="68" y="94" on="1"/>
        <pt x="68" y="205" on="1"/>
        <pt x="68" y="301" on="0"/>
        <pt x="162" y="395" on="1"/>
        <pt x="924" y="1151" on="1"/>
        <pt x="145" y="1151" on="1"/>
        <pt x="106" y="1151" on="0"/>
        <pt x="51" y="1204" on="0"/>
      </contour>
    </TTGlyph>
    <TTGlyph name="Zcaron" xMin="51" yMin="0" xMax="1417" yMax="1903">
      <contour>
        <pt x="51" y="1245" on="1"/>
        <pt x="51" y="1339" on="1"/>
        <pt x="51" y="1380" on="0"/>
        <pt x="106" y="1434" on="0"/>
        <pt x="145" y="1434" on="1"/>
        <pt x="1313" y="1434" on="1"/>
        <pt x="1352" y="1434" on="0"/>
        <pt x="1407" y="1380" on="0"/>
        <pt x="1407" y="1339" on="1"/>
        <pt x="1407" y="1227" on="1"/>
        <pt x="1407" y="1186" on="0"/>
        <pt x="1372" y="1110" on="0"/>
        <pt x="1357" y="1094" on="1"/>
        <pt x="1313" y="1049" on="1"/>
        <pt x="526" y="283" on="1"/>
        <pt x="1323" y="283" on="1"/>
        <pt x="1364" y="283" on="0"/>
        <pt x="1417" y="229" on="0"/>
        <pt x="1417" y="188" on="1"/>
        <pt x="1417" y="94" on="1"/>
        <pt x="1417" y="53" on="0"/>
        <pt x="1364" y="0" on="0"/>
        <pt x="1323" y="0" on="1"/>
        <pt x="162" y="0" on="1"/>
        <pt x="123" y="0" on="0"/>
        <pt x="68" y="53" on="0"/>
        <pt x="68" y="94" on="1"/>
        <pt x="68" y="205" on="1"/>
        <pt x="68" y="301" on="0"/>
        <pt x="162" y="395" on="1"/>
        <pt x="924" y="1151" on="1"/>
        <pt x="145" y="1151" on="1"/>
        <pt x="106" y="1151" on="0"/>
        <pt x="51" y="1204" on="0"/>
      </contour>
      <contour>
        <pt x="406" y="1903" on="1"/>
        <pt x="551" y="1903" on="1"/>
        <pt x="608" y="1903" on="0"/>
        <pt x="696" y="1819" on="1"/>
        <pt x="729" y="1788" on="1"/>
        <pt x="764" y="1819" on="1"/>
        <pt x="852" y="1903" on="0"/>
        <pt x="909" y="1903" on="1"/>
        <pt x="1055" y="1903" on="1"/>
        <pt x="1092" y="1903" on="0"/>
        <pt x="1108" y="1873" on="1"/>
        <pt x="1114" y="1862" on="0"/>
        <pt x="1114" y="1832" on="0"/>
        <pt x="1096" y="1815" on="1"/>
        <pt x="938" y="1671" on="1"/>
        <pt x="846" y="1583" on="0"/>
        <pt x="791" y="1583" on="1"/>
        <pt x="668" y="1583" on="1"/>
        <pt x="613" y="1583" on="0"/>
        <pt x="520" y="1671" on="1"/>
        <pt x="365" y="1815" on="1"/>
        <pt x="336" y="1844" on="0"/>
        <pt x="368" y="1903" on="0"/>
      </contour>
    </TTGlyph>
    <TTGlyph name="a" xMin="61" yMin="-21" xMax="1212" yMax="1116">
      <contour>
        <pt x="61" y="164" on="0"/>
        <pt x="61" y="500" on="0"/>
        <pt x="326" y="680" on="0"/>
        <pt x="535" y="680" on="1"/>
        <pt x="866" y="680" on="1"/>
        <pt x="866" y="797" on="0"/>
        <pt x="768" y="889" on="0"/>
        <pt x="523" y="889" on="0"/>
        <pt x="424" y="768" on="0"/>
        <pt x="352" y="768" on="1"/>
        <pt x="203" y="768" on="1"/>
        <pt x="176" y="768" on="0"/>
        <pt x="141" y="803" on="0"/>
        <pt x="141" y="829" on="1"/>
        <pt x="141" y="1116" on="0"/>
        <pt x="686" y="1116" on="1"/>
        <pt x="924" y="1116" on="0"/>
        <pt x="1212" y="903" on="0"/>
        <pt x="1212" y="680" on="1"/>
        <pt x="1212" y="61" on="1"/>
        <pt x="1212" y="34" on="0"/>
        <pt x="1178" y="0" on="0"/>
        <pt x="1151" y="0" on="1"/>
        <pt x="958" y="0" on="1"/>
        <pt x="931" y="0" on="0"/>
        <pt x="897" y="35" on="0"/>
        <pt x="897" y="61" on="1"/>
        <pt x="897" y="92" on="1"/>
        <pt x="739" y="-21" on="0"/>
        <pt x="326" y="-20" on="0"/>
      </contour>
      <contour>
        <pt x="489" y="453" on="0"/>
        <pt x="408" y="385" on="0"/>
        <pt x="408" y="277" on="0"/>
        <pt x="492" y="207" on="0"/>
        <pt x="569" y="207" on="1"/>
        <pt x="723" y="207" on="0"/>
        <pt x="866" y="297" on="1"/>
        <pt x="866" y="453" on="1"/>
        <pt x="559" y="453" on="1"/>
      </contour>
    </TTGlyph>
    <TTGlyph name="aacute" xMin="61" yMin="-21" xMax="1212" yMax="1616">
      <contour>
        <pt x="61" y="164" on="0"/>
        <pt x="61" y="500" on="0"/>
        <pt x="324" y="680" on="0"/>
        <pt x="535" y="680" on="1"/>
        <pt x="866" y="680" on="1"/>
        <pt x="866" y="799" on="0"/>
        <pt x="815" y="844" on="1"/>
        <pt x="770" y="889" on="0"/>
        <pt x="523" y="889" on="0"/>
        <pt x="424" y="768" on="0"/>
        <pt x="352" y="768" on="1"/>
        <pt x="203" y="768" on="1"/>
        <pt x="142" y="768" on="0"/>
        <pt x="141" y="829" on="1"/>
        <pt x="141" y="1116" on="0"/>
        <pt x="686" y="1116" on="1"/>
        <pt x="924" y="1116" on="0"/>
        <pt x="1061" y="1016" on="1"/>
        <pt x="1213" y="901" on="0"/>
        <pt x="1212" y="680" on="1"/>
        <pt x="1212" y="61" on="1"/>
        <pt x="1212" y="0" on="0"/>
        <pt x="1151" y="0" on="1"/>
        <pt x="958" y="0" on="1"/>
        <pt x="897" y="0" on="0"/>
        <pt x="897" y="61" on="1"/>
        <pt x="897" y="92" on="1"/>
        <pt x="741" y="-21" on="0"/>
        <pt x="328" y="-20" on="0"/>
      </contour>
      <contour>
        <pt x="408" y="332" on="1"/>
        <pt x="408" y="207" on="0"/>
        <pt x="721" y="207" on="0"/>
        <pt x="866" y="297" on="1"/>
        <pt x="866" y="453" on="1"/>
        <pt x="559" y="453" on="1"/>
        <pt x="491" y="453" on="0"/>
        <pt x="446" y="418" on="1"/>
        <pt x="408" y="385" on="0"/>
      </contour>
      <contour>
        <pt x="608" y="1313" on="1"/>
        <pt x="657" y="1501" on="1"/>
        <pt x="696" y="1616" on="0"/>
        <pt x="788" y="1616" on="1"/>
        <pt x="879" y="1616" on="1"/>
        <pt x="945" y="1616" on="0"/>
        <pt x="965" y="1574" on="1"/>
        <pt x="973" y="1558" on="0"/>
        <pt x="972" y="1512" on="0"/>
        <pt x="952" y="1481" on="1"/>
        <pt x="844" y="1292" on="1"/>
        <pt x="789" y="1198" on="0"/>
        <pt x="721" y="1198" on="1"/>
        <pt x="674" y="1198" on="1"/>
        <pt x="600" y="1198" on="0"/>
        <pt x="600" y="1263" on="1"/>
        <pt x="600" y="1284" on="0"/>
      </contour>
    </TTGlyph>
    <TTGlyph name="acircumflex" xMin="61" yMin="-21" xMax="1212" yMax="1516">
      <contour>
        <pt x="61" y="164" on="0"/>
        <pt x="61" y="500" on="0"/>
        <pt x="326" y="680" on="0"/>
        <pt x="535" y="680" on="1"/>
        <pt x="866" y="680" on="1"/>
        <pt x="866" y="797" on="0"/>
        <pt x="768" y="889" on="0"/>
        <pt x="523" y="889" on="0"/>
        <pt x="424" y="768" on="0"/>
        <pt x="352" y="768" on="1"/>
        <pt x="203" y="768" on="1"/>
        <pt x="176" y="768" on="0"/>
        <pt x="141" y="803" on="0"/>
        <pt x="141" y="829" on="1"/>
        <pt x="141" y="1116" on="0"/>
        <pt x="686" y="1116" on="1"/>
        <pt x="924" y="1116" on="0"/>
        <pt x="1212" y="903" on="0"/>
        <pt x="1212" y="680" on="1"/>
        <pt x="1212" y="61" on="1"/>
        <pt x="1212" y="34" on="0"/>
        <pt x="1178" y="0" on="0"/>
        <pt x="1151" y="0" on="1"/>
        <pt x="958" y="0" on="1"/>
        <pt x="931" y="0" on="0"/>
        <pt x="897" y="35" on="0"/>
        <pt x="897" y="61" on="1"/>
        <pt x="897" y="92" on="1"/>
        <pt x="739" y="-21" on="0"/>
        <pt x="326" y="-20" on="0"/>
      </contour>
      <contour>
        <pt x="287" y="1227" on="1"/>
        <pt x="281" y="1238" on="0"/>
        <pt x="281" y="1268" on="0"/>
        <pt x="299" y="1284" on="1"/>
        <pt x="455" y="1427" on="1"/>
        <pt x="547" y="1515" on="0"/>
        <pt x="602" y="1516" on="1"/>
        <pt x="725" y="1516" on="1"/>
        <pt x="780" y="1516" on="0"/>
        <pt x="872" y="1427" on="1"/>
        <pt x="1030" y="1284" on="1"/>
        <pt x="1048" y="1267" on="0"/>
        <pt x="1048" y="1238" on="0"/>
        <pt x="1042" y="1227" on="1"/>
        <pt x="1026" y="1196" on="0"/>
        <pt x="989" y="1196" on="1"/>
        <pt x="844" y="1196" on="1"/>
        <pt x="787" y="1196" on="0"/>
        <pt x="698" y="1280" on="1"/>
        <pt x="664" y="1311" on="1"/>
        <pt x="631" y="1280" on="1"/>
        <pt x="543" y="1196" on="0"/>
        <pt x="485" y="1196" on="1"/>
        <pt x="340" y="1196" on="1"/>
        <pt x="303" y="1196" on="0"/>
      </contour>
      <contour>
        <pt x="489" y="453" on="0"/>
        <pt x="408" y="385" on="0"/>
        <pt x="408" y="277" on="0"/>
        <pt x="492" y="207" on="0"/>
        <pt x="569" y="207" on="1"/>
        <pt x="723" y="207" on="0"/>
        <pt x="866" y="297" on="1"/>
        <pt x="866" y="453" on="1"/>
        <pt x="559" y="453" on="1"/>
      </contour>
    </TTGlyph>
    <TTGlyph name="acute" xMin="0" yMin="1546" xMax="373" yMax="1964">
      <contour>
        <pt x="8" y="1661" on="1"/>
        <pt x="57" y="1849" on="1"/>
        <pt x="96" y="1964" on="0"/>
        <pt x="188" y="1964" on="1"/>
        <pt x="279" y="1964" on="1"/>
        <pt x="344" y="1964" on="0"/>
        <pt x="365" y="1921" on="1"/>
        <pt x="373" y="1907" on="0"/>
        <pt x="373" y="1860" on="0"/>
        <pt x="352" y="1829" on="1"/>
        <pt x="244" y="1640" on="1"/>
        <pt x="188" y="1546" on="0"/>
        <pt x="121" y="1546" on="1"/>
        <pt x="74" y="1546" on="1"/>
        <pt x="0" y="1546" on="0"/>
        <pt x="0" y="1612" on="1"/>
        <pt x="0" y="1632" on="0"/>
      </contour>
    </TTGlyph>
    <TTGlyph name="adieresis" xMin="61" yMin="-21" xMax="1212" yMax="1530">
      <contour>
        <pt x="61" y="164" on="0"/>
        <pt x="61" y="500" on="0"/>
        <pt x="324" y="680" on="0"/>
        <pt x="535" y="680" on="1"/>
        <pt x="866" y="680" on="1"/>
        <pt x="866" y="799" on="0"/>
        <pt x="815" y="844" on="1"/>
        <pt x="770" y="889" on="0"/>
        <pt x="523" y="889" on="0"/>
        <pt x="424" y="768" on="0"/>
        <pt x="352" y="768" on="1"/>
        <pt x="203" y="768" on="1"/>
        <pt x="142" y="768" on="0"/>
        <pt x="141" y="829" on="1"/>
        <pt x="141" y="1116" on="0"/>
        <pt x="686" y="1116" on="1"/>
        <pt x="924" y="1116" on="0"/>
        <pt x="1061" y="1016" on="1"/>
        <pt x="1213" y="901" on="0"/>
        <pt x="1212" y="680" on="1"/>
        <pt x="1212" y="61" on="1"/>
        <pt x="1212" y="0" on="0"/>
        <pt x="1151" y="0" on="1"/>
        <pt x="958" y="0" on="1"/>
        <pt x="897" y="0" on="0"/>
        <pt x="897" y="61" on="1"/>
        <pt x="897" y="92" on="1"/>
        <pt x="741" y="-21" on="0"/>
        <pt x="328" y="-20" on="0"/>
      </contour>
      <contour>
        <pt x="303" y="1376" on="1"/>
        <pt x="303" y="1415" on="1"/>
        <pt x="303" y="1530" on="0"/>
        <pt x="418" y="1530" on="1"/>
        <pt x="514" y="1530" on="1"/>
        <pt x="629" y="1530" on="0"/>
        <pt x="629" y="1415" on="1"/>
        <pt x="629" y="1376" on="1"/>
        <pt x="629" y="1261" on="0"/>
        <pt x="514" y="1262" on="1"/>
        <pt x="418" y="1262" on="1"/>
        <pt x="303" y="1261" on="0"/>
      </contour>
      <contour>
        <pt x="408" y="332" on="1"/>
        <pt x="408" y="207" on="0"/>
        <pt x="721" y="207" on="0"/>
        <pt x="866" y="297" on="1"/>
        <pt x="866" y="453" on="1"/>
        <pt x="559" y="453" on="1"/>
        <pt x="491" y="453" on="0"/>
        <pt x="446" y="418" on="1"/>
        <pt x="408" y="385" on="0"/>
      </contour>
      <contour>
        <pt x="764" y="1376" on="1"/>
        <pt x="764" y="1415" on="1"/>
        <pt x="764" y="1530" on="0"/>
        <pt x="879" y="1530" on="1"/>
        <pt x="975" y="1530" on="1"/>
        <pt x="1090" y="1530" on="0"/>
        <pt x="1090" y="1415" on="1"/>
        <pt x="1090" y="1376" on="1"/>
        <pt x="1090" y="1261" on="0"/>
        <pt x="975" y="1262" on="1"/>
        <pt x="879" y="1262" on="1"/>
        <pt x="764" y="1261" on="0"/>
      </contour>
    </TTGlyph>
    <TTGlyph name="ae" xMin="61" yMin="-20" xMax="2028" yMax="1116">
      <contour>
        <pt x="332" y="-20" on="0"/>
        <pt x="61" y="162" on="0"/>
        <pt x="61" y="500" on="0"/>
        <pt x="326" y="680" on="0"/>
        <pt x="535" y="680" on="1"/>
        <pt x="866" y="680" on="1"/>
        <pt x="866" y="797" on="0"/>
        <pt x="768" y="889" on="0"/>
        <pt x="522" y="889" on="0"/>
        <pt x="424" y="768" on="0"/>
        <pt x="352" y="768" on="1"/>
        <pt x="203" y="768" on="1"/>
        <pt x="176" y="768" on="0"/>
        <pt x="141" y="803" on="0"/>
        <pt x="141" y="829" on="1"/>
        <pt x="141" y="1116" on="0"/>
        <pt x="645" y="1116" on="1"/>
        <pt x="901" y="1116" on="0"/>
        <pt x="1044" y="989" on="1"/>
        <pt x="1198" y="1116" on="0"/>
        <pt x="1720" y="1116" on="0"/>
        <pt x="2028" y="829" on="0"/>
        <pt x="2028" y="561" on="1"/>
        <pt x="2028" y="504" on="1"/>
        <pt x="2028" y="477" on="0"/>
        <pt x="1993" y="442" on="0"/>
        <pt x="1966" y="442" on="1"/>
        <pt x="1212" y="442" on="1"/>
        <pt x="1223" y="319" on="0"/>
        <pt x="1343" y="207" on="0"/>
        <pt x="1610" y="207" on="0"/>
        <pt x="1708" y="328" on="0"/>
        <pt x="1780" y="328" on="1"/>
        <pt x="1929" y="328" on="1"/>
        <pt x="1956" y="328" on="0"/>
        <pt x="1991" y="293" on="0"/>
        <pt x="1991" y="266" on="1"/>
        <pt x="1991" y="-20" on="0"/>
        <pt x="1464" y="-20" on="1"/>
        <pt x="1208" y="-20" on="0"/>
        <pt x="1051" y="131" on="1"/>
        <pt x="903" y="-20" on="0"/>
        <pt x="555" y="-20" on="1"/>
      </contour>
      <contour>
        <pt x="866" y="440" on="1"/>
        <pt x="864" y="453" on="1"/>
        <pt x="559" y="453" on="1"/>
        <pt x="489" y="453" on="0"/>
        <pt x="408" y="385" on="0"/>
        <pt x="408" y="276" on="0"/>
        <pt x="492" y="207" on="0"/>
        <pt x="569" y="207" on="1"/>
        <pt x="762" y="207" on="0"/>
        <pt x="866" y="297" on="1"/>
      </contour>
      <contour>
        <pt x="1212" y="653" on="1"/>
        <pt x="1675" y="653" on="1"/>
        <pt x="1665" y="889" on="0"/>
        <pt x="1444" y="889" on="1"/>
        <pt x="1235" y="889" on="0"/>
        <pt x="1212" y="676" on="1"/>
      </contour>
    </TTGlyph>
    <TTGlyph name="afii10017" xMin="21" yMin="0" xMax="1565" yMax="1434">
      <contour>
        <pt x="25" y="92" on="1"/>
        <pt x="276" y="1044" on="1"/>
        <pt x="378" y="1433" on="0"/>
        <pt x="940" y="1434" on="1"/>
        <pt x="1479" y="1434" on="1"/>
        <pt x="1516" y="1434" on="0"/>
        <pt x="1565" y="1378" on="0"/>
        <pt x="1565" y="1341" on="1"/>
        <pt x="1565" y="92" on="1"/>
        <pt x="1565" y="53" on="0"/>
        <pt x="1509" y="0" on="0"/>
        <pt x="1470" y="0" on="1"/>
        <pt x="1282" y="0" on="1"/>
        <pt x="1241" y="0" on="0"/>
        <pt x="1188" y="53" on="0"/>
        <pt x="1188" y="94" on="1"/>
        <pt x="1188" y="346" on="1"/>
        <pt x="477" y="346" on="1"/>
        <pt x="410" y="94" on="1"/>
        <pt x="400" y="53" on="0"/>
        <pt x="330" y="0" on="0"/>
        <pt x="291" y="0" on="1"/>
        <pt x="94" y="0" on="1"/>
        <pt x="55" y="0" on="0"/>
        <pt x="21" y="45" on="0"/>
        <pt x="22" y="79" on="0"/>
      </contour>
      <contour>
        <pt x="551" y="629" on="1"/>
        <pt x="1188" y="629" on="1"/>
        <pt x="1188" y="1151" on="1"/>
        <pt x="903" y="1151" on="1"/>
        <pt x="807" y="1151" on="0"/>
        <pt x="664" y="1042" on="0"/>
        <pt x="639" y="950" on="1"/>
      </contour>
    </TTGlyph>
    <TTGlyph name="afii10018" xMin="143" yMin="0" xMax="1559" yMax="1434">
      <contour>
        <pt x="143" y="92" on="1"/>
        <pt x="143" y="1339" on="1"/>
        <pt x="143" y="1380" on="0"/>
        <pt x="197" y="1434" on="0"/>
        <pt x="238" y="1434" on="1"/>
        <pt x="1364" y="1434" on="1"/>
        <pt x="1403" y="1434" on="0"/>
        <pt x="1458" y="1378" on="0"/>
        <pt x="1458" y="1339" on="1"/>
        <pt x="1458" y="1245" on="1"/>
        <pt x="1458" y="1206" on="0"/>
        <pt x="1405" y="1151" on="0"/>
        <pt x="1366" y="1151" on="1"/>
        <pt x="520" y="1151" on="1"/>
        <pt x="520" y="909" on="1"/>
        <pt x="1014" y="909" on="1"/>
        <pt x="1257" y="909" on="0"/>
        <pt x="1559" y="680" on="0"/>
        <pt x="1559" y="229" on="0"/>
        <pt x="1257" y="0" on="0"/>
        <pt x="1014" y="0" on="1"/>
        <pt x="233" y="0" on="1"/>
        <pt x="195" y="0" on="0"/>
        <pt x="143" y="53" on="0"/>
      </contour>
      <contour>
        <pt x="520" y="283" on="1"/>
        <pt x="1014" y="283" on="1"/>
        <pt x="1182" y="283" on="0"/>
        <pt x="1182" y="627" on="0"/>
        <pt x="1014" y="627" on="1"/>
        <pt x="520" y="627" on="1"/>
      </contour>
    </TTGlyph>
    <TTGlyph name="afii10019" xMin="143" yMin="0" xMax="1628" yMax="1434">
      <contour>
        <pt x="143" y="1339" on="1"/>
        <pt x="143" y="1378" on="0"/>
        <pt x="199" y="1434" on="0"/>
        <pt x="238" y="1434" on="1"/>
        <pt x="1051" y="1434" on="1"/>
        <pt x="1350" y="1434" on="0"/>
        <pt x="1492" y="1262" on="1"/>
        <pt x="1571" y="1167" on="0"/>
        <pt x="1571" y="872" on="0"/>
        <pt x="1436" y="762" on="1"/>
        <pt x="1628" y="659" on="0"/>
        <pt x="1628" y="225" on="0"/>
        <pt x="1321" y="0" on="0"/>
        <pt x="1098" y="0" on="1"/>
        <pt x="238" y="0" on="1"/>
        <pt x="199" y="0" on="0"/>
        <pt x="143" y="55" on="0"/>
        <pt x="143" y="94" on="1"/>
      </contour>
      <contour>
        <pt x="520" y="270" on="1"/>
        <pt x="1092" y="270" on="1"/>
        <pt x="1169" y="270" on="0"/>
        <pt x="1251" y="362" on="0"/>
        <pt x="1251" y="522" on="0"/>
        <pt x="1169" y="614" on="0"/>
        <pt x="1092" y="614" on="1"/>
        <pt x="520" y="614" on="1"/>
      </contour>
      <contour>
        <pt x="520" y="877" on="1"/>
        <pt x="1055" y="877" on="1"/>
        <pt x="1118" y="877" on="0"/>
        <pt x="1194" y="952" on="0"/>
        <pt x="1194" y="1087" on="0"/>
        <pt x="1118" y="1163" on="0"/>
        <pt x="1055" y="1163" on="1"/>
        <pt x="520" y="1163" on="1"/>
      </contour>
    </TTGlyph>
    <TTGlyph name="afii10020" xMin="143" yMin="0" xMax="1298" yMax="1434">
      <contour>
        <pt x="143" y="92" on="1"/>
        <pt x="143" y="1339" on="1"/>
        <pt x="143" y="1380" on="0"/>
        <pt x="197" y="1434" on="0"/>
        <pt x="238" y="1434" on="1"/>
        <pt x="1204" y="1434" on="1"/>
        <pt x="1245" y="1434" on="0"/>
        <pt x="1298" y="1380" on="0"/>
        <pt x="1298" y="1339" on="1"/>
        <pt x="1298" y="1245" on="1"/>
        <pt x="1298" y="1204" on="0"/>
        <pt x="1245" y="1151" on="0"/>
        <pt x="1204" y="1151" on="1"/>
        <pt x="520" y="1151" on="1"/>
        <pt x="520" y="92" on="1"/>
        <pt x="520" y="53" on="0"/>
        <pt x="465" y="0" on="0"/>
        <pt x="426" y="0" on="1"/>
        <pt x="238" y="0" on="1"/>
        <pt x="199" y="0" on="0"/>
        <pt x="143" y="53" on="0"/>
      </contour>
    </TTGlyph>
    <TTGlyph name="afii10021" xMin="0" yMin="0" xMax="1642" yMax="1434">
      <contour>
        <pt x="0" y="94" on="1"/>
        <pt x="0" y="190" on="1"/>
        <pt x="0" y="229" on="0"/>
        <pt x="55" y="283" on="0"/>
        <pt x="94" y="283" on="1"/>
        <pt x="172" y="283" on="1"/>
        <pt x="358" y="1040" on="1"/>
        <pt x="455" y="1434" on="0"/>
        <pt x="1008" y="1434" on="1"/>
        <pt x="1548" y="1434" on="1"/>
        <pt x="1587" y="1434" on="0"/>
        <pt x="1642" y="1380" on="0"/>
        <pt x="1642" y="1341" on="1"/>
        <pt x="1642" y="92" on="1"/>
        <pt x="1642" y="53" on="0"/>
        <pt x="1587" y="0" on="0"/>
        <pt x="1548" y="0" on="1"/>
        <pt x="94" y="0" on="1"/>
        <pt x="55" y="0" on="0"/>
        <pt x="0" y="55" on="0"/>
      </contour>
      <contour>
        <pt x="557" y="283" on="1"/>
        <pt x="1266" y="283" on="1"/>
        <pt x="1266" y="1151" on="1"/>
        <pt x="967" y="1151" on="1"/>
        <pt x="872" y="1151" on="0"/>
        <pt x="748" y="1047" on="0"/>
        <pt x="725" y="954" on="1"/>
      </contour>
    </TTGlyph>
    <TTGlyph name="afii10022" xMin="143" yMin="0" xMax="1485" yMax="1434">
      <contour>
        <pt x="143" y="96" on="1"/>
        <pt x="143" y="1341" on="1"/>
        <pt x="143" y="1380" on="0"/>
        <pt x="199" y="1434" on="0"/>
        <pt x="238" y="1434" on="1"/>
        <pt x="1391" y="1434" on="1"/>
        <pt x="1430" y="1434" on="0"/>
        <pt x="1485" y="1378" on="0"/>
        <pt x="1485" y="1339" on="1"/>
        <pt x="1485" y="1245" on="1"/>
        <pt x="1485" y="1206" on="0"/>
        <pt x="1430" y="1151" on="0"/>
        <pt x="1391" y="1151" on="1"/>
        <pt x="520" y="1151" on="1"/>
        <pt x="520" y="860" on="1"/>
        <pt x="1270" y="860" on="1"/>
        <pt x="1309" y="860" on="0"/>
        <pt x="1364" y="805" on="0"/>
        <pt x="1364" y="766" on="1"/>
        <pt x="1364" y="672" on="1"/>
        <pt x="1364" y="633" on="0"/>
        <pt x="1309" y="578" on="0"/>
        <pt x="1270" y="578" on="1"/>
        <pt x="520" y="578" on="1"/>
        <pt x="520" y="283" on="1"/>
        <pt x="1389" y="283" on="1"/>
        <pt x="1427" y="283" on="0"/>
        <pt x="1481" y="229" on="0"/>
        <pt x="1481" y="190" on="1"/>
        <pt x="1481" y="94" on="1"/>
        <pt x="1481" y="55" on="0"/>
        <pt x="1425" y="0" on="0"/>
        <pt x="1386" y="0" on="1"/>
        <pt x="238" y="0" on="1"/>
        <pt x="199" y="0" on="0"/>
        <pt x="143" y="55" on="0"/>
      </contour>
    </TTGlyph>
    <TTGlyph name="afii10023" xMin="143" yMin="0" xMax="1485" yMax="1808">
      <contour>
        <pt x="143" y="96" on="1"/>
        <pt x="143" y="1341" on="1"/>
        <pt x="143" y="1380" on="0"/>
        <pt x="199" y="1434" on="0"/>
        <pt x="238" y="1434" on="1"/>
        <pt x="1391" y="1434" on="1"/>
        <pt x="1430" y="1434" on="0"/>
        <pt x="1485" y="1378" on="0"/>
        <pt x="1485" y="1339" on="1"/>
        <pt x="1485" y="1245" on="1"/>
        <pt x="1485" y="1206" on="0"/>
        <pt x="1430" y="1151" on="0"/>
        <pt x="1391" y="1151" on="1"/>
        <pt x="520" y="1151" on="1"/>
        <pt x="520" y="860" on="1"/>
        <pt x="1270" y="860" on="1"/>
        <pt x="1309" y="860" on="0"/>
        <pt x="1364" y="805" on="0"/>
        <pt x="1364" y="766" on="1"/>
        <pt x="1364" y="672" on="1"/>
        <pt x="1364" y="633" on="0"/>
        <pt x="1309" y="578" on="0"/>
        <pt x="1270" y="578" on="1"/>
        <pt x="520" y="578" on="1"/>
        <pt x="520" y="283" on="1"/>
        <pt x="1389" y="283" on="1"/>
        <pt x="1427" y="283" on="0"/>
        <pt x="1481" y="229" on="0"/>
        <pt x="1481" y="190" on="1"/>
        <pt x="1481" y="94" on="1"/>
        <pt x="1481" y="55" on="0"/>
        <pt x="1425" y="0" on="0"/>
        <pt x="1386" y="0" on="1"/>
        <pt x="238" y="0" on="1"/>
        <pt x="199" y="0" on="0"/>
        <pt x="143" y="55" on="0"/>
      </contour>
      <contour>
        <pt x="395" y="1655" on="1"/>
        <pt x="395" y="1694" on="1"/>
        <pt x="395" y="1747" on="0"/>
        <pt x="457" y="1808" on="0"/>
        <pt x="510" y="1808" on="1"/>
        <pt x="606" y="1808" on="1"/>
        <pt x="659" y="1808" on="0"/>
        <pt x="721" y="1747" on="0"/>
        <pt x="721" y="1694" on="1"/>
        <pt x="721" y="1655" on="1"/>
        <pt x="721" y="1602" on="0"/>
        <pt x="659" y="1540" on="0"/>
        <pt x="606" y="1540" on="1"/>
        <pt x="510" y="1540" on="1"/>
        <pt x="457" y="1540" on="0"/>
        <pt x="395" y="1602" on="0"/>
      </contour>
      <contour>
        <pt x="897" y="1655" on="1"/>
        <pt x="897" y="1694" on="1"/>
        <pt x="897" y="1747" on="0"/>
        <pt x="958" y="1808" on="0"/>
        <pt x="1012" y="1808" on="1"/>
        <pt x="1108" y="1808" on="1"/>
        <pt x="1161" y="1808" on="0"/>
        <pt x="1223" y="1747" on="0"/>
        <pt x="1223" y="1694" on="1"/>
        <pt x="1223" y="1655" on="1"/>
        <pt x="1223" y="1602" on="0"/>
        <pt x="1161" y="1540" on="0"/>
        <pt x="1108" y="1540" on="1"/>
        <pt x="1012" y="1540" on="1"/>
        <pt x="958" y="1540" on="0"/>
        <pt x="897" y="1602" on="0"/>
      </contour>
    </TTGlyph>
    <TTGlyph name="afii10024" xMin="0" yMin="0" xMax="2250" yMax="1436">
      <contour>
        <pt x="35" y="1395" on="1"/>
        <pt x="35" y="1436" on="0"/>
        <pt x="82" y="1436" on="1"/>
        <pt x="313" y="1436" on="1"/>
        <pt x="403" y="1436" on="0"/>
        <pt x="457" y="1339" on="1"/>
        <pt x="612" y="1063" on="1"/>
        <pt x="672" y="956" on="0"/>
        <pt x="805" y="860" on="0"/>
        <pt x="893" y="860" on="1"/>
        <pt x="938" y="860" on="1"/>
        <pt x="938" y="1339" on="1"/>
        <pt x="938" y="1378" on="0"/>
        <pt x="993" y="1436" on="0"/>
        <pt x="1032" y="1436" on="1"/>
        <pt x="1221" y="1436" on="1"/>
        <pt x="1260" y="1436" on="0"/>
        <pt x="1315" y="1378" on="0"/>
        <pt x="1315" y="1339" on="1"/>
        <pt x="1315" y="860" on="1"/>
        <pt x="1360" y="860" on="1"/>
        <pt x="1448" y="860" on="0"/>
        <pt x="1581" y="956" on="0"/>
        <pt x="1640" y="1063" on="1"/>
        <pt x="1796" y="1339" on="1"/>
        <pt x="1849" y="1436" on="0"/>
        <pt x="1939" y="1436" on="1"/>
        <pt x="2171" y="1436" on="1"/>
        <pt x="2210" y="1436" on="0"/>
        <pt x="2218" y="1409" on="1"/>
        <pt x="2218" y="1395" on="1"/>
        <pt x="2218" y="1370" on="0"/>
        <pt x="2202" y="1339" on="1"/>
        <pt x="1985" y="946" on="1"/>
        <pt x="1937" y="860" on="0"/>
        <pt x="1821" y="748" on="0"/>
        <pt x="1726" y="725" on="1"/>
        <pt x="1792" y="711" on="0"/>
        <pt x="1931" y="573" on="0"/>
        <pt x="1985" y="492" on="1"/>
        <pt x="2234" y="94" on="1"/>
        <pt x="2261" y="50" on="0"/>
        <pt x="2238" y="0" on="0"/>
        <pt x="2200" y="0" on="1"/>
        <pt x="1970" y="0" on="1"/>
        <pt x="1931" y="0" on="0"/>
        <pt x="1841" y="55" on="0"/>
        <pt x="1817" y="94" on="1"/>
        <pt x="1640" y="373" on="1"/>
        <pt x="1577" y="475" on="0"/>
        <pt x="1450" y="578" on="0"/>
        <pt x="1360" y="578" on="1"/>
        <pt x="1315" y="578" on="1"/>
        <pt x="1315" y="92" on="1"/>
        <pt x="1315" y="53" on="0"/>
        <pt x="1260" y="0" on="0"/>
        <pt x="1221" y="0" on="1"/>
        <pt x="1032" y="0" on="1"/>
        <pt x="993" y="0" on="0"/>
        <pt x="938" y="53" on="0"/>
        <pt x="938" y="92" on="1"/>
        <pt x="938" y="578" on="1"/>
        <pt x="893" y="578" on="1"/>
        <pt x="803" y="578" on="0"/>
        <pt x="676" y="475" on="0"/>
        <pt x="612" y="373" on="1"/>
        <pt x="436" y="94" on="1"/>
        <pt x="412" y="55" on="0"/>
        <pt x="322" y="0" on="0"/>
        <pt x="283" y="0" on="1"/>
        <pt x="53" y="0" on="1"/>
        <pt x="14" y="0" on="0"/>
        <pt x="4" y="27" on="1"/>
        <pt x="0" y="35" on="0"/>
        <pt x="0" y="66" on="0"/>
        <pt x="18" y="94" on="1"/>
        <pt x="268" y="492" on="1"/>
        <pt x="322" y="573" on="0"/>
        <pt x="461" y="711" on="0"/>
        <pt x="526" y="725" on="1"/>
        <pt x="432" y="748" on="0"/>
        <pt x="315" y="860" on="0"/>
        <pt x="268" y="946" on="1"/>
        <pt x="51" y="1339" on="1"/>
        <pt x="35" y="1370" on="0"/>
      </contour>
    </TTGlyph>
    <TTGlyph name="afii10025" xMin="51" yMin="-8" xMax="1538" yMax="1442">
      <contour>
        <pt x="51" y="391" on="1"/>
        <pt x="51" y="450" on="0"/>
        <pt x="121" y="502" on="0"/>
        <pt x="154" y="502" on="1"/>
        <pt x="272" y="502" on="1"/>
        <pt x="364" y="502" on="0"/>
        <pt x="416" y="391" on="1"/>
        <pt x="441" y="338" on="0"/>
        <pt x="559" y="274" on="0"/>
        <pt x="631" y="274" on="1"/>
        <pt x="944" y="274" on="1"/>
        <pt x="1053" y="274" on="0"/>
        <pt x="1161" y="344" on="0"/>
        <pt x="1161" y="512" on="0"/>
        <pt x="1053" y="582" on="0"/>
        <pt x="944" y="582" on="1"/>
        <pt x="686" y="582" on="1"/>
        <pt x="647" y="582" on="0"/>
        <pt x="592" y="637" on="0"/>
        <pt x="592" y="676" on="1"/>
        <pt x="592" y="758" on="1"/>
        <pt x="592" y="795" on="0"/>
        <pt x="645" y="852" on="0"/>
        <pt x="682" y="852" on="1"/>
        <pt x="907" y="852" on="1"/>
        <pt x="1028" y="852" on="0"/>
        <pt x="1141" y="924" on="0"/>
        <pt x="1141" y="1087" on="0"/>
        <pt x="1028" y="1159" on="0"/>
        <pt x="907" y="1159" on="1"/>
        <pt x="664" y="1159" on="1"/>
        <pt x="502" y="1159" on="0"/>
        <pt x="440" y="1036" on="1"/>
        <pt x="395" y="942" on="0"/>
        <pt x="305" y="942" on="1"/>
        <pt x="186" y="942" on="1"/>
        <pt x="138" y="942" on="0"/>
        <pt x="84" y="1012" on="0"/>
        <pt x="84" y="1053" on="1"/>
        <pt x="84" y="1223" on="0"/>
        <pt x="428" y="1442" on="0"/>
        <pt x="629" y="1442" on="1"/>
        <pt x="936" y="1442" on="1"/>
        <pt x="1518" y="1442" on="0"/>
        <pt x="1518" y="1004" on="1"/>
        <pt x="1518" y="822" on="0"/>
        <pt x="1380" y="717" on="1"/>
        <pt x="1538" y="619" on="0"/>
        <pt x="1538" y="428" on="1"/>
        <pt x="1538" y="197" on="0"/>
        <pt x="1249" y="-8" on="0"/>
        <pt x="979" y="-8" on="1"/>
        <pt x="596" y="-8" on="1"/>
        <pt x="393" y="-8" on="0"/>
        <pt x="51" y="215" on="0"/>
      </contour>
    </TTGlyph>
    <TTGlyph name="afii10026" xMin="143" yMin="0" xMax="1602" yMax="1434">
      <contour>
        <pt x="143" y="94" on="1"/>
        <pt x="143" y="1339" on="1"/>
        <pt x="143" y="1380" on="0"/>
        <pt x="197" y="1434" on="0"/>
        <pt x="238" y="1434" on="1"/>
        <pt x="414" y="1434" on="1"/>
        <pt x="453" y="1434" on="0"/>
        <pt x="508" y="1380" on="0"/>
        <pt x="508" y="1341" on="1"/>
        <pt x="508" y="340" on="1"/>
        <pt x="1077" y="1339" on="1"/>
        <pt x="1100" y="1378" on="0"/>
        <pt x="1180" y="1434" on="0"/>
        <pt x="1214" y="1434" on="1"/>
        <pt x="1509" y="1434" on="1"/>
        <pt x="1548" y="1434" on="0"/>
        <pt x="1602" y="1378" on="0"/>
        <pt x="1602" y="1339" on="1"/>
        <pt x="1602" y="94" on="1"/>
        <pt x="1602" y="55" on="0"/>
        <pt x="1546" y="0" on="0"/>
        <pt x="1507" y="0" on="1"/>
        <pt x="1331" y="0" on="1"/>
        <pt x="1292" y="0" on="0"/>
        <pt x="1237" y="55" on="0"/>
        <pt x="1237" y="94" on="1"/>
        <pt x="1237" y="1022" on="1"/>
        <pt x="715" y="94" on="1"/>
        <pt x="692" y="55" on="0"/>
        <pt x="608" y="0" on="0"/>
        <pt x="569" y="0" on="1"/>
        <pt x="238" y="0" on="1"/>
        <pt x="199" y="0" on="0"/>
        <pt x="143" y="55" on="0"/>
      </contour>
    </TTGlyph>
    <TTGlyph name="afii10027" xMin="143" yMin="0" xMax="1602" yMax="1894">
      <contour>
        <pt x="143" y="94" on="1"/>
        <pt x="143" y="1339" on="1"/>
        <pt x="143" y="1380" on="0"/>
        <pt x="197" y="1434" on="0"/>
        <pt x="238" y="1434" on="1"/>
        <pt x="414" y="1434" on="1"/>
        <pt x="453" y="1434" on="0"/>
        <pt x="508" y="1380" on="0"/>
        <pt x="508" y="1341" on="1"/>
        <pt x="508" y="340" on="1"/>
        <pt x="1077" y="1339" on="1"/>
        <pt x="1100" y="1378" on="0"/>
        <pt x="1180" y="1434" on="0"/>
        <pt x="1214" y="1434" on="1"/>
        <pt x="1509" y="1434" on="1"/>
        <pt x="1548" y="1434" on="0"/>
        <pt x="1602" y="1378" on="0"/>
        <pt x="1602" y="1339" on="1"/>
        <pt x="1602" y="94" on="1"/>
        <pt x="1602" y="55" on="0"/>
        <pt x="1546" y="0" on="0"/>
        <pt x="1507" y="0" on="1"/>
        <pt x="1331" y="0" on="1"/>
        <pt x="1292" y="0" on="0"/>
        <pt x="1237" y="55" on="0"/>
        <pt x="1237" y="94" on="1"/>
        <pt x="1237" y="1022" on="1"/>
        <pt x="715" y="94" on="1"/>
        <pt x="692" y="55" on="0"/>
        <pt x="608" y="0" on="0"/>
        <pt x="569" y="0" on="1"/>
        <pt x="238" y="0" on="1"/>
        <pt x="199" y="0" on="0"/>
        <pt x="143" y="55" on="0"/>
      </contour>
      <contour>
        <pt x="537" y="1843" on="1"/>
        <pt x="537" y="1894" on="0"/>
        <pt x="592" y="1894" on="1"/>
        <pt x="674" y="1894" on="1"/>
        <pt x="723" y="1894" on="0"/>
        <pt x="743" y="1843" on="1"/>
        <pt x="772" y="1772" on="0"/>
        <pt x="973" y="1772" on="0"/>
        <pt x="1001" y="1843" on="1"/>
        <pt x="1022" y="1894" on="0"/>
        <pt x="1071" y="1894" on="1"/>
        <pt x="1153" y="1894" on="1"/>
        <pt x="1208" y="1894" on="0"/>
        <pt x="1208" y="1843" on="1"/>
        <pt x="1208" y="1706" on="0"/>
        <pt x="1024" y="1546" on="0"/>
        <pt x="721" y="1546" on="0"/>
        <pt x="537" y="1706" on="0"/>
      </contour>
    </TTGlyph>
    <TTGlyph name="afii10028" xMin="143" yMin="0" xMax="1627" yMax="1436">
      <contour>
        <pt x="1627" y="44" on="1"/>
        <pt x="1627" y="0" on="0"/>
        <pt x="1575" y="0" on="1"/>
        <pt x="1346" y="0" on="1"/>
        <pt x="1307" y="0" on="0"/>
        <pt x="1217" y="55" on="0"/>
        <pt x="1192" y="94" on="1"/>
        <pt x="1016" y="373" on="1"/>
        <pt x="953" y="475" on="0"/>
        <pt x="825" y="578" on="0"/>
        <pt x="735" y="578" on="1"/>
        <pt x="520" y="578" on="1"/>
        <pt x="520" y="92" on="1"/>
        <pt x="520" y="53" on="0"/>
        <pt x="465" y="0" on="0"/>
        <pt x="426" y="0" on="1"/>
        <pt x="238" y="0" on="1"/>
        <pt x="199" y="0" on="0"/>
        <pt x="143" y="57" on="0"/>
        <pt x="143" y="96" on="1"/>
        <pt x="143" y="1339" on="1"/>
        <pt x="143" y="1378" on="0"/>
        <pt x="199" y="1436" on="0"/>
        <pt x="238" y="1436" on="1"/>
        <pt x="426" y="1436" on="1"/>
        <pt x="465" y="1436" on="0"/>
        <pt x="520" y="1378" on="0"/>
        <pt x="520" y="1339" on="1"/>
        <pt x="520" y="860" on="1"/>
        <pt x="735" y="860" on="1"/>
        <pt x="823" y="860" on="0"/>
        <pt x="956" y="956" on="0"/>
        <pt x="1016" y="1063" on="1"/>
        <pt x="1171" y="1339" on="1"/>
        <pt x="1224" y="1435" on="0"/>
        <pt x="1315" y="1436" on="1"/>
        <pt x="1546" y="1436" on="1"/>
        <pt x="1594" y="1436" on="0"/>
        <pt x="1594" y="1394" on="1"/>
        <pt x="1594" y="1371" on="0"/>
        <pt x="1577" y="1339" on="1"/>
        <pt x="1360" y="946" on="1"/>
        <pt x="1313" y="860" on="0"/>
        <pt x="1196" y="748" on="0"/>
        <pt x="1102" y="725" on="1"/>
        <pt x="1168" y="711" on="0"/>
        <pt x="1307" y="573" on="0"/>
        <pt x="1360" y="492" on="1"/>
        <pt x="1610" y="94" on="1"/>
        <pt x="1627" y="65" on="0"/>
      </contour>
    </TTGlyph>
    <TTGlyph name="afii10029" xMin="22" yMin="0" xMax="1526" yMax="1434">
      <contour>
        <pt x="25" y="84" on="1"/>
        <pt x="279" y="1044" on="1"/>
        <pt x="381" y="1433" on="0"/>
        <pt x="942" y="1434" on="1"/>
        <pt x="1442" y="1434" on="1"/>
        <pt x="1477" y="1434" on="0"/>
        <pt x="1526" y="1376" on="0"/>
        <pt x="1526" y="1339" on="1"/>
        <pt x="1526" y="94" on="1"/>
        <pt x="1526" y="55" on="0"/>
        <pt x="1473" y="0" on="0"/>
        <pt x="1434" y="0" on="1"/>
        <pt x="1243" y="0" on="1"/>
        <pt x="1204" y="0" on="0"/>
        <pt x="1149" y="55" on="0"/>
        <pt x="1149" y="94" on="1"/>
        <pt x="1149" y="1151" on="1"/>
        <pt x="905" y="1151" on="1"/>
        <pt x="809" y="1151" on="0"/>
        <pt x="666" y="1042" on="0"/>
        <pt x="641" y="950" on="1"/>
        <pt x="412" y="94" on="1"/>
        <pt x="402" y="53" on="0"/>
        <pt x="332" y="0" on="0"/>
        <pt x="293" y="0" on="1"/>
        <pt x="90" y="0" on="1"/>
        <pt x="55" y="0" on="0"/>
        <pt x="22" y="44" on="0"/>
        <pt x="23" y="74" on="0"/>
      </contour>
    </TTGlyph>
    <TTGlyph name="afii10030" xMin="143" yMin="0" xMax="1974" yMax="1434">
      <contour>
        <pt x="143" y="96" on="1"/>
        <pt x="143" y="1337" on="1"/>
        <pt x="143" y="1378" on="0"/>
        <pt x="197" y="1434" on="0"/>
        <pt x="236" y="1434" on="1"/>
        <pt x="643" y="1434" on="1"/>
        <pt x="682" y="1434" on="0"/>
        <pt x="752" y="1378" on="0"/>
        <pt x="764" y="1339" on="1"/>
        <pt x="1059" y="485" on="1"/>
        <pt x="1354" y="1339" on="1"/>
        <pt x="1366" y="1378" on="0"/>
        <pt x="1436" y="1434" on="0"/>
        <pt x="1475" y="1434" on="1"/>
        <pt x="1882" y="1434" on="1"/>
        <pt x="1921" y="1434" on="0"/>
        <pt x="1974" y="1378" on="0"/>
        <pt x="1974" y="1337" on="1"/>
        <pt x="1974" y="96" on="1"/>
        <pt x="1974" y="55" on="0"/>
        <pt x="1919" y="0" on="0"/>
        <pt x="1880" y="0" on="1"/>
        <pt x="1700" y="0" on="1"/>
        <pt x="1661" y="0" on="0"/>
        <pt x="1606" y="55" on="0"/>
        <pt x="1606" y="96" on="1"/>
        <pt x="1606" y="1073" on="1"/>
        <pt x="1253" y="90" on="1"/>
        <pt x="1239" y="53" on="0"/>
        <pt x="1169" y="0" on="0"/>
        <pt x="1130" y="0" on="1"/>
        <pt x="987" y="0" on="1"/>
        <pt x="948" y="0" on="0"/>
        <pt x="879" y="53" on="0"/>
        <pt x="864" y="90" on="1"/>
        <pt x="512" y="1073" on="1"/>
        <pt x="512" y="96" on="1"/>
        <pt x="512" y="55" on="0"/>
        <pt x="457" y="0" on="0"/>
        <pt x="418" y="0" on="1"/>
        <pt x="238" y="0" on="1"/>
        <pt x="199" y="0" on="0"/>
        <pt x="143" y="55" on="0"/>
      </contour>
    </TTGlyph>
    <TTGlyph name="afii10031" xMin="143" yMin="0" xMax="1585" yMax="1434">
      <contour>
        <pt x="143" y="94" on="1"/>
        <pt x="143" y="1339" on="1"/>
        <pt x="143" y="1378" on="0"/>
        <pt x="199" y="1434" on="0"/>
        <pt x="240" y="1434" on="1"/>
        <pt x="426" y="1434" on="1"/>
        <pt x="465" y="1434" on="0"/>
        <pt x="520" y="1378" on="0"/>
        <pt x="520" y="1339" on="1"/>
        <pt x="520" y="889" on="1"/>
        <pt x="1208" y="889" on="1"/>
        <pt x="1208" y="1339" on="1"/>
        <pt x="1208" y="1378" on="0"/>
        <pt x="1264" y="1434" on="0"/>
        <pt x="1303" y="1434" on="1"/>
        <pt x="1489" y="1434" on="1"/>
        <pt x="1530" y="1434" on="0"/>
        <pt x="1585" y="1378" on="0"/>
        <pt x="1585" y="1339" on="1"/>
        <pt x="1585" y="94" on="1"/>
        <pt x="1585" y="55" on="0"/>
        <pt x="1528" y="0" on="0"/>
        <pt x="1489" y="0" on="1"/>
        <pt x="1303" y="0" on="1"/>
        <pt x="1264" y="0" on="0"/>
        <pt x="1208" y="53" on="0"/>
        <pt x="1208" y="92" on="1"/>
        <pt x="1208" y="606" on="1"/>
        <pt x="520" y="606" on="1"/>
        <pt x="520" y="92" on="1"/>
        <pt x="520" y="53" on="0"/>
        <pt x="465" y="0" on="0"/>
        <pt x="426" y="0" on="1"/>
        <pt x="240" y="0" on="1"/>
        <pt x="201" y="0" on="0"/>
        <pt x="143" y="55" on="0"/>
      </contour>
    </TTGlyph>
    <TTGlyph name="afii10032" xMin="61" yMin="-31" xMax="1671" yMax="1464">
      <contour>
        <pt x="1262" y="-31" on="0"/>
        <pt x="471" y="-31" on="0"/>
        <pt x="61" y="328" on="0"/>
        <pt x="61" y="1106" on="0"/>
        <pt x="471" y="1464" on="0"/>
        <pt x="1262" y="1464" on="0"/>
        <pt x="1671" y="1106" on="0"/>
        <pt x="1671" y="328" on="0"/>
      </contour>
      <contour>
        <pt x="1092" y="1194" on="0"/>
        <pt x="641" y="1194" on="0"/>
        <pt x="438" y="954" on="0"/>
        <pt x="438" y="479" on="0"/>
        <pt x="641" y="240" on="0"/>
        <pt x="1092" y="240" on="0"/>
        <pt x="1294" y="479" on="0"/>
        <pt x="1294" y="954" on="0"/>
      </contour>
    </TTGlyph>
    <TTGlyph name="afii10033" xMin="143" yMin="0" xMax="1628" yMax="1434">
      <contour>
        <pt x="143" y="94" on="1"/>
        <pt x="143" y="1339" on="1"/>
        <pt x="143" y="1378" on="0"/>
        <pt x="197" y="1434" on="0"/>
        <pt x="236" y="1434" on="1"/>
        <pt x="1534" y="1434" on="1"/>
        <pt x="1573" y="1434" on="0"/>
        <pt x="1628" y="1378" on="0"/>
        <pt x="1628" y="1339" on="1"/>
        <pt x="1628" y="94" on="1"/>
        <pt x="1628" y="55" on="0"/>
        <pt x="1571" y="0" on="0"/>
        <pt x="1532" y="0" on="1"/>
        <pt x="1346" y="0" on="1"/>
        <pt x="1307" y="0" on="0"/>
        <pt x="1251" y="55" on="0"/>
        <pt x="1251" y="94" on="1"/>
        <pt x="1251" y="1151" on="1"/>
        <pt x="520" y="1151" on="1"/>
        <pt x="520" y="94" on="1"/>
        <pt x="520" y="55" on="0"/>
        <pt x="465" y="0" on="0"/>
        <pt x="426" y="0" on="1"/>
        <pt x="238" y="0" on="1"/>
        <pt x="199" y="0" on="0"/>
        <pt x="143" y="55" on="0"/>
      </contour>
    </TTGlyph>
    <TTGlyph name="afii10034" xMin="143" yMin="0" xMax="1604" yMax="1434">
      <contour>
        <pt x="143" y="94" on="1"/>
        <pt x="143" y="1339" on="1"/>
        <pt x="143" y="1378" on="0"/>
        <pt x="197" y="1434" on="0"/>
        <pt x="236" y="1434" on="1"/>
        <pt x="999" y="1434" on="1"/>
        <pt x="1604" y="1434" on="0"/>
        <pt x="1604" y="319" on="0"/>
        <pt x="999" y="319" on="1"/>
        <pt x="520" y="319" on="1"/>
        <pt x="520" y="94" on="1"/>
        <pt x="520" y="55" on="0"/>
        <pt x="465" y="0" on="0"/>
        <pt x="426" y="0" on="1"/>
        <pt x="238" y="0" on="1"/>
        <pt x="199" y="0" on="0"/>
        <pt x="143" y="55" on="0"/>
      </contour>
      <contour>
        <pt x="520" y="602" on="1"/>
        <pt x="885" y="602" on="1"/>
        <pt x="1053" y="602" on="0"/>
        <pt x="1227" y="715" on="0"/>
        <pt x="1227" y="1038" on="0"/>
        <pt x="1053" y="1151" on="0"/>
        <pt x="885" y="1151" on="1"/>
        <pt x="520" y="1151" on="1"/>
      </contour>
    </TTGlyph>
    <TTGlyph name="afii10035" xMin="61" yMin="-8" xMax="1622" yMax="1442">
      <contour>
        <pt x="61" y="346" on="0"/>
        <pt x="61" y="1087" on="0"/>
        <pt x="432" y="1442" on="0"/>
        <pt x="803" y="1442" on="1"/>
        <pt x="1026" y="1442" on="1"/>
        <pt x="1253" y="1442" on="0"/>
        <pt x="1602" y="1206" on="0"/>
        <pt x="1602" y="1001" on="1"/>
        <pt x="1602" y="942" on="0"/>
        <pt x="1532" y="891" on="0"/>
        <pt x="1499" y="891" on="1"/>
        <pt x="1380" y="891" on="1"/>
        <pt x="1288" y="891" on="0"/>
        <pt x="1237" y="1001" on="1"/>
        <pt x="1163" y="1159" on="0"/>
        <pt x="991" y="1159" on="1"/>
        <pt x="813" y="1159" on="1"/>
        <pt x="594" y="1159" on="0"/>
        <pt x="438" y="971" on="0"/>
        <pt x="438" y="463" on="0"/>
        <pt x="594" y="274" on="0"/>
        <pt x="813" y="274" on="1"/>
        <pt x="1012" y="274" on="1"/>
        <pt x="1184" y="274" on="0"/>
        <pt x="1257" y="432" on="1"/>
        <pt x="1308" y="543" on="0"/>
        <pt x="1401" y="543" on="1"/>
        <pt x="1520" y="543" on="1"/>
        <pt x="1567" y="543" on="0"/>
        <pt x="1622" y="473" on="0"/>
        <pt x="1622" y="432" on="1"/>
        <pt x="1622" y="227" on="0"/>
        <pt x="1274" y="-8" on="0"/>
        <pt x="1047" y="-8" on="1"/>
        <pt x="803" y="-8" on="1"/>
        <pt x="432" y="-8" on="0"/>
      </contour>
    </TTGlyph>
    <TTGlyph name="afii10036" xMin="20" yMin="0" xMax="1479" yMax="1434">
      <contour>
        <pt x="20" y="1245" on="1"/>
        <pt x="20" y="1339" on="1"/>
        <pt x="20" y="1380" on="0"/>
        <pt x="74" y="1434" on="0"/>
        <pt x="115" y="1434" on="1"/>
        <pt x="1384" y="1434" on="1"/>
        <pt x="1425" y="1434" on="0"/>
        <pt x="1479" y="1380" on="0"/>
        <pt x="1479" y="1339" on="1"/>
        <pt x="1479" y="1245" on="1"/>
        <pt x="1479" y="1204" on="0"/>
        <pt x="1425" y="1151" on="0"/>
        <pt x="1384" y="1151" on="1"/>
        <pt x="938" y="1151" on="1"/>
        <pt x="938" y="92" on="1"/>
        <pt x="938" y="53" on="0"/>
        <pt x="883" y="0" on="0"/>
        <pt x="844" y="0" on="1"/>
        <pt x="655" y="0" on="1"/>
        <pt x="616" y="0" on="0"/>
        <pt x="561" y="53" on="0"/>
        <pt x="561" y="92" on="1"/>
        <pt x="561" y="1151" on="1"/>
        <pt x="115" y="1151" on="1"/>
        <pt x="74" y="1151" on="0"/>
        <pt x="20" y="1204" on="0"/>
      </contour>
    </TTGlyph>
    <TTGlyph name="afii10037" xMin="28" yMin="0" xMax="1574" yMax="1434">
      <contour>
        <pt x="446" y="301" on="1"/>
        <pt x="614" y="283" on="1"/>
        <pt x="635" y="283" on="1"/>
        <pt x="834" y="283" on="0"/>
        <pt x="907" y="543" on="1"/>
        <pt x="821" y="543" on="1"/>
        <pt x="569" y="543" on="0"/>
        <pt x="287" y="748" on="0"/>
        <pt x="186" y="979" on="1"/>
        <pt x="29" y="1339" on="1"/>
        <pt x="12" y="1379" on="0"/>
        <pt x="45" y="1434" on="0"/>
        <pt x="84" y="1434" on="1"/>
        <pt x="295" y="1434" on="1"/>
        <pt x="391" y="1434" on="0"/>
        <pt x="428" y="1343" on="1"/>
        <pt x="543" y="1065" on="1"/>
        <pt x="594" y="944" on="0"/>
        <pt x="748" y="825" on="0"/>
        <pt x="874" y="825" on="1"/>
        <pt x="997" y="825" on="1"/>
        <pt x="1178" y="1341" on="1"/>
        <pt x="1192" y="1384" on="0"/>
        <pt x="1262" y="1434" on="0"/>
        <pt x="1303" y="1434" on="1"/>
        <pt x="1505" y="1434" on="1"/>
        <pt x="1544" y="1434" on="0"/>
        <pt x="1574" y="1391" on="0"/>
        <pt x="1574" y="1358" on="0"/>
        <pt x="1569" y="1343" on="1"/>
        <pt x="1243" y="410" on="1"/>
        <pt x="1175" y="213" on="0"/>
        <pt x="901" y="0" on="0"/>
        <pt x="655" y="0" on="1"/>
        <pt x="414" y="0" on="1"/>
        <pt x="375" y="0" on="0"/>
        <pt x="319" y="55" on="0"/>
        <pt x="319" y="94" on="1"/>
        <pt x="319" y="207" on="1"/>
        <pt x="319" y="246" on="0"/>
        <pt x="373" y="301" on="0"/>
        <pt x="414" y="301" on="1"/>
      </contour>
    </TTGlyph>
    <TTGlyph name="afii10038" xMin="41" yMin="-63" xMax="1909" yMax="1497">
      <contour>
        <pt x="786" y="1305" on="1"/>
        <pt x="786" y="1403" on="1"/>
        <pt x="786" y="1442" on="0"/>
        <pt x="842" y="1497" on="0"/>
        <pt x="883" y="1497" on="1"/>
        <pt x="1067" y="1497" on="1"/>
        <pt x="1108" y="1497" on="0"/>
        <pt x="1163" y="1442" on="0"/>
        <pt x="1163" y="1403" on="1"/>
        <pt x="1163" y="1305" on="1"/>
        <pt x="1505" y="1305" on="0"/>
        <pt x="1909" y="1024" on="0"/>
        <pt x="1909" y="410" on="0"/>
        <pt x="1505" y="129" on="0"/>
        <pt x="1163" y="129" on="1"/>
        <pt x="1163" y="31" on="1"/>
        <pt x="1163" y="-8" on="0"/>
        <pt x="1106" y="-63" on="0"/>
        <pt x="1067" y="-63" on="1"/>
        <pt x="883" y="-63" on="1"/>
        <pt x="844" y="-63" on="0"/>
        <pt x="786" y="-8" on="0"/>
        <pt x="786" y="31" on="1"/>
        <pt x="786" y="129" on="1"/>
        <pt x="444" y="129" on="0"/>
        <pt x="41" y="410" on="0"/>
        <pt x="41" y="1024" on="0"/>
        <pt x="444" y="1305" on="0"/>
      </contour>
      <contour>
        <pt x="797" y="399" on="1"/>
        <pt x="797" y="1034" on="1"/>
        <pt x="621" y="1034" on="0"/>
        <pt x="418" y="877" on="0"/>
        <pt x="418" y="557" on="0"/>
        <pt x="621" y="399" on="0"/>
      </contour>
      <contour>
        <pt x="1153" y="399" on="1"/>
        <pt x="1329" y="399" on="0"/>
        <pt x="1532" y="557" on="0"/>
        <pt x="1532" y="877" on="0"/>
        <pt x="1329" y="1034" on="0"/>
        <pt x="1153" y="1034" on="1"/>
      </contour>
    </TTGlyph>
    <TTGlyph name="afii10039" xMin="20" yMin="0" xMax="1516" yMax="1434">
      <contour>
        <pt x="76" y="0" on="1"/>
        <pt x="26" y="0" on="0"/>
        <pt x="20" y="45" on="1"/>
        <pt x="20" y="67" on="0"/>
        <pt x="41" y="94" on="1"/>
        <pt x="545" y="737" on="1"/>
        <pt x="70" y="1339" on="1"/>
        <pt x="49" y="1365" on="0"/>
        <pt x="49" y="1388" on="1"/>
        <pt x="49" y="1434" on="0"/>
        <pt x="104" y="1434" on="1"/>
        <pt x="319" y="1434" on="1"/>
        <pt x="419" y="1434" on="0"/>
        <pt x="494" y="1339" on="1"/>
        <pt x="768" y="991" on="1"/>
        <pt x="1042" y="1339" on="1"/>
        <pt x="1116" y="1433" on="0"/>
        <pt x="1217" y="1434" on="1"/>
        <pt x="1432" y="1434" on="1"/>
        <pt x="1487" y="1434" on="0"/>
        <pt x="1487" y="1388" on="1"/>
        <pt x="1487" y="1366" on="0"/>
        <pt x="1466" y="1339" on="1"/>
        <pt x="991" y="737" on="1"/>
        <pt x="1495" y="94" on="1"/>
        <pt x="1516" y="68" on="0"/>
        <pt x="1516" y="36" on="0"/>
        <pt x="1512" y="29" on="1"/>
        <pt x="1501" y="0" on="0"/>
        <pt x="1460" y="0" on="1"/>
        <pt x="1247" y="0" on="1"/>
        <pt x="1147" y="0" on="0"/>
        <pt x="1073" y="94" on="1"/>
        <pt x="768" y="483" on="1"/>
        <pt x="463" y="94" on="1"/>
        <pt x="389" y="0" on="0"/>
        <pt x="289" y="0" on="1"/>
      </contour>
    </TTGlyph>
    <TTGlyph name="afii10040" xMin="143" yMin="0" xMax="1772" yMax="1434">
      <contour>
        <pt x="143" y="94" on="1"/>
        <pt x="143" y="1341" on="1"/>
        <pt x="143" y="1380" on="0"/>
        <pt x="199" y="1434" on="0"/>
        <pt x="238" y="1434" on="1"/>
        <pt x="426" y="1434" on="1"/>
        <pt x="465" y="1434" on="0"/>
        <pt x="520" y="1378" on="0"/>
        <pt x="520" y="1339" on="1"/>
        <pt x="520" y="283" on="1"/>
        <pt x="1192" y="283" on="1"/>
        <pt x="1192" y="1341" on="1"/>
        <pt x="1192" y="1380" on="0"/>
        <pt x="1247" y="1434" on="0"/>
        <pt x="1286" y="1434" on="1"/>
        <pt x="1475" y="1434" on="1"/>
        <pt x="1513" y="1434" on="0"/>
        <pt x="1569" y="1378" on="0"/>
        <pt x="1569" y="1339" on="1"/>
        <pt x="1569" y="283" on="1"/>
        <pt x="1677" y="283" on="1"/>
        <pt x="1716" y="283" on="0"/>
        <pt x="1772" y="227" on="0"/>
        <pt x="1772" y="188" on="1"/>
        <pt x="1772" y="94" on="1"/>
        <pt x="1772" y="55" on="0"/>
        <pt x="1716" y="0" on="0"/>
        <pt x="1677" y="0" on="1"/>
        <pt x="238" y="0" on="1"/>
        <pt x="199" y="0" on="0"/>
        <pt x="143" y="55" on="0"/>
      </contour>
    </TTGlyph>
    <TTGlyph name="afii10041" xMin="82" yMin="0" xMax="1464" yMax="1434">
      <contour>
        <pt x="82" y="1004" on="1"/>
        <pt x="82" y="1339" on="1"/>
        <pt x="82" y="1378" on="0"/>
        <pt x="139" y="1434" on="0"/>
        <pt x="178" y="1434" on="1"/>
        <pt x="365" y="1434" on="1"/>
        <pt x="403" y="1434" on="0"/>
        <pt x="459" y="1378" on="0"/>
        <pt x="459" y="1339" on="1"/>
        <pt x="459" y="1004" on="1"/>
        <pt x="459" y="762" on="0"/>
        <pt x="700" y="762" on="1"/>
        <pt x="1087" y="762" on="1"/>
        <pt x="1087" y="1339" on="1"/>
        <pt x="1087" y="1378" on="0"/>
        <pt x="1143" y="1434" on="0"/>
        <pt x="1182" y="1434" on="1"/>
        <pt x="1368" y="1434" on="1"/>
        <pt x="1409" y="1434" on="0"/>
        <pt x="1464" y="1378" on="0"/>
        <pt x="1464" y="1339" on="1"/>
        <pt x="1464" y="94" on="1"/>
        <pt x="1464" y="55" on="0"/>
        <pt x="1407" y="0" on="0"/>
        <pt x="1368" y="0" on="1"/>
        <pt x="1182" y="0" on="1"/>
        <pt x="1143" y="0" on="0"/>
        <pt x="1087" y="53" on="0"/>
        <pt x="1087" y="92" on="1"/>
        <pt x="1087" y="479" on="1"/>
        <pt x="700" y="479" on="1"/>
        <pt x="416" y="479" on="0"/>
        <pt x="82" y="739" on="0"/>
      </contour>
    </TTGlyph>
    <TTGlyph name="afii10042" xMin="143" yMin="0" xMax="2150" yMax="1434">
      <contour>
        <pt x="143" y="94" on="1"/>
        <pt x="143" y="1339" on="1"/>
        <pt x="143" y="1378" on="0"/>
        <pt x="199" y="1434" on="0"/>
        <pt x="238" y="1434" on="1"/>
        <pt x="426" y="1434" on="1"/>
        <pt x="465" y="1434" on="0"/>
        <pt x="520" y="1380" on="0"/>
        <pt x="520" y="1341" on="1"/>
        <pt x="520" y="283" on="1"/>
        <pt x="958" y="283" on="1"/>
        <pt x="958" y="1341" on="1"/>
        <pt x="958" y="1380" on="0"/>
        <pt x="1014" y="1434" on="0"/>
        <pt x="1053" y="1434" on="1"/>
        <pt x="1241" y="1434" on="1"/>
        <pt x="1280" y="1434" on="0"/>
        <pt x="1335" y="1378" on="0"/>
        <pt x="1335" y="1339" on="1"/>
        <pt x="1335" y="283" on="1"/>
        <pt x="1774" y="283" on="1"/>
        <pt x="1774" y="1341" on="1"/>
        <pt x="1774" y="1380" on="0"/>
        <pt x="1829" y="1434" on="0"/>
        <pt x="1868" y="1434" on="1"/>
        <pt x="2056" y="1434" on="1"/>
        <pt x="2095" y="1434" on="0"/>
        <pt x="2150" y="1378" on="0"/>
        <pt x="2150" y="1339" on="1"/>
        <pt x="2150" y="94" on="1"/>
        <pt x="2150" y="55" on="0"/>
        <pt x="2095" y="0" on="0"/>
        <pt x="2056" y="0" on="1"/>
        <pt x="238" y="0" on="1"/>
        <pt x="199" y="0" on="0"/>
        <pt x="143" y="55" on="0"/>
      </contour>
    </TTGlyph>
    <TTGlyph name="afii10043" xMin="143" yMin="0" xMax="2353" yMax="1434">
      <contour>
        <pt x="143" y="94" on="1"/>
        <pt x="143" y="1339" on="1"/>
        <pt x="143" y="1378" on="0"/>
        <pt x="199" y="1434" on="0"/>
        <pt x="238" y="1434" on="1"/>
        <pt x="426" y="1434" on="1"/>
        <pt x="465" y="1434" on="0"/>
        <pt x="520" y="1380" on="0"/>
        <pt x="520" y="1341" on="1"/>
        <pt x="520" y="283" on="1"/>
        <pt x="958" y="283" on="1"/>
        <pt x="958" y="1341" on="1"/>
        <pt x="958" y="1380" on="0"/>
        <pt x="1014" y="1434" on="0"/>
        <pt x="1053" y="1434" on="1"/>
        <pt x="1241" y="1434" on="1"/>
        <pt x="1280" y="1434" on="0"/>
        <pt x="1335" y="1378" on="0"/>
        <pt x="1335" y="1339" on="1"/>
        <pt x="1335" y="283" on="1"/>
        <pt x="1774" y="283" on="1"/>
        <pt x="1774" y="1341" on="1"/>
        <pt x="1774" y="1380" on="0"/>
        <pt x="1829" y="1434" on="0"/>
        <pt x="1868" y="1434" on="1"/>
        <pt x="2056" y="1434" on="1"/>
        <pt x="2095" y="1434" on="0"/>
        <pt x="2150" y="1378" on="0"/>
        <pt x="2150" y="1339" on="1"/>
        <pt x="2150" y="283" on="1"/>
        <pt x="2259" y="283" on="1"/>
        <pt x="2298" y="283" on="0"/>
        <pt x="2353" y="227" on="0"/>
        <pt x="2353" y="188" on="1"/>
        <pt x="2353" y="94" on="1"/>
        <pt x="2353" y="55" on="0"/>
        <pt x="2298" y="0" on="0"/>
        <pt x="2259" y="0" on="1"/>
        <pt x="238" y="0" on="1"/>
        <pt x="199" y="0" on="0"/>
        <pt x="143" y="55" on="0"/>
      </contour>
    </TTGlyph>
    <TTGlyph name="afii10044" xMin="0" yMin="0" xMax="1751" yMax="1434">
      <contour>
        <pt x="0" y="1245" on="1"/>
        <pt x="0" y="1339" on="1"/>
        <pt x="0" y="1378" on="0"/>
        <pt x="55" y="1434" on="0"/>
        <pt x="94" y="1434" on="1"/>
        <pt x="639" y="1434" on="1"/>
        <pt x="678" y="1434" on="0"/>
        <pt x="733" y="1378" on="0"/>
        <pt x="733" y="1339" on="1"/>
        <pt x="733" y="946" on="1"/>
        <pt x="1206" y="946" on="1"/>
        <pt x="1442" y="946" on="0"/>
        <pt x="1751" y="696" on="0"/>
        <pt x="1751" y="250" on="0"/>
        <pt x="1442" y="0" on="0"/>
        <pt x="1206" y="0" on="1"/>
        <pt x="446" y="0" on="1"/>
        <pt x="409" y="0" on="0"/>
        <pt x="356" y="57" on="0"/>
        <pt x="356" y="96" on="1"/>
        <pt x="356" y="1151" on="1"/>
        <pt x="94" y="1151" on="1"/>
        <pt x="55" y="1151" on="0"/>
        <pt x="0" y="1206" on="0"/>
      </contour>
      <contour>
        <pt x="733" y="283" on="1"/>
        <pt x="1206" y="283" on="1"/>
        <pt x="1374" y="283" on="0"/>
        <pt x="1374" y="664" on="0"/>
        <pt x="1206" y="664" on="1"/>
        <pt x="733" y="664" on="1"/>
      </contour>
    </TTGlyph>
    <TTGlyph name="afii10045" xMin="143" yMin="0" xMax="2058" yMax="1434">
      <contour>
        <pt x="143" y="96" on="1"/>
        <pt x="143" y="1339" on="1"/>
        <pt x="143" y="1380" on="0"/>
        <pt x="197" y="1434" on="0"/>
        <pt x="238" y="1434" on="1"/>
        <pt x="426" y="1434" on="1"/>
        <pt x="465" y="1434" on="0"/>
        <pt x="520" y="1378" on="0"/>
        <pt x="520" y="1339" on="1"/>
        <pt x="520" y="946" on="1"/>
        <pt x="932" y="946" on="1"/>
        <pt x="1167" y="946" on="0"/>
        <pt x="1477" y="696" on="0"/>
        <pt x="1477" y="250" on="0"/>
        <pt x="1167" y="0" on="0"/>
        <pt x="932" y="0" on="1"/>
        <pt x="233" y="0" on="1"/>
        <pt x="197" y="0" on="0"/>
        <pt x="143" y="57" on="0"/>
      </contour>
      <contour>
        <pt x="520" y="283" on="1"/>
        <pt x="932" y="283" on="1"/>
        <pt x="1100" y="283" on="0"/>
        <pt x="1100" y="664" on="0"/>
        <pt x="932" y="664" on="1"/>
        <pt x="520" y="664" on="1"/>
      </contour>
      <contour>
        <pt x="1677" y="92" on="1"/>
        <pt x="1677" y="1339" on="1"/>
        <pt x="1677" y="1378" on="0"/>
        <pt x="1733" y="1434" on="0"/>
        <pt x="1772" y="1434" on="1"/>
        <pt x="1962" y="1434" on="1"/>
        <pt x="2003" y="1434" on="0"/>
        <pt x="2058" y="1378" on="0"/>
        <pt x="2058" y="1339" on="1"/>
        <pt x="2058" y="94" on="1"/>
        <pt x="2058" y="55" on="0"/>
        <pt x="2001" y="0" on="0"/>
        <pt x="1962" y="0" on="1"/>
        <pt x="1772" y="0" on="1"/>
        <pt x="1733" y="0" on="0"/>
        <pt x="1677" y="53" on="0"/>
      </contour>
    </TTGlyph>
    <TTGlyph name="afii10046" xMin="143" yMin="0" xMax="1559" yMax="1434">
      <contour>
        <pt x="143" y="96" on="1"/>
        <pt x="143" y="1339" on="1"/>
        <pt x="143" y="1380" on="0"/>
        <pt x="197" y="1434" on="0"/>
        <pt x="238" y="1434" on="1"/>
        <pt x="426" y="1434" on="1"/>
        <pt x="465" y="1434" on="0"/>
        <pt x="520" y="1378" on="0"/>
        <pt x="520" y="1339" on="1"/>
        <pt x="520" y="946" on="1"/>
        <pt x="1014" y="946" on="1"/>
        <pt x="1250" y="946" on="0"/>
        <pt x="1559" y="696" on="0"/>
        <pt x="1559" y="250" on="0"/>
        <pt x="1249" y="0" on="0"/>
        <pt x="1014" y="0" on="1"/>
        <pt x="233" y="0" on="1"/>
        <pt x="196" y="0" on="0"/>
        <pt x="143" y="57" on="0"/>
      </contour>
      <contour>
        <pt x="520" y="283" on="1"/>
        <pt x="1014" y="283" on="1"/>
        <pt x="1182" y="283" on="0"/>
        <pt x="1182" y="664" on="0"/>
        <pt x="1014" y="664" on="1"/>
        <pt x="520" y="664" on="1"/>
      </contour>
    </TTGlyph>
    <TTGlyph name="afii10047" xMin="51" yMin="-8" xMax="1612" yMax="1442">
      <contour>
        <pt x="51" y="412" on="1"/>
        <pt x="51" y="471" on="0"/>
        <pt x="121" y="522" on="0"/>
        <pt x="154" y="522" on="1"/>
        <pt x="272" y="522" on="1"/>
        <pt x="362" y="522" on="0"/>
        <pt x="416" y="412" on="1"/>
        <pt x="484" y="275" on="0"/>
        <pt x="661" y="274" on="1"/>
        <pt x="860" y="274" on="1"/>
        <pt x="1050" y="274" on="0"/>
        <pt x="1221" y="412" on="0"/>
        <pt x="1229" y="582" on="1"/>
        <pt x="692" y="582" on="1"/>
        <pt x="653" y="582" on="0"/>
        <pt x="598" y="637" on="0"/>
        <pt x="598" y="676" on="1"/>
        <pt x="598" y="760" on="1"/>
        <pt x="598" y="799" on="0"/>
        <pt x="653" y="854" on="0"/>
        <pt x="692" y="854" on="1"/>
        <pt x="1229" y="854" on="1"/>
        <pt x="1219" y="1022" on="0"/>
        <pt x="1051" y="1159" on="0"/>
        <pt x="860" y="1159" on="1"/>
        <pt x="682" y="1159" on="1"/>
        <pt x="504" y="1159" on="0"/>
        <pt x="436" y="1022" on="1"/>
        <pt x="383" y="911" on="0"/>
        <pt x="293" y="911" on="1"/>
        <pt x="174" y="911" on="1"/>
        <pt x="127" y="911" on="0"/>
        <pt x="72" y="981" on="0"/>
        <pt x="72" y="1022" on="1"/>
        <pt x="72" y="1151" on="0"/>
        <pt x="246" y="1348" on="0"/>
        <pt x="504" y="1442" on="0"/>
        <pt x="647" y="1442" on="1"/>
        <pt x="870" y="1442" on="1"/>
        <pt x="1241" y="1442" on="0"/>
        <pt x="1612" y="1087" on="0"/>
        <pt x="1612" y="346" on="0"/>
        <pt x="1241" y="-8" on="0"/>
        <pt x="870" y="-8" on="1"/>
        <pt x="627" y="-8" on="1"/>
        <pt x="484" y="-8" on="0"/>
        <pt x="225" y="86" on="0"/>
        <pt x="51" y="283" on="0"/>
      </contour>
    </TTGlyph>
    <TTGlyph name="afii10048" xMin="143" yMin="-31" xMax="2220" yMax="1464">
      <contour>
        <pt x="143" y="94" on="1"/>
        <pt x="143" y="1339" on="1"/>
        <pt x="143" y="1378" on="0"/>
        <pt x="199" y="1434" on="0"/>
        <pt x="240" y="1434" on="1"/>
        <pt x="430" y="1434" on="1"/>
        <pt x="469" y="1434" on="0"/>
        <pt x="524" y="1378" on="0"/>
        <pt x="524" y="1339" on="1"/>
        <pt x="524" y="891" on="1"/>
        <pt x="711" y="891" on="1"/>
        <pt x="795" y="1464" on="0"/>
        <pt x="1460" y="1464" on="1"/>
        <pt x="2220" y="1464" on="0"/>
        <pt x="2220" y="-31" on="0"/>
        <pt x="1460" y="-31" on="1"/>
        <pt x="760" y="-31" on="0"/>
        <pt x="705" y="606" on="1"/>
        <pt x="524" y="606" on="1"/>
        <pt x="524" y="92" on="1"/>
        <pt x="524" y="53" on="0"/>
        <pt x="469" y="0" on="0"/>
        <pt x="430" y="0" on="1"/>
        <pt x="240" y="0" on="1"/>
        <pt x="201" y="0" on="0"/>
        <pt x="143" y="55" on="0"/>
      </contour>
      <contour>
        <pt x="1077" y="1194" on="0"/>
        <pt x="1077" y="240" on="0"/>
        <pt x="1843" y="240" on="0"/>
        <pt x="1843" y="1194" on="0"/>
      </contour>
    </TTGlyph>
    <TTGlyph name="afii10049" xMin="63" yMin="0" xMax="1485" yMax="1434">
      <contour>
        <pt x="63" y="57" on="1"/>
        <pt x="63" y="73" on="0"/>
        <pt x="76" y="94" on="1"/>
        <pt x="352" y="549" on="1"/>
        <pt x="69" y="672" on="0"/>
        <pt x="70" y="967" on="1"/>
        <pt x="70" y="1190" on="0"/>
        <pt x="379" y="1434" on="0"/>
        <pt x="612" y="1434" on="1"/>
        <pt x="1395" y="1434" on="1"/>
        <pt x="1432" y="1434" on="0"/>
        <pt x="1485" y="1380" on="0"/>
        <pt x="1485" y="1341" on="1"/>
        <pt x="1485" y="92" on="1"/>
        <pt x="1485" y="53" on="0"/>
        <pt x="1430" y="0" on="0"/>
        <pt x="1391" y="0" on="1"/>
        <pt x="1202" y="0" on="1"/>
        <pt x="1163" y="0" on="0"/>
        <pt x="1108" y="55" on="0"/>
        <pt x="1108" y="94" on="1"/>
        <pt x="1108" y="508" on="1"/>
        <pt x="750" y="508" on="1"/>
        <pt x="510" y="92" on="1"/>
        <pt x="459" y="0" on="0"/>
        <pt x="365" y="0" on="1"/>
        <pt x="113" y="0" on="1"/>
        <pt x="63" y="0" on="0"/>
      </contour>
      <contour>
        <pt x="446" y="1151" on="0"/>
        <pt x="446" y="799" on="0"/>
        <pt x="612" y="799" on="1"/>
        <pt x="1108" y="799" on="1"/>
        <pt x="1108" y="1151" on="1"/>
        <pt x="612" y="1151" on="1"/>
      </contour>
    </TTGlyph>
    <TTGlyph name="afii10050" xMin="143" yMin="0" xMax="1298" yMax="1651">
      <contour>
        <pt x="143" y="92" on="1"/>
        <pt x="143" y="1339" on="1"/>
        <pt x="143" y="1380" on="0"/>
        <pt x="197" y="1434" on="0"/>
        <pt x="238" y="1434" on="1"/>
        <pt x="956" y="1434" on="1"/>
        <pt x="956" y="1559" on="1"/>
        <pt x="956" y="1597" on="0"/>
        <pt x="1012" y="1651" on="0"/>
        <pt x="1051" y="1651" on="1"/>
        <pt x="1204" y="1651" on="1"/>
        <pt x="1243" y="1651" on="0"/>
        <pt x="1298" y="1597" on="0"/>
        <pt x="1298" y="1559" on="1"/>
        <pt x="1298" y="1245" on="1"/>
        <pt x="1298" y="1204" on="0"/>
        <pt x="1245" y="1151" on="0"/>
        <pt x="1204" y="1151" on="1"/>
        <pt x="520" y="1151" on="1"/>
        <pt x="520" y="92" on="1"/>
        <pt x="520" y="53" on="0"/>
        <pt x="465" y="0" on="0"/>
        <pt x="426" y="0" on="1"/>
        <pt x="238" y="0" on="1"/>
        <pt x="199" y="0" on="0"/>
        <pt x="143" y="53" on="0"/>
      </contour>
    </TTGlyph>
</ttFont>
